<svg width="26" height="26" viewBox="0 0 26 26" fill="none" xmlns="http://www.w3.org/2000/svg">
<g clip-path="url(#clip0_2057_4)">
<path d="M16.9784 10.1442C17.2531 10.4189 17.2531 10.8641 16.9784 11.1386L12.2614 15.8558C11.9868 16.1303 11.5417 16.1303 11.267 15.8558L9.02158 13.6102C8.74692 13.3356 8.74692 12.8904 9.02158 12.6159C9.2961 12.3412 9.74132 12.3412 10.0158 12.6159L11.7642 14.3642L15.984 10.1442C16.2587 9.86972 16.7039 9.86972 16.9784 10.1442ZM22 13C22 17.9747 17.9741 22 13 22C8.02525 22 4 17.9741 4 13C4 8.02525 8.02594 4 13 4C17.9747 4 22 8.02594 22 13ZM20.5938 13C20.5938 8.80254 17.1969 5.40625 13 5.40625C8.80254 5.40625 5.40625 8.80309 5.40625 13C5.40625 17.1975 8.80309 20.5938 13 20.5938C17.1975 20.5938 20.5938 17.1969 20.5938 13Z" fill="#00C136"/>
</g>
<defs>
<clipPath id="clip0_2057_4">
<rect width="18" height="18" fill="white" transform="translate(4 4)"/>
</clipPath>
</defs>
</svg>
