<svg width="24" height="24" viewBox="0 0 24 24" fill="none" xmlns="http://www.w3.org/2000/svg">
<path d="M18.5625 21.6458L16.8075 21.1958L16.0275 22.8233C15.75 23.3933 14.94 23.3933 14.67 22.8158L13.095 19.4408C14.9175 19.2458 16.5975 18.5633 18 17.5358L19.425 20.5958C19.695 21.1733 19.1775 21.7958 18.5625 21.6458Z" fill="white"/>
<path d="M10.905 19.4408L9.32995 22.8158C9.05995 23.3933 8.24996 23.3933 7.97246 22.8233L7.19245 21.1958L5.43745 21.6458C4.82245 21.7958 4.30495 21.1733 4.57495 20.5958L5.99995 17.5358C7.40245 18.5633 9.08245 19.2458 10.905 19.4408Z" fill="white"/>
<path d="M12 0.75C7.23675 0.75 3.375 4.61175 3.375 9.375C3.375 14.1382 7.23675 18 12 18C16.7632 18 20.625 14.1382 20.625 9.375C20.625 4.61175 16.7632 0.75 12 0.75ZM15.8917 9.17325L14.505 10.5247L14.832 12.4335C14.94 13.0627 14.2792 13.5435 13.7137 13.2457L12 12.345L10.2863 13.2457C9.72075 13.5427 9.06 13.0627 9.168 12.4335L9.495 10.5247L8.10825 9.17325C7.65075 8.727 7.9035 7.95075 8.53575 7.8585L10.452 7.58025L11.3093 5.844C11.592 5.271 12.4088 5.271 12.6915 5.844L13.5488 7.58025L15.465 7.8585C16.0973 7.95 16.3493 8.727 15.8925 9.17325H15.8917Z" fill="white"/>
</svg>
