<svg width="71" height="70" viewBox="0 0 71 70" fill="none" xmlns="http://www.w3.org/2000/svg">
<g clip-path="url(#clip0_2007_3)">
<path d="M39.2368 22.1022C38.8999 21.6232 38.2386 21.5081 37.7594 21.8451C37.2803 22.1819 37.1652 22.8433 37.5021 23.3225C40.2571 27.2392 38.5758 31.4866 37.9584 32.7604L37.8763 32.7814C37.8117 32.7904 37.7471 32.8021 37.6825 32.8191C37.6229 32.8347 37.5653 32.8541 37.509 32.8757L34.5289 33.6404C34.4371 33.6467 34.3445 33.6591 34.252 33.6815C34.1525 33.7056 34.0581 33.7393 33.9677 33.7794C32.7503 32.7736 29.2474 30.435 23.1812 30.6221C22.5959 30.6403 22.136 31.1294 22.1541 31.7148C22.1722 32.3001 22.6588 32.7661 23.2467 32.7419C29.7859 32.542 32.7959 35.5576 32.9167 35.6817C32.9604 35.7278 33.0084 35.7684 33.0585 35.8054C33.2107 36.511 33.9192 40.1126 33.5467 44.3944C33.4483 45.5254 33.2748 46.7037 32.9954 47.8889L27.7537 46.9306C26.8534 46.7653 25.9902 47.3625 25.8258 48.2625C25.6612 49.1627 26.2575 50.0259 27.1577 50.1904L33.8952 51.422C33.9955 51.4404 34.0956 51.4493 34.1944 51.4493C34.9076 51.4491 35.5569 50.9868 35.7755 50.284C36.3602 48.4031 36.6872 46.5207 36.8473 44.7504C36.8538 44.6779 36.8597 44.6059 36.8657 44.5338C37.3371 44.6014 37.8147 44.6587 38.2627 44.702C38.356 45.5868 38.4306 46.4891 38.4774 47.3898L36.9796 46.8723C36.8058 47.9398 36.5624 49.0302 36.2375 50.1219L39.6466 51.2996C39.8229 51.3606 40.0056 51.3906 40.1875 51.3906C40.5253 51.3906 40.8598 51.2873 41.143 51.0874C41.5785 50.7801 41.8395 50.282 41.8444 49.7487C41.9114 42.4605 39.8002 34.3559 39.7066 34.0005C40.31 32.8567 42.8928 27.2999 39.2368 22.1022Z" fill="#B08D57"/>
<path d="M34.841 32.642C36.4849 32.5464 37.74 31.1363 37.6445 29.4925C37.549 27.8486 36.1389 26.5934 34.495 26.689C32.8511 26.7845 31.596 28.1946 31.6915 29.8384C31.787 31.4823 33.1971 32.7375 34.841 32.642Z" fill="#B08D57"/>
<path d="M33.0152 45.5787C32.306 45.5528 31.6332 45.9882 31.3894 46.6936C31.3345 46.8527 31.3056 47.0144 31.2997 47.1743L32.6919 47.4288C32.8272 46.8074 32.9331 46.1888 33.0152 45.5787Z" fill="#B08D57"/>
<path d="M35.2084 52.3402H35.4294V57.9727H35.2084V52.3402Z" fill="#B08D57"/>
<path d="M36.5339 53.5137H36.7549V59.1462H36.5339V53.5137Z" fill="#B08D57"/>
<path d="M35.8712 54.5698H36.0921V62.6519H35.8712V54.5698Z" fill="#B08D57"/>
</g>
<g filter="url(#filter0_d_2007_3)">
<circle cx="35.5" cy="41" r="24.65" stroke="#B08D57" stroke-width="1.3" shape-rendering="crispEdges"/>
</g>
<g filter="url(#filter1_d_2007_3)">
<mask id="path-8-outside-1_2007_3" maskUnits="userSpaceOnUse" x="30.5" y="5" width="9" height="15" fill="black">
<rect fill="white" x="30.5" y="5" width="9" height="15"/>
<path d="M36.16 7.96C36.12 8.81333 36.1 9.63333 36.1 10.42C36.1 11.2333 36.1533 12.4267 36.26 14C36.2733 14.24 36.3 14.7267 36.34 15.46C36.38 16.18 36.4 16.84 36.4 17.44C36.5333 17.4267 36.6733 17.4067 36.82 17.38C36.98 17.3533 37.1 17.34 37.18 17.34C37.4733 17.34 37.7067 17.4133 37.88 17.56C38.0533 17.7067 38.14 17.9333 38.14 18.24C38.14 18.44 38.06 18.5933 37.9 18.7C37.74 18.8067 37.46 18.8867 37.06 18.94C36.6733 18.98 36.1067 19 35.36 19C34.5333 19 33.9133 18.9733 33.5 18.92C33.0867 18.8667 32.8 18.7667 32.64 18.62C32.48 18.46 32.4 18.2267 32.4 17.92C32.4 17.6933 32.4733 17.54 32.62 17.46C32.7667 17.38 32.9733 17.34 33.24 17.34L33.66 17.36L34.32 17.4L34.22 15.04C34.14 13.76 34.1 12.5867 34.1 11.52C34.1 10.9467 34.12 10.16 34.16 9.16L34.2 8.06C33.7467 8.08667 33.3933 8.1 33.14 8.1C32.8467 8.1 32.6467 8.04667 32.54 7.94C32.4467 7.83333 32.4 7.61333 32.4 7.28C32.4 6.90667 32.6533 6.66667 33.16 6.56C33.68 6.45333 34.4667 6.4 35.52 6.4C36.3333 6.4 36.94 6.42667 37.34 6.48C37.7533 6.53333 37.96 6.65333 37.96 6.84C37.96 7.29333 37.86 7.59333 37.66 7.74C37.4733 7.87333 37.1067 7.94 36.56 7.94L36.16 7.96Z"/>
</mask>
<path d="M36.16 7.96C36.12 8.81333 36.1 9.63333 36.1 10.42C36.1 11.2333 36.1533 12.4267 36.26 14C36.2733 14.24 36.3 14.7267 36.34 15.46C36.38 16.18 36.4 16.84 36.4 17.44C36.5333 17.4267 36.6733 17.4067 36.82 17.38C36.98 17.3533 37.1 17.34 37.18 17.34C37.4733 17.34 37.7067 17.4133 37.88 17.56C38.0533 17.7067 38.14 17.9333 38.14 18.24C38.14 18.44 38.06 18.5933 37.9 18.7C37.74 18.8067 37.46 18.8867 37.06 18.94C36.6733 18.98 36.1067 19 35.36 19C34.5333 19 33.9133 18.9733 33.5 18.92C33.0867 18.8667 32.8 18.7667 32.64 18.62C32.48 18.46 32.4 18.2267 32.4 17.92C32.4 17.6933 32.4733 17.54 32.62 17.46C32.7667 17.38 32.9733 17.34 33.24 17.34L33.66 17.36L34.32 17.4L34.22 15.04C34.14 13.76 34.1 12.5867 34.1 11.52C34.1 10.9467 34.12 10.16 34.16 9.16L34.2 8.06C33.7467 8.08667 33.3933 8.1 33.14 8.1C32.8467 8.1 32.6467 8.04667 32.54 7.94C32.4467 7.83333 32.4 7.61333 32.4 7.28C32.4 6.90667 32.6533 6.66667 33.16 6.56C33.68 6.45333 34.4667 6.4 35.52 6.4C36.3333 6.4 36.94 6.42667 37.34 6.48C37.7533 6.53333 37.96 6.65333 37.96 6.84C37.96 7.29333 37.86 7.59333 37.66 7.74C37.4733 7.87333 37.1067 7.94 36.56 7.94L36.16 7.96Z" fill="#B08D57"/>
<path d="M36.16 7.96L36.1101 6.96125L35.2036 7.00657L35.1611 7.91318L36.16 7.96ZM36.26 14L37.2585 13.9445L37.2577 13.9324L36.26 14ZM36.34 15.46L35.3415 15.5145L35.3415 15.5155L36.34 15.46ZM36.4 17.44H35.4V18.545L36.4995 18.435L36.4 17.44ZM36.82 17.38L36.6556 16.3936L36.6483 16.3948L36.6411 16.3961L36.82 17.38ZM37.88 17.56L37.2341 18.3234L37.2341 18.3234L37.88 17.56ZM37.9 18.7L38.4547 19.5321L38.4547 19.5321L37.9 18.7ZM37.06 18.94L37.1629 19.9347L37.1776 19.9332L37.1922 19.9312L37.06 18.94ZM33.5 18.92L33.372 19.9118L33.372 19.9118L33.5 18.92ZM32.64 18.62L31.9329 19.3271L31.9483 19.3425L31.9643 19.3572L32.64 18.62ZM32.62 17.46L32.1411 16.5821L32.1411 16.5821L32.62 17.46ZM33.24 17.34L33.2876 16.3411L33.2638 16.34H33.24V17.34ZM33.66 17.36L33.7205 16.3617L33.7076 16.3611L33.66 17.36ZM34.32 17.4L34.2595 18.3982L35.366 18.4652L35.3191 17.3577L34.32 17.4ZM34.22 15.04L35.2191 14.9977L35.2187 14.9876L35.2181 14.9776L34.22 15.04ZM34.16 9.16L35.1592 9.19997L35.1593 9.19634L34.16 9.16ZM34.2 8.06L35.1993 8.09634L35.2393 6.99713L34.1413 7.06172L34.2 8.06ZM32.54 7.94L31.7874 8.5985L31.8093 8.62356L31.8329 8.64711L32.54 7.94ZM33.16 6.56L32.9591 5.58038L32.954 5.58145L33.16 6.56ZM37.34 6.48L37.2078 7.47124L37.212 7.47178L37.34 6.48ZM37.66 7.74L38.2413 8.5538L38.2514 8.5464L37.66 7.74ZM36.56 7.94V6.94H36.535L36.5101 6.94125L36.56 7.94ZM35.1611 7.91318C35.1204 8.78079 35.1 9.61646 35.1 10.42H37.1C37.1 9.65021 37.1196 8.84587 37.1589 8.00682L35.1611 7.91318ZM35.1 10.42C35.1 11.268 35.1552 12.4885 35.2623 14.0676L37.2577 13.9324C37.1514 12.3648 37.1 11.1986 37.1 10.42H35.1ZM35.2615 14.0555C35.2748 14.2949 35.3015 14.781 35.3415 15.5145L37.3385 15.4055C37.2985 14.6723 37.2718 14.1851 37.2585 13.9445L35.2615 14.0555ZM35.3415 15.5155C35.3807 16.2205 35.4 16.8617 35.4 17.44H37.4C37.4 16.8183 37.3793 16.1395 37.3385 15.4045L35.3415 15.5155ZM36.4995 18.435C36.6622 18.4188 36.8288 18.3948 36.9989 18.3639L36.6411 16.3961C36.5179 16.4185 36.4045 16.4346 36.3005 16.445L36.4995 18.435ZM36.9844 18.3664C37.0521 18.3551 37.1034 18.348 37.1404 18.3439C37.1802 18.3395 37.1904 18.34 37.18 18.34V16.34C37.0137 16.34 36.8266 16.3651 36.6556 16.3936L36.9844 18.3664ZM37.18 18.34C37.2446 18.34 37.2726 18.3482 37.2752 18.349C37.2761 18.3493 37.2714 18.3479 37.2629 18.3433C37.2543 18.3386 37.2442 18.332 37.2341 18.3234L38.5259 16.7966C38.1248 16.4571 37.6395 16.34 37.18 16.34V18.34ZM37.2341 18.3234C37.211 18.3038 37.1902 18.281 37.1731 18.2565C37.1563 18.2323 37.1463 18.2112 37.1409 18.1971C37.1309 18.1708 37.14 18.1779 37.14 18.24H39.14C39.14 17.7482 38.9955 17.1939 38.5259 16.7966L37.2341 18.3234ZM37.14 18.24C37.14 18.2042 37.148 18.1294 37.1934 18.0424C37.2396 17.9539 37.3013 17.8973 37.3453 17.8679L38.4547 19.5321C38.906 19.2312 39.14 18.7583 39.14 18.24H37.14ZM37.3453 17.8679C37.3835 17.8425 37.3815 17.8539 37.2953 17.8785C37.216 17.9011 37.0966 17.9263 36.9278 17.9488L37.1922 19.9312C37.6126 19.8752 38.0911 19.7745 38.4547 19.5321L37.3453 17.8679ZM36.9571 17.9453C36.6228 17.9799 36.0974 18 35.36 18V20C36.1159 20 36.7239 19.9801 37.1629 19.9347L36.9571 17.9453ZM35.36 18C34.5432 18 33.9754 17.9731 33.628 17.9282L33.372 19.9118C33.8512 19.9736 34.5235 20 35.36 20V18ZM33.628 17.9282C33.4665 17.9074 33.3633 17.8814 33.3044 17.8608C33.2417 17.8389 33.2641 17.8355 33.3157 17.8828L31.9643 19.3572C32.3626 19.7223 32.9137 19.8526 33.372 19.9118L33.628 17.9282ZM33.3471 17.9129C33.3642 17.93 33.3781 17.9481 33.3886 17.9654C33.399 17.9824 33.4041 17.9951 33.4059 18.0007C33.4092 18.0102 33.4 17.9887 33.4 17.92H31.4C31.4 18.3951 31.5265 18.9207 31.9329 19.3271L33.3471 17.9129ZM33.4 17.92C33.4 17.9085 33.4026 17.9713 33.3571 18.0665C33.3048 18.1759 33.2134 18.2754 33.0989 18.3379L32.1411 16.5821C31.5606 16.8988 31.4 17.4766 31.4 17.92H33.4ZM33.0989 18.3379C33.0619 18.3581 33.0477 18.3571 33.075 18.3518C33.1018 18.3466 33.1544 18.34 33.24 18.34V16.34C32.8957 16.34 32.4972 16.3879 32.1411 16.5821L33.0989 18.3379ZM33.1924 18.3389L33.6124 18.3589L33.7076 16.3611L33.2876 16.3411L33.1924 18.3389ZM33.5995 18.3582L34.2595 18.3982L34.3805 16.4018L33.7205 16.3618L33.5995 18.3582ZM35.3191 17.3577L35.2191 14.9977L33.2209 15.0823L33.3209 17.4423L35.3191 17.3577ZM35.2181 14.9776C35.1391 13.7144 35.1 12.5622 35.1 11.52H33.1C33.1 12.6111 33.1409 13.8056 33.2219 15.1024L35.2181 14.9776ZM35.1 11.52C35.1 10.9662 35.1194 10.1949 35.1592 9.19997L33.1608 9.12003C33.1206 10.1251 33.1 10.9271 33.1 11.52H35.1ZM35.1593 9.19634L35.1993 8.09634L33.2007 8.02366L33.1607 9.12366L35.1593 9.19634ZM34.1413 7.06172C33.6948 7.08799 33.3642 7.1 33.14 7.1V9.1C33.4225 9.1 33.7985 9.08534 34.2587 9.05827L34.1413 7.06172ZM33.14 7.1C33.0963 7.1 33.0652 7.09798 33.045 7.09579C33.0244 7.09357 33.0199 7.09168 33.0277 7.09376C33.0371 7.09628 33.1382 7.12394 33.2471 7.23289L31.8329 8.64711C32.24 9.05426 32.8019 9.1 33.14 9.1V7.1ZM33.2926 7.2815C33.3532 7.35083 33.3841 7.41263 33.3979 7.44483C33.4119 7.47741 33.4147 7.49455 33.4132 7.48749C33.4119 7.48136 33.4083 7.46158 33.4052 7.42471C33.4021 7.38836 33.4 7.34064 33.4 7.28H31.4C31.4 7.48644 31.4138 7.70016 31.4568 7.9025C31.4968 8.09111 31.5808 8.36234 31.7874 8.5985L33.2926 7.2815ZM33.4 7.28C33.4 7.3013 33.396 7.34811 33.3718 7.40676C33.3469 7.46689 33.3112 7.51426 33.2777 7.54595C33.2469 7.57514 33.2287 7.58109 33.2425 7.57482C33.2569 7.56825 33.2949 7.55351 33.366 7.53855L32.954 5.58145C32.6016 5.65564 32.213 5.79968 31.9023 6.09405C31.5612 6.41714 31.4 6.84015 31.4 7.28H33.4ZM33.3609 7.5396C33.7781 7.45402 34.4819 7.4 35.52 7.4V5.4C34.4514 5.4 33.5819 5.45264 32.9591 5.5804L33.3609 7.5396ZM35.52 7.4C36.324 7.4 36.8763 7.42702 37.2078 7.47123L37.4722 5.48877C37.0037 5.42631 36.3426 5.4 35.52 5.4V7.4ZM37.212 7.47178C37.2807 7.48064 37.322 7.48999 37.342 7.49557C37.3642 7.50178 37.3446 7.49904 37.3029 7.47479C37.2606 7.45027 37.1716 7.38954 37.092 7.27135C37.0054 7.14288 36.96 6.99043 36.96 6.84H38.96C38.96 6.28836 38.619 5.92629 38.3071 5.74521C38.0333 5.5862 37.723 5.52113 37.468 5.48822L37.212 7.47178ZM36.96 6.84C36.96 6.91744 36.9557 6.97648 36.9499 7.01966C36.9442 7.06317 36.9378 7.0844 36.9363 7.08877C36.9349 7.09289 36.9405 7.07433 36.9611 7.04369C36.9827 7.01153 37.0176 6.971 37.0686 6.93359L38.2514 8.5464C38.8594 8.10054 38.96 7.3606 38.96 6.84H36.96ZM37.0788 6.92627C37.1239 6.89405 37.1525 6.88481 37.1463 6.88705C37.1412 6.8889 37.1167 6.89693 37.0661 6.90613C36.9622 6.92503 36.7983 6.94 36.56 6.94V8.94C36.8683 8.94 37.1612 8.92163 37.4239 8.87387C37.6722 8.82872 37.9759 8.74329 38.2412 8.55373L37.0788 6.92627ZM36.5101 6.94125L36.1101 6.96125L36.2099 8.95875L36.6099 8.93875L36.5101 6.94125Z" fill="#2A2113" mask="url(#path-8-outside-1_2007_3)"/>
</g>
<defs>
<filter id="filter0_d_2007_3" x="8.20001" y="13.7" width="54.6" height="54.6001" filterUnits="userSpaceOnUse" color-interpolation-filters="sRGB">
<feFlood flood-opacity="0" result="BackgroundImageFix"/>
<feColorMatrix in="SourceAlpha" type="matrix" values="0 0 0 0 0 0 0 0 0 0 0 0 0 0 0 0 0 0 127 0" result="hardAlpha"/>
<feOffset/>
<feGaussianBlur stdDeviation="1"/>
<feComposite in2="hardAlpha" operator="out"/>
<feColorMatrix type="matrix" values="0 0 0 0 0 0 0 0 0 0 0 0 0 0 0 0 0 0 1 0"/>
<feBlend mode="normal" in2="BackgroundImageFix" result="effect1_dropShadow_2007_3"/>
<feBlend mode="normal" in="SourceGraphic" in2="effect1_dropShadow_2007_3" result="shape"/>
</filter>
<filter id="filter1_d_2007_3" x="29.4" y="5.40002" width="11.74" height="18.6" filterUnits="userSpaceOnUse" color-interpolation-filters="sRGB">
<feFlood flood-opacity="0" result="BackgroundImageFix"/>
<feColorMatrix in="SourceAlpha" type="matrix" values="0 0 0 0 0 0 0 0 0 0 0 0 0 0 0 0 0 0 127 0" result="hardAlpha"/>
<feOffset dy="2"/>
<feGaussianBlur stdDeviation="1.5"/>
<feComposite in2="hardAlpha" operator="out"/>
<feColorMatrix type="matrix" values="0 0 0 0 0 0 0 0 0 0 0 0 0 0 0 0 0 0 0.25 0"/>
<feBlend mode="normal" in2="BackgroundImageFix" result="effect1_dropShadow_2007_3"/>
<feBlend mode="normal" in="SourceGraphic" in2="effect1_dropShadow_2007_3" result="shape"/>
</filter>
<clipPath id="clip0_2007_3">
<rect width="41" height="41" fill="white" transform="translate(11.5 21.6519)"/>
</clipPath>
</defs>
</svg>
