<svg width="70" height="70" viewBox="0 0 70 70" fill="none" xmlns="http://www.w3.org/2000/svg">
<g clip-path="url(#clip0_2001_7)">
<path d="M38.7368 22.4504C38.3999 21.9713 37.7386 21.8563 37.2594 22.1932C36.7803 22.53 36.6652 23.1915 37.0021 23.6707C39.7571 27.5874 38.0758 31.8348 37.4584 33.1085L37.3763 33.1296C37.3117 33.1386 37.2471 33.1503 37.1825 33.1672C37.1229 33.1829 37.0653 33.2022 37.009 33.2238L34.0289 33.9885C33.9371 33.9949 33.8445 34.0072 33.752 34.0296C33.6525 34.0537 33.5581 34.0874 33.4677 34.1276C32.2503 33.1218 28.7474 30.7831 22.6812 30.9703C22.0959 30.9884 21.636 31.4776 21.6541 32.0629C21.6722 32.6483 22.1588 33.1142 22.7467 33.0901C29.2859 32.8902 32.2959 35.9058 32.4167 36.0299C32.4604 36.076 32.5084 36.1165 32.5585 36.1535C32.7107 36.8591 33.4192 40.4607 33.0467 44.7425C32.9483 45.8736 32.7748 47.0519 32.4954 48.237L27.2537 47.2788C26.3534 47.1135 25.4902 47.7106 25.3258 48.6107C25.1612 49.5109 25.7575 50.3741 26.6577 50.5386L33.3952 51.7701C33.4955 51.7885 33.5956 51.7974 33.6944 51.7974C34.4076 51.7973 35.0569 51.3349 35.2755 50.6321C35.8602 48.7512 36.1872 46.8688 36.3473 45.0985C36.3538 45.026 36.3597 44.9541 36.3657 44.8819C36.8371 44.9495 37.3147 45.0068 37.7627 45.0502C37.856 45.935 37.9306 46.8372 37.9774 47.738L36.4796 47.2205C36.3058 48.2879 36.0624 49.3783 35.7375 50.47L39.1466 51.6478C39.3229 51.7087 39.5056 51.7387 39.6875 51.7387C40.0253 51.7387 40.3598 51.6354 40.643 51.4355C41.0785 51.1283 41.3395 50.6301 41.3444 50.0969C41.4114 42.8087 39.3002 34.7041 39.2066 34.3487C39.81 33.2049 42.3928 27.6481 38.7368 22.4504Z" fill="#B08D57"/>
<path d="M34.341 32.9901C35.9849 32.8946 37.2401 31.4845 37.1445 29.8406C37.049 28.1967 35.6389 26.9416 33.9951 27.0371C32.3512 27.1326 31.096 28.5427 31.1915 30.1866C31.2871 31.8305 32.6971 33.0856 34.341 32.9901Z" fill="#B08D57"/>
<path d="M32.5152 45.9269C31.806 45.9009 31.1332 46.3363 30.8894 47.0418C30.8345 47.2009 30.8056 47.3626 30.7997 47.5224L32.1919 47.7769C32.3272 47.1555 32.4331 46.5369 32.5152 45.9269Z" fill="#B08D57"/>
<path d="M34.7084 52.6884H34.9293V58.3208H34.7084V52.6884Z" fill="#B08D57"/>
<path d="M36.0339 53.8618H36.2549V59.4943H36.0339V53.8618Z" fill="#B08D57"/>
<path d="M35.3712 54.9178H35.5922V62.9999H35.3712V54.9178Z" fill="#B08D57"/>
</g>
<circle cx="35" cy="41" r="24.65" stroke="#B08D57" stroke-width="1.3"/>
<mask id="path-8-outside-1_2001_7" maskUnits="userSpaceOnUse" x="30" y="5" width="9" height="15" fill="black">
<rect fill="white" x="30" y="5" width="9" height="15"/>
<path d="M35.66 7.96C35.62 8.81333 35.6 9.63333 35.6 10.42C35.6 11.2333 35.6533 12.4267 35.76 14C35.7733 14.24 35.8 14.7267 35.84 15.46C35.88 16.18 35.9 16.84 35.9 17.44C36.0333 17.4267 36.1733 17.4067 36.32 17.38C36.48 17.3533 36.6 17.34 36.68 17.34C36.9733 17.34 37.2067 17.4133 37.38 17.56C37.5533 17.7067 37.64 17.9333 37.64 18.24C37.64 18.44 37.56 18.5933 37.4 18.7C37.24 18.8067 36.96 18.8867 36.56 18.94C36.1733 18.98 35.6067 19 34.86 19C34.0333 19 33.4133 18.9733 33 18.92C32.5867 18.8667 32.3 18.7667 32.14 18.62C31.98 18.46 31.9 18.2267 31.9 17.92C31.9 17.6933 31.9733 17.54 32.12 17.46C32.2667 17.38 32.4733 17.34 32.74 17.34L33.16 17.36L33.82 17.4L33.72 15.04C33.64 13.76 33.6 12.5867 33.6 11.52C33.6 10.9467 33.62 10.16 33.66 9.16L33.7 8.06C33.2467 8.08667 32.8933 8.1 32.64 8.1C32.3467 8.1 32.1467 8.04667 32.04 7.94C31.9467 7.83333 31.9 7.61333 31.9 7.28C31.9 6.90667 32.1533 6.66667 32.66 6.56C33.18 6.45333 33.9667 6.4 35.02 6.4C35.8333 6.4 36.44 6.42667 36.84 6.48C37.2533 6.53333 37.46 6.65333 37.46 6.84C37.46 7.29333 37.36 7.59333 37.16 7.74C36.9733 7.87333 36.6067 7.94 36.06 7.94L35.66 7.96Z"/>
</mask>
<path d="M35.66 7.96C35.62 8.81333 35.6 9.63333 35.6 10.42C35.6 11.2333 35.6533 12.4267 35.76 14C35.7733 14.24 35.8 14.7267 35.84 15.46C35.88 16.18 35.9 16.84 35.9 17.44C36.0333 17.4267 36.1733 17.4067 36.32 17.38C36.48 17.3533 36.6 17.34 36.68 17.34C36.9733 17.34 37.2067 17.4133 37.38 17.56C37.5533 17.7067 37.64 17.9333 37.64 18.24C37.64 18.44 37.56 18.5933 37.4 18.7C37.24 18.8067 36.96 18.8867 36.56 18.94C36.1733 18.98 35.6067 19 34.86 19C34.0333 19 33.4133 18.9733 33 18.92C32.5867 18.8667 32.3 18.7667 32.14 18.62C31.98 18.46 31.9 18.2267 31.9 17.92C31.9 17.6933 31.9733 17.54 32.12 17.46C32.2667 17.38 32.4733 17.34 32.74 17.34L33.16 17.36L33.82 17.4L33.72 15.04C33.64 13.76 33.6 12.5867 33.6 11.52C33.6 10.9467 33.62 10.16 33.66 9.16L33.7 8.06C33.2467 8.08667 32.8933 8.1 32.64 8.1C32.3467 8.1 32.1467 8.04667 32.04 7.94C31.9467 7.83333 31.9 7.61333 31.9 7.28C31.9 6.90667 32.1533 6.66667 32.66 6.56C33.18 6.45333 33.9667 6.4 35.02 6.4C35.8333 6.4 36.44 6.42667 36.84 6.48C37.2533 6.53333 37.46 6.65333 37.46 6.84C37.46 7.29333 37.36 7.59333 37.16 7.74C36.9733 7.87333 36.6067 7.94 36.06 7.94L35.66 7.96Z" fill="#B08D57"/>
<path d="M35.66 7.96L35.6101 6.96125L34.7036 7.00657L34.6611 7.91318L35.66 7.96ZM35.76 14L36.7585 13.9445L36.7577 13.9324L35.76 14ZM35.84 15.46L34.8415 15.5145L34.8415 15.5155L35.84 15.46ZM35.9 17.44H34.9V18.545L35.9995 18.435L35.9 17.44ZM36.32 17.38L36.1556 16.3936L36.1483 16.3948L36.1411 16.3961L36.32 17.38ZM37.38 17.56L36.7341 18.3234L36.7341 18.3234L37.38 17.56ZM37.4 18.7L37.9547 19.5321V19.532L37.4 18.7ZM36.56 18.94L36.6629 19.9347L36.6776 19.9332L36.6922 19.9312L36.56 18.94ZM33 18.92L32.872 19.9118L33 18.92ZM32.14 18.62L31.4329 19.3271L31.4483 19.3425L31.4643 19.3572L32.14 18.62ZM32.12 17.46L31.6411 16.5821H31.6411L32.12 17.46ZM32.74 17.34L32.7876 16.3411L32.7638 16.34H32.74V17.34ZM33.16 17.36L33.2205 16.3617L33.2076 16.3611L33.16 17.36ZM33.82 17.4L33.7595 18.3982L34.866 18.4652L34.8191 17.3577L33.82 17.4ZM33.72 15.04L34.7191 14.9977L34.7187 14.9876L34.7181 14.9776L33.72 15.04ZM33.66 9.16L34.6592 9.19997L34.6593 9.19634L33.66 9.16ZM33.7 8.06L34.6993 8.09634L34.7393 6.99713L33.6413 7.06172L33.7 8.06ZM32.04 7.94L31.2874 8.5985L31.3093 8.62356L31.3329 8.64711L32.04 7.94ZM32.66 6.56L32.4591 5.58038L32.454 5.58145L32.66 6.56ZM36.84 6.48L36.7078 7.47124L36.712 7.47178L36.84 6.48ZM37.16 7.74L37.7413 8.5538L37.7514 8.5464L37.16 7.74ZM36.06 7.94V6.94H36.035L36.0101 6.94125L36.06 7.94ZM34.6611 7.91318C34.6204 8.78079 34.6 9.61646 34.6 10.42H36.6C36.6 9.65021 36.6196 8.84587 36.6589 8.00682L34.6611 7.91318ZM34.6 10.42C34.6 11.268 34.6552 12.4885 34.7623 14.0676L36.7577 13.9324C36.6514 12.3648 36.6 11.1986 36.6 10.42H34.6ZM34.7615 14.0555C34.7748 14.2949 34.8015 14.781 34.8415 15.5145L36.8385 15.4055C36.7985 14.6723 36.7718 14.1851 36.7585 13.9445L34.7615 14.0555ZM34.8415 15.5155C34.8807 16.2205 34.9 16.8617 34.9 17.44H36.9C36.9 16.8183 36.8793 16.1395 36.8385 15.4045L34.8415 15.5155ZM35.9995 18.435C36.1622 18.4188 36.3288 18.3948 36.4989 18.3639L36.1411 16.3961C36.0179 16.4185 35.9045 16.4346 35.8005 16.445L35.9995 18.435ZM36.4844 18.3664C36.5521 18.3551 36.6034 18.348 36.6404 18.3439C36.6802 18.3395 36.6904 18.34 36.68 18.34V16.34C36.5137 16.34 36.3266 16.3651 36.1556 16.3936L36.4844 18.3664ZM36.68 18.34C36.7446 18.34 36.7726 18.3482 36.7752 18.349C36.7761 18.3493 36.7714 18.3479 36.7629 18.3433C36.7543 18.3386 36.7442 18.332 36.7341 18.3234L38.0259 16.7966C37.6248 16.4571 37.1395 16.34 36.68 16.34V18.34ZM36.7341 18.3234C36.711 18.3038 36.6902 18.281 36.6731 18.2565C36.6563 18.2323 36.6463 18.2112 36.6409 18.1971C36.6309 18.1708 36.64 18.1779 36.64 18.24H38.64C38.64 17.7482 38.4955 17.1939 38.0259 16.7966L36.7341 18.3234ZM36.64 18.24C36.64 18.2042 36.648 18.1294 36.6934 18.0424C36.7396 17.9539 36.8013 17.8973 36.8453 17.868L37.9547 19.532C38.406 19.2312 38.64 18.7583 38.64 18.24H36.64ZM36.8453 17.868C36.8835 17.8425 36.8815 17.8539 36.7953 17.8785C36.716 17.9011 36.5966 17.9263 36.4278 17.9488L36.6922 19.9312C37.1126 19.8752 37.5911 19.7745 37.9547 19.5321L36.8453 17.868ZM36.4571 17.9453C36.1228 17.9799 35.5974 18 34.86 18V20C35.6159 20 36.2239 19.9801 36.6629 19.9347L36.4571 17.9453ZM34.86 18C34.0432 18 33.4754 17.9731 33.128 17.9282L32.872 19.9118C33.3512 19.9736 34.0235 20 34.86 20V18ZM33.128 17.9282C32.9665 17.9074 32.8633 17.8814 32.8044 17.8608C32.7417 17.8389 32.7641 17.8355 32.8157 17.8828L31.4643 19.3572C31.8626 19.7223 32.4137 19.8526 32.872 19.9118L33.128 17.9282ZM32.8471 17.9129C32.8642 17.93 32.8781 17.9481 32.8886 17.9654C32.899 17.9824 32.9041 17.9951 32.9059 18.0007C32.9092 18.0102 32.9 17.9887 32.9 17.92H30.9C30.9 18.3951 31.0265 18.9207 31.4329 19.3271L32.8471 17.9129ZM32.9 17.92C32.9 17.9085 32.9026 17.9713 32.8571 18.0665C32.8048 18.1759 32.7134 18.2754 32.5989 18.3379L31.6411 16.5821C31.0606 16.8988 30.9 17.4766 30.9 17.92H32.9ZM32.5989 18.3379C32.5619 18.3581 32.5477 18.3571 32.575 18.3518C32.6018 18.3466 32.6544 18.34 32.74 18.34V16.34C32.3957 16.34 31.9972 16.3879 31.6411 16.5821L32.5989 18.3379ZM32.6924 18.3389L33.1124 18.3589L33.2076 16.3611L32.7876 16.3411L32.6924 18.3389ZM33.0995 18.3582L33.7595 18.3982L33.8805 16.4018L33.2205 16.3618L33.0995 18.3582ZM34.8191 17.3577L34.7191 14.9977L32.7209 15.0823L32.8209 17.4423L34.8191 17.3577ZM34.7181 14.9776C34.6391 13.7144 34.6 12.5622 34.6 11.52H32.6C32.6 12.6111 32.6409 13.8056 32.7219 15.1024L34.7181 14.9776ZM34.6 11.52C34.6 10.9662 34.6194 10.1949 34.6592 9.19997L32.6608 9.12003C32.6206 10.1251 32.6 10.9271 32.6 11.52H34.6ZM34.6593 9.19634L34.6993 8.09634L32.7007 8.02366L32.6607 9.12366L34.6593 9.19634ZM33.6413 7.06172C33.1948 7.08799 32.8642 7.1 32.64 7.1V9.1C32.9225 9.1 33.2985 9.08534 33.7587 9.05827L33.6413 7.06172ZM32.64 7.1C32.5963 7.1 32.5652 7.09798 32.545 7.09579C32.5244 7.09357 32.5199 7.09168 32.5277 7.09376C32.5371 7.09628 32.6382 7.12394 32.7471 7.23289L31.3329 8.64711C31.74 9.05426 32.3019 9.1 32.64 9.1V7.1ZM32.7926 7.2815C32.8532 7.35083 32.8841 7.41263 32.8979 7.44483C32.9119 7.47741 32.9147 7.49455 32.9132 7.48749C32.9119 7.48136 32.9083 7.46158 32.9052 7.42471C32.9021 7.38836 32.9 7.34064 32.9 7.28H30.9C30.9 7.48644 30.9138 7.70016 30.9568 7.9025C30.9968 8.09111 31.0808 8.36234 31.2874 8.5985L32.7926 7.2815ZM32.9 7.28C32.9 7.3013 32.896 7.34811 32.8718 7.40676C32.8469 7.46689 32.8112 7.51426 32.7777 7.54595C32.7469 7.57514 32.7287 7.58109 32.7425 7.57482C32.7569 7.56825 32.7949 7.55351 32.866 7.53855L32.454 5.58145C32.1016 5.65564 31.713 5.79968 31.4023 6.09405C31.0612 6.41714 30.9 6.84015 30.9 7.28H32.9ZM32.8609 7.5396C33.2781 7.45402 33.9819 7.4 35.02 7.4V5.4C33.9514 5.4 33.0819 5.45264 32.4591 5.5804L32.8609 7.5396ZM35.02 7.4C35.824 7.4 36.3763 7.42702 36.7078 7.47123L36.9722 5.48877C36.5037 5.42631 35.8426 5.4 35.02 5.4V7.4ZM36.712 7.47178C36.7807 7.48064 36.822 7.48999 36.842 7.49557C36.8642 7.50178 36.8446 7.49904 36.8029 7.47479C36.7606 7.45027 36.6716 7.38954 36.592 7.27135C36.5054 7.14288 36.46 6.99043 36.46 6.84H38.46C38.46 6.28836 38.119 5.92629 37.8071 5.74521C37.5333 5.5862 37.223 5.52113 36.968 5.48822L36.712 7.47178ZM36.46 6.84C36.46 6.91744 36.4557 6.97648 36.4499 7.01966C36.4442 7.06317 36.4378 7.0844 36.4363 7.08877C36.4349 7.09289 36.4405 7.07433 36.4611 7.04369C36.4827 7.01153 36.5176 6.971 36.5686 6.93359L37.7514 8.5464C38.3594 8.10054 38.46 7.3606 38.46 6.84H36.46ZM36.5788 6.92627C36.6239 6.89405 36.6525 6.88481 36.6463 6.88705C36.6412 6.8889 36.6167 6.89693 36.5661 6.90613C36.4622 6.92503 36.2983 6.94 36.06 6.94V8.94C36.3683 8.94 36.6612 8.92163 36.9239 8.87387C37.1722 8.82872 37.4759 8.74329 37.7412 8.55373L36.5788 6.92627ZM36.0101 6.94125L35.6101 6.96125L35.7099 8.95875L36.1099 8.93875L36.0101 6.94125Z" fill="#0F0C07" mask="url(#path-8-outside-1_2001_7)"/>
<defs>
<clipPath id="clip0_2001_7">
<rect width="41" height="41" fill="white" transform="translate(11 22)"/>
</clipPath>
</defs>
</svg>
