<svg width="71" height="70" viewBox="0 0 71 70" fill="none" xmlns="http://www.w3.org/2000/svg">
<path d="M49.5162 36.3281C48.9982 35.3957 47.8224 35.0597 46.89 35.5777L43.8259 37.28L41.8061 34.191C41.7463 34.1931 41.6867 34.1956 41.6264 34.1956C39.592 34.1956 37.8398 32.9679 37.0691 31.215C34.7007 31.2148 30.7038 31.2146 30.7038 31.2146C29.9999 31.2146 29.3517 31.5976 29.0121 32.2142L26.5658 36.6562C26.0513 37.5905 26.3915 38.765 27.3258 39.2796C27.6212 39.4423 27.9407 39.5195 28.2558 39.5195C28.9369 39.5195 29.5974 39.1584 29.9492 38.5195L31.845 35.0772H35.4924L29.9236 44.798H23.1717C22.1051 44.798 21.2404 45.6627 21.2404 46.7293C21.2404 47.7959 22.1051 48.6607 23.1717 48.6607H31.0257C31.7087 48.6607 32.3409 48.2999 32.6884 47.7118L34.0757 45.3641L37.5782 48.1237L35.4783 53.348C35.0805 54.3376 35.5602 55.4624 36.5499 55.8602C36.7861 55.9551 37.0298 56 37.2696 56C38.0349 56 38.7593 55.5421 39.0621 54.7885L41.7016 48.2221C42.0214 47.4266 41.7784 46.5154 41.1049 45.9848L37.2214 42.925L39.9064 38.3438L41.5764 40.8979C41.9452 41.4618 42.5619 41.7725 43.1943 41.7725C43.5123 41.7725 43.8345 41.6939 44.1308 41.5293L48.7659 38.9542C49.6983 38.4363 50.0342 37.2605 49.5162 36.3281Z" fill="#A662DB"/>
<path d="M41.6264 32.4377C43.4041 32.4377 44.8452 30.9966 44.8452 29.2188C44.8452 27.4411 43.4041 26 41.6264 26C39.8487 26 38.4075 27.4411 38.4075 29.2188C38.4075 30.9966 39.8487 32.4377 41.6264 32.4377Z" fill="#A662DB"/>
<g filter="url(#filter0_d_2010_191)">
<circle cx="35.5" cy="41" r="24.65" stroke="#A662DB" stroke-width="1.3" shape-rendering="crispEdges"/>
</g>
<g filter="url(#filter1_d_2010_191)">
<mask id="path-4-outside-1_2010_191" maskUnits="userSpaceOnUse" x="28.5" y="5" width="14" height="16" fill="black">
<rect fill="white" x="28.5" y="5" width="14" height="16"/>
<path d="M32.06 6.9C32.5533 8.36667 33.1133 9.98 33.74 11.74C34.3667 13.4867 34.94 15 35.46 16.28C35.8467 15.04 36.38 13.5533 37.06 11.82C37.74 10.0733 38.3733 8.5 38.96 7.1C39.1333 6.68667 39.4267 6.48 39.84 6.48C40.2267 6.48 40.52 6.56 40.72 6.72C40.92 6.86667 41.02 7.12667 41.02 7.5C41.02 7.64667 41 7.77333 40.96 7.88C40.92 7.98667 40.86 8.12667 40.78 8.3C40.3667 9.11333 39.9533 10.0533 39.54 11.12C39.1267 12.1733 38.62 13.5133 38.02 15.14C38.0467 15.0733 37.86 15.5733 37.46 16.64L36.8 18.36C36.72 18.5733 36.5867 18.74 36.4 18.86C36.2267 18.9667 36.0267 19.02 35.8 19.02C35.5733 19.02 35.32 18.9667 35.04 18.86C34.7733 18.74 34.58 18.62 34.46 18.5C34.0067 17.6333 33.4267 16.38 32.72 14.74C32.0267 13.1 31.4267 11.5867 30.92 10.2L30.62 9.38C30.42 8.82 30.2733 8.39333 30.18 8.1C30.0867 7.79333 30.04 7.54667 30.04 7.36C30.04 7.09333 30.1867 6.88 30.48 6.72C30.7867 6.56 31.08 6.48 31.36 6.48C31.5067 6.48 31.6467 6.51333 31.78 6.58C31.9133 6.64667 32.0067 6.75333 32.06 6.9Z"/>
</mask>
<path d="M32.06 6.9C32.5533 8.36667 33.1133 9.98 33.74 11.74C34.3667 13.4867 34.94 15 35.46 16.28C35.8467 15.04 36.38 13.5533 37.06 11.82C37.74 10.0733 38.3733 8.5 38.96 7.1C39.1333 6.68667 39.4267 6.48 39.84 6.48C40.2267 6.48 40.52 6.56 40.72 6.72C40.92 6.86667 41.02 7.12667 41.02 7.5C41.02 7.64667 41 7.77333 40.96 7.88C40.92 7.98667 40.86 8.12667 40.78 8.3C40.3667 9.11333 39.9533 10.0533 39.54 11.12C39.1267 12.1733 38.62 13.5133 38.02 15.14C38.0467 15.0733 37.86 15.5733 37.46 16.64L36.8 18.36C36.72 18.5733 36.5867 18.74 36.4 18.86C36.2267 18.9667 36.0267 19.02 35.8 19.02C35.5733 19.02 35.32 18.9667 35.04 18.86C34.7733 18.74 34.58 18.62 34.46 18.5C34.0067 17.6333 33.4267 16.38 32.72 14.74C32.0267 13.1 31.4267 11.5867 30.92 10.2L30.62 9.38C30.42 8.82 30.2733 8.39333 30.18 8.1C30.0867 7.79333 30.04 7.54667 30.04 7.36C30.04 7.09333 30.1867 6.88 30.48 6.72C30.7867 6.56 31.08 6.48 31.36 6.48C31.5067 6.48 31.6467 6.51333 31.78 6.58C31.9133 6.64667 32.0067 6.75333 32.06 6.9Z" fill="#A662DB"/>
<path d="M32.06 6.9L33.0078 6.58119L33.0039 6.56967L32.9998 6.55826L32.06 6.9ZM33.74 11.74L32.7979 12.0754L32.7987 12.0777L33.74 11.74ZM35.46 16.28L34.5335 16.6564L35.5839 19.2419L36.4147 16.5777L35.46 16.28ZM37.06 11.82L37.9909 12.1852L37.9919 12.1828L37.06 11.82ZM38.96 7.1L38.0378 6.71327L38.0377 6.71351L38.96 7.1ZM40.72 6.72L40.0953 7.50087L40.1117 7.51399L40.1286 7.5264L40.72 6.72ZM40.96 7.88L40.0237 7.52887L40.0237 7.52888L40.96 7.88ZM40.78 8.3L41.6715 8.75305L41.68 8.73621L41.688 8.71906L40.78 8.3ZM39.54 11.12L40.4709 11.4853L40.4724 11.4813L39.54 11.12ZM38.02 15.14L37.0818 14.7939L38.9485 15.5114L38.02 15.14ZM37.46 16.64L38.3937 16.9983L38.3963 16.9911L37.46 16.64ZM36.8 18.36L35.8663 18.0017L35.8637 18.0089L36.8 18.36ZM36.4 18.86L36.9241 19.7117L36.9325 19.7065L36.9408 19.7012L36.4 18.86ZM35.04 18.86L34.6296 19.7719L34.6565 19.784L34.684 19.7945L35.04 18.86ZM34.46 18.5L33.5739 18.9635L33.6448 19.099L33.7529 19.2071L34.46 18.5ZM32.72 14.74L31.7989 15.1294L31.8016 15.1357L32.72 14.74ZM30.92 10.2L31.8593 9.85681L31.8591 9.85642L30.92 10.2ZM30.62 9.38L29.6782 9.71635L29.6809 9.72358L30.62 9.38ZM30.18 8.1L29.2233 8.39118L29.2271 8.4032L30.18 8.1ZM30.48 6.72L30.0174 5.83342L30.0093 5.83768L30.0011 5.8421L30.48 6.72ZM31.78 6.58L32.2272 5.68557L32.2272 5.68557L31.78 6.58ZM31.1122 7.21881C31.6077 8.69203 32.1697 10.311 32.7979 12.0754L34.6821 11.4046C34.057 9.649 33.4989 8.0413 33.0078 6.58119L31.1122 7.21881ZM32.7987 12.0777C33.4286 13.8333 34.0069 15.3601 34.5335 16.6564L36.3865 15.9036C35.8731 14.6399 35.3047 13.1401 34.6813 11.4023L32.7987 12.0777ZM36.4147 16.5777C36.7919 15.3679 37.3163 13.905 37.9909 12.1852L36.1291 11.4548C35.4437 13.2017 34.9014 14.7121 34.5053 15.9823L36.4147 16.5777ZM37.9919 12.1828C38.6695 10.4423 39.2996 8.87706 39.8823 7.48649L38.0377 6.71351C37.4471 8.12294 36.8105 9.70436 36.1281 11.4572L37.9919 12.1828ZM39.8822 7.48673C39.8983 7.44824 39.9099 7.43216 39.9115 7.43012C39.9123 7.42908 39.9044 7.43948 39.886 7.45248C39.8772 7.45866 39.8677 7.46424 39.8579 7.46893C39.8482 7.4736 39.8397 7.47666 39.8332 7.47855C39.8199 7.48242 39.8202 7.48 39.84 7.48V5.48C39.4595 5.48 39.074 5.57803 38.734 5.81752C38.3997 6.05308 38.1791 6.37632 38.0378 6.71327L39.8822 7.48673ZM39.84 7.48C39.9673 7.48 40.0455 7.49348 40.0869 7.50476C40.126 7.51543 40.12 7.52065 40.0953 7.50087L41.3447 5.93913C40.8969 5.58092 40.3432 5.48 39.84 5.48V7.48ZM40.1286 7.5264C40.0956 7.50221 40.0679 7.47381 40.0465 7.4449C40.0257 7.41667 40.0156 7.39415 40.0117 7.38398C40.008 7.37446 40.0103 7.37728 40.0135 7.39721C40.0166 7.41721 40.02 7.45061 40.02 7.5H42.02C42.02 6.97539 41.8785 6.32947 41.3114 5.91359L40.1286 7.5264ZM40.02 7.5C40.02 7.52838 40.018 7.54401 40.0172 7.54904C40.0165 7.55392 40.0173 7.54599 40.0237 7.52887L41.8963 8.23113C41.9886 7.98509 42.02 7.73377 42.02 7.5H40.02ZM40.0237 7.52888C39.9961 7.6024 39.9476 7.7172 39.872 7.88094L41.688 8.71906C41.7724 8.53613 41.8439 8.37093 41.8963 8.23112L40.0237 7.52888ZM39.8885 7.84695C39.4568 8.69652 39.0301 9.66822 38.6076 10.7587L40.4724 11.4813C40.8766 10.4384 41.2766 9.53015 41.6715 8.75305L39.8885 7.84695ZM38.6091 10.7547C38.1923 11.8168 37.6831 13.1638 37.0818 14.7939L38.9582 15.4861C39.5569 13.8628 40.061 12.5298 40.4709 11.4853L38.6091 10.7547ZM38.9485 15.5114C38.9483 15.5119 38.9477 15.5133 38.9468 15.5155C38.9461 15.5172 38.9443 15.5218 38.9417 15.5278C38.9413 15.5287 38.9324 15.55 38.9195 15.576C38.9156 15.5839 38.9086 15.5979 38.8992 15.6152C38.8928 15.6267 38.871 15.6664 38.8374 15.7137C38.818 15.74 38.7629 15.8063 38.7259 15.8449C38.6517 15.9114 38.3822 16.0672 38.1769 16.1221C37.8042 16.11 37.2509 15.7703 37.1027 15.5266C37.0586 15.4002 37.0248 15.2018 37.0225 15.1342C37.0225 15.0327 37.0389 14.9537 37.0408 14.9438C37.0459 14.9172 37.0511 14.8965 37.0537 14.8863C37.0591 14.8652 37.064 14.849 37.0658 14.8432C37.0699 14.8297 37.0734 14.8194 37.0742 14.817C37.0755 14.813 37.0766 14.81 37.077 14.8089C37.0774 14.8075 37.0777 14.8067 37.0778 14.8066C37.0778 14.8064 37.0775 14.8073 37.0767 14.8097C37.0759 14.8119 37.0748 14.8149 37.0733 14.8188C37.0705 14.8266 37.0667 14.8369 37.0619 14.8499C37.0426 14.9022 37.0098 14.9903 36.9632 15.1152C36.8701 15.3645 36.7236 15.7556 36.5237 16.2889L38.3963 16.9911C38.5964 16.4577 38.7432 16.0655 38.8368 15.8148C38.8835 15.6897 38.9174 15.5986 38.9381 15.5426C38.9478 15.5163 38.9565 15.4925 38.9622 15.4766C38.9636 15.4728 38.9664 15.4647 38.9696 15.4554C38.9708 15.4518 38.9746 15.4405 38.9789 15.4263C38.9808 15.4201 38.9858 15.4036 38.9912 15.3823C38.9938 15.3721 38.999 15.3513 39.0042 15.3246C39.0061 15.3146 39.0225 15.2356 39.0225 15.1341C39.0202 15.0665 38.9864 14.868 38.9423 14.7416C38.7941 14.498 38.2407 14.1582 37.868 14.1461C37.6628 14.201 37.3933 14.3569 37.3191 14.4233C37.282 14.462 37.2269 14.5283 37.2075 14.5546C37.1739 14.6019 37.152 14.6416 37.1457 14.6533C37.1362 14.6706 37.1291 14.6847 37.1252 14.6927C37.1121 14.7192 37.1029 14.7411 37.1021 14.743C37.097 14.755 37.0928 14.7654 37.0915 14.7686L38.9485 15.5114ZM36.5264 16.2817L35.8664 18.0017L37.7336 18.7183L38.3936 16.9983L36.5264 16.2817ZM35.8637 18.0089C35.8608 18.0167 35.8586 18.0206 35.858 18.0217C35.8574 18.0227 35.8578 18.022 35.8591 18.0203C35.8605 18.0186 35.8619 18.0172 35.8628 18.0164C35.8636 18.0157 35.8627 18.0166 35.8592 18.0188L36.9408 19.7012C37.3138 19.4614 37.5829 19.1204 37.7363 18.7111L35.8637 18.0089ZM35.8759 18.0083C35.8734 18.0099 35.87 18.0117 35.8623 18.0138C35.8539 18.016 35.8345 18.02 35.8 18.02V20.02C36.1901 20.02 36.5757 19.9261 36.9241 19.7117L35.8759 18.0083ZM35.8 18.02C35.7272 18.02 35.5969 18.002 35.396 17.9255L34.684 19.7945C35.0431 19.9313 35.4195 20.02 35.8 20.02V18.02ZM35.4504 17.9481C35.3466 17.9014 35.2726 17.8616 35.2224 17.8304C35.1703 17.7981 35.1581 17.7839 35.1671 17.7929L33.7529 19.2071C33.999 19.4532 34.3205 19.6328 34.6296 19.7719L35.4504 17.9481ZM35.3461 18.0365C34.9102 17.2031 34.3418 15.9767 33.6384 14.3443L31.8016 15.1357C32.5116 16.7833 33.1032 18.0636 33.5739 18.9635L35.3461 18.0365ZM33.6411 14.3506C32.9529 12.7229 32.3592 11.2252 31.8593 9.85681L29.9807 10.5432C30.4941 11.9482 31.1004 13.4771 31.7989 15.1294L33.6411 14.3506ZM31.8591 9.85642L31.5591 9.03642L29.6809 9.72358L29.9809 10.5436L31.8591 9.85642ZM31.5617 9.04366C31.3628 8.48655 31.2208 8.07308 31.1329 7.7968L29.2271 8.4032C29.3258 8.71359 29.4772 9.15345 29.6783 9.71634L31.5617 9.04366ZM31.1367 7.80884C31.0546 7.53926 31.04 7.40208 31.04 7.36H29.04C29.04 7.69125 29.1187 8.0474 29.2233 8.39116L31.1367 7.80884ZM31.04 7.36C31.04 7.38616 31.0362 7.42175 31.0239 7.46222C31.0114 7.50294 30.9934 7.5384 30.974 7.56653C30.9363 7.62139 30.9113 7.62382 30.9589 7.5979L30.0011 5.8421C29.4822 6.12518 29.04 6.63004 29.04 7.36H31.04ZM30.9426 7.60658C31.1395 7.50384 31.2746 7.48 31.36 7.48V5.48C30.8854 5.48 30.4338 5.61616 30.0174 5.83342L30.9426 7.60658ZM31.36 7.48C31.3568 7.48 31.3507 7.47955 31.3434 7.47781C31.3361 7.47608 31.3323 7.47417 31.3328 7.47443L32.2272 5.68557C31.9574 5.55066 31.6645 5.48 31.36 5.48V7.48ZM31.3328 7.47443C31.2894 7.45274 31.2406 7.4179 31.1974 7.3685C31.1548 7.31977 31.1315 7.27291 31.1202 7.24174L32.9998 6.55826C32.8636 6.18359 32.601 5.87246 32.2272 5.68557L31.3328 7.47443Z" fill="#311D41" mask="url(#path-4-outside-1_2010_191)"/>
</g>
<defs>
<filter id="filter0_d_2010_191" x="8.2" y="13.7" width="54.6" height="54.6001" filterUnits="userSpaceOnUse" color-interpolation-filters="sRGB">
<feFlood flood-opacity="0" result="BackgroundImageFix"/>
<feColorMatrix in="SourceAlpha" type="matrix" values="0 0 0 0 0 0 0 0 0 0 0 0 0 0 0 0 0 0 127 0" result="hardAlpha"/>
<feOffset/>
<feGaussianBlur stdDeviation="1"/>
<feComposite in2="hardAlpha" operator="out"/>
<feColorMatrix type="matrix" values="0 0 0 0 0 0 0 0 0 0 0 0 0 0 0 0 0 0 1 0"/>
<feBlend mode="normal" in2="BackgroundImageFix" result="effect1_dropShadow_2010_191"/>
<feBlend mode="normal" in="SourceGraphic" in2="effect1_dropShadow_2010_191" result="shape"/>
</filter>
<filter id="filter1_d_2010_191" x="27.04" y="5.47998" width="16.98" height="18.54" filterUnits="userSpaceOnUse" color-interpolation-filters="sRGB">
<feFlood flood-opacity="0" result="BackgroundImageFix"/>
<feColorMatrix in="SourceAlpha" type="matrix" values="0 0 0 0 0 0 0 0 0 0 0 0 0 0 0 0 0 0 127 0" result="hardAlpha"/>
<feOffset dy="2"/>
<feGaussianBlur stdDeviation="1.5"/>
<feComposite in2="hardAlpha" operator="out"/>
<feColorMatrix type="matrix" values="0 0 0 0 0 0 0 0 0 0 0 0 0 0 0 0 0 0 0.25 0"/>
<feBlend mode="normal" in2="BackgroundImageFix" result="effect1_dropShadow_2010_191"/>
<feBlend mode="normal" in="SourceGraphic" in2="effect1_dropShadow_2010_191" result="shape"/>
</filter>
</defs>
</svg>
