<svg width="71" height="70" viewBox="0 0 71 70" fill="none" xmlns="http://www.w3.org/2000/svg">
<g clip-path="url(#clip0_2010_75)">
<path d="M35.7714 44.4142C35.7653 44.4142 35.7585 44.4142 35.7524 44.4108L35.747 44.4067C35.6685 44.3748 35.5847 44.358 35.5 44.3572C35.1503 44.3564 34.8567 44.6202 34.8202 44.9679C34.7837 45.3157 35.0161 45.6347 35.3583 45.7065C35.7005 45.7784 36.0416 45.5798 36.1481 45.2468C36.2545 44.9137 36.0918 44.5541 35.7714 44.4142Z" fill="#C0C0C0"/>
<path d="M30.9316 34.4499L28.1331 31.2518C27.8762 30.9582 27.5054 30.7893 27.1153 30.7883H17.8569C17.4969 30.7877 17.1516 30.9311 16.898 31.1867C16.6193 31.4659 16.4752 31.8523 16.5031 32.2459C16.6006 32.9775 17.2337 33.5182 17.9715 33.4999H25.9997C26.3745 33.4999 26.6783 33.8037 26.6783 34.1785C26.6783 34.5532 26.3745 34.857 25.9997 34.857H19.214C18.854 34.8564 18.5088 34.9999 18.2552 35.2554C17.9764 35.5347 17.8324 35.921 17.8602 36.3146C17.9565 37.0473 18.5899 37.5894 19.3287 37.5713H23.2854C23.6602 37.5713 23.964 37.8751 23.964 38.2499C23.964 38.6247 23.6602 38.9285 23.2854 38.9285H21.2497C20.8897 38.9279 20.5445 39.0713 20.2909 39.3268C20.0122 39.6061 19.8681 39.9924 19.896 40.386C19.9922 41.1187 20.6256 41.6608 21.3644 41.6428H24.475C25.4768 38.4192 27.8345 35.7927 30.9316 34.4499Z" fill="#C0C0C0"/>
<path d="M41.6071 44.3571H42.9297C42.7941 42.8514 42.2022 41.423 41.2332 40.2626L40.2988 41.197C40.0326 41.4541 39.6094 41.4504 39.3476 41.1887C39.0859 40.9269 39.0822 40.5037 39.3393 40.2375L40.2737 39.3031C39.1132 38.3337 37.6845 37.7416 36.1786 37.606V38.9285C36.1786 39.3033 35.8748 39.6071 35.5 39.6071C35.1252 39.6071 34.8214 39.3033 34.8214 38.9285V37.606C33.3158 37.7416 31.8873 38.3334 30.7269 39.3024L31.6613 40.2368C31.8377 40.4072 31.9085 40.6594 31.8464 40.8967C31.7843 41.1339 31.599 41.3192 31.3617 41.3813C31.1245 41.4434 30.8722 41.3727 30.7018 41.1963L29.7674 40.2619C28.7981 41.4224 28.206 42.8511 28.0703 44.3571H29.3928C29.7676 44.3571 30.0714 44.6609 30.0714 45.0356C30.0714 45.4104 29.7676 45.7142 29.3928 45.7142H28.0703C28.2059 47.2199 28.7978 48.6483 29.7667 49.8087L30.7011 48.8743C30.9674 48.6172 31.3906 48.6208 31.6524 48.8826C31.9141 49.1443 31.9178 49.5676 31.6606 49.8338L30.7262 50.7682C31.8867 51.7376 33.3154 52.3296 34.8214 52.4653V51.1428C34.8214 50.768 35.1252 50.4642 35.5 50.4642C35.8748 50.4642 36.1786 50.768 36.1786 51.1428V52.4653C37.6842 52.3297 39.1127 51.7379 40.2731 50.7689L39.3387 49.8345C39.0815 49.5682 39.0852 49.145 39.3469 48.8833C39.6087 48.6215 40.0319 48.6178 40.2982 48.875L41.2326 49.8094C42.2019 48.6489 42.794 47.2202 42.9297 45.7142H41.6071C41.2324 45.7142 40.9286 45.4104 40.9286 45.0356C40.9286 44.6609 41.2324 44.3571 41.6071 44.3571ZM37.5357 45.0356C37.5357 46.1599 36.6243 47.0714 35.5 47.0714C34.3757 47.0714 33.4643 46.1599 33.4643 45.0356C33.4643 43.9113 34.3757 42.9999 35.5 42.9999C35.5278 42.9999 35.5529 43.0067 35.5801 43.0081L36.2267 41.3904C36.3169 41.1651 36.5204 41.0051 36.7605 40.9706C37.0007 40.9361 37.241 41.0323 37.3909 41.2231C37.5409 41.4138 37.5777 41.67 37.4875 41.8952L36.8395 43.515C37.2801 43.8977 37.5339 44.452 37.5357 45.0356Z" fill="#C0C0C0"/>
<path d="M45 33.4997H53.0282C53.7682 33.5196 54.4036 32.977 54.5 32.243C54.5278 31.8494 54.3838 31.463 54.105 31.1837C53.8506 30.9274 53.504 30.7839 53.1428 30.7854H43.8878C43.4977 30.7864 43.1268 30.9553 42.8699 31.2489L40.0681 34.4497C43.1652 35.7925 45.5228 38.419 46.5247 41.6426H49.6353C50.3754 41.6624 51.0108 41.1199 51.1071 40.3858C51.135 39.9922 50.9909 39.6059 50.7122 39.3266C50.4578 39.0702 50.1111 38.9267 49.75 38.9283H47.7143C47.3395 38.9283 47.0357 38.6245 47.0357 38.2497C47.0357 37.8749 47.3395 37.5711 47.7143 37.5711H51.671C52.4111 37.591 53.0465 37.0484 53.1428 36.3144C53.1707 35.9208 53.0266 35.5345 52.7479 35.2552C52.4935 34.9988 52.1468 34.8553 51.7857 34.8568H45C44.6252 34.8568 44.3214 34.553 44.3214 34.1783C44.3214 33.8035 44.6252 33.4997 45 33.4997Z" fill="#C0C0C0"/>
<path d="M35.5 34.8572C29.8785 34.8572 25.3214 39.4143 25.3214 45.0357C25.3214 50.6572 29.8785 55.2143 35.5 55.2143C41.1215 55.2143 45.6786 50.6572 45.6786 45.0357C45.6722 39.4169 41.1188 34.8635 35.5 34.8572ZM35.5 53.8572C30.628 53.8572 26.6786 49.9077 26.6786 45.0357C26.6786 40.1638 30.628 36.2143 35.5 36.2143C40.3719 36.2143 44.3214 40.1638 44.3214 45.0357C44.3158 49.9054 40.3696 53.8516 35.5 53.8572Z" fill="#C0C0C0"/>
</g>
<g filter="url(#filter0_d_2010_75)">
<circle cx="35.5" cy="41" r="24.65" stroke="#C0C0C0" stroke-width="1.3" shape-rendering="crispEdges"/>
</g>
<g filter="url(#filter1_d_2010_75)">
<mask id="path-7-outside-1_2010_75" maskUnits="userSpaceOnUse" x="26.5" y="5" width="9" height="15" fill="black">
<rect fill="white" x="26.5" y="5" width="9" height="15"/>
<path d="M32.16 7.96C32.12 8.81333 32.1 9.63333 32.1 10.42C32.1 11.2333 32.1533 12.4267 32.26 14C32.2733 14.24 32.3 14.7267 32.34 15.46C32.38 16.18 32.4 16.84 32.4 17.44C32.5333 17.4267 32.6733 17.4067 32.82 17.38C32.98 17.3533 33.1 17.34 33.18 17.34C33.4733 17.34 33.7067 17.4133 33.88 17.56C34.0533 17.7067 34.14 17.9333 34.14 18.24C34.14 18.44 34.06 18.5933 33.9 18.7C33.74 18.8067 33.46 18.8867 33.06 18.94C32.6733 18.98 32.1067 19 31.36 19C30.5333 19 29.9133 18.9733 29.5 18.92C29.0867 18.8667 28.8 18.7667 28.64 18.62C28.48 18.46 28.4 18.2267 28.4 17.92C28.4 17.6933 28.4733 17.54 28.62 17.46C28.7667 17.38 28.9733 17.34 29.24 17.34L29.66 17.36L30.32 17.4L30.22 15.04C30.14 13.76 30.1 12.5867 30.1 11.52C30.1 10.9467 30.12 10.16 30.16 9.16L30.2 8.06C29.7467 8.08667 29.3933 8.1 29.14 8.1C28.8467 8.1 28.6467 8.04667 28.54 7.94C28.4467 7.83333 28.4 7.61333 28.4 7.28C28.4 6.90667 28.6533 6.66667 29.16 6.56C29.68 6.45333 30.4667 6.4 31.52 6.4C32.3333 6.4 32.94 6.42667 33.34 6.48C33.7533 6.53333 33.96 6.65333 33.96 6.84C33.96 7.29333 33.86 7.59333 33.66 7.74C33.4733 7.87333 33.1067 7.94 32.56 7.94L32.16 7.96Z"/>
</mask>
<path d="M32.16 7.96C32.12 8.81333 32.1 9.63333 32.1 10.42C32.1 11.2333 32.1533 12.4267 32.26 14C32.2733 14.24 32.3 14.7267 32.34 15.46C32.38 16.18 32.4 16.84 32.4 17.44C32.5333 17.4267 32.6733 17.4067 32.82 17.38C32.98 17.3533 33.1 17.34 33.18 17.34C33.4733 17.34 33.7067 17.4133 33.88 17.56C34.0533 17.7067 34.14 17.9333 34.14 18.24C34.14 18.44 34.06 18.5933 33.9 18.7C33.74 18.8067 33.46 18.8867 33.06 18.94C32.6733 18.98 32.1067 19 31.36 19C30.5333 19 29.9133 18.9733 29.5 18.92C29.0867 18.8667 28.8 18.7667 28.64 18.62C28.48 18.46 28.4 18.2267 28.4 17.92C28.4 17.6933 28.4733 17.54 28.62 17.46C28.7667 17.38 28.9733 17.34 29.24 17.34L29.66 17.36L30.32 17.4L30.22 15.04C30.14 13.76 30.1 12.5867 30.1 11.52C30.1 10.9467 30.12 10.16 30.16 9.16L30.2 8.06C29.7467 8.08667 29.3933 8.1 29.14 8.1C28.8467 8.1 28.6467 8.04667 28.54 7.94C28.4467 7.83333 28.4 7.61333 28.4 7.28C28.4 6.90667 28.6533 6.66667 29.16 6.56C29.68 6.45333 30.4667 6.4 31.52 6.4C32.3333 6.4 32.94 6.42667 33.34 6.48C33.7533 6.53333 33.96 6.65333 33.96 6.84C33.96 7.29333 33.86 7.59333 33.66 7.74C33.4733 7.87333 33.1067 7.94 32.56 7.94L32.16 7.96Z" fill="#C0C0C0"/>
<path d="M32.16 7.96L32.1101 6.96125L31.2036 7.00657L31.1611 7.91318L32.16 7.96ZM32.26 14L33.2585 13.9445L33.2577 13.9324L32.26 14ZM32.34 15.46L31.3415 15.5145L31.3415 15.5155L32.34 15.46ZM32.4 17.44H31.4V18.545L32.4995 18.435L32.4 17.44ZM32.82 17.38L32.6556 16.3936L32.6483 16.3948L32.6411 16.3961L32.82 17.38ZM33.88 17.56L33.2341 18.3234L33.2341 18.3234L33.88 17.56ZM33.9 18.7L34.4547 19.5321L34.4547 19.5321L33.9 18.7ZM33.06 18.94L33.1629 19.9347L33.1776 19.9332L33.1922 19.9312L33.06 18.94ZM29.5 18.92L29.372 19.9118L29.372 19.9118L29.5 18.92ZM28.64 18.62L27.9329 19.3271L27.9483 19.3425L27.9643 19.3572L28.64 18.62ZM28.62 17.46L28.1411 16.5821L28.1411 16.5821L28.62 17.46ZM29.24 17.34L29.2876 16.3411L29.2638 16.34H29.24V17.34ZM29.66 17.36L29.7205 16.3617L29.7076 16.3611L29.66 17.36ZM30.32 17.4L30.2595 18.3982L31.366 18.4652L31.3191 17.3577L30.32 17.4ZM30.22 15.04L31.2191 14.9977L31.2187 14.9876L31.2181 14.9776L30.22 15.04ZM30.16 9.16L31.1592 9.19997L31.1593 9.19634L30.16 9.16ZM30.2 8.06L31.1993 8.09634L31.2393 6.99713L30.1413 7.06172L30.2 8.06ZM28.54 7.94L27.7874 8.5985L27.8093 8.62356L27.8329 8.64711L28.54 7.94ZM29.16 6.56L28.9591 5.58038L28.954 5.58145L29.16 6.56ZM33.34 6.48L33.2078 7.47124L33.212 7.47178L33.34 6.48ZM33.66 7.74L34.2413 8.5538L34.2514 8.5464L33.66 7.74ZM32.56 7.94V6.94H32.535L32.5101 6.94125L32.56 7.94ZM31.1611 7.91318C31.1204 8.78079 31.1 9.61646 31.1 10.42H33.1C33.1 9.65021 33.1196 8.84587 33.1589 8.00682L31.1611 7.91318ZM31.1 10.42C31.1 11.268 31.1552 12.4885 31.2623 14.0676L33.2577 13.9324C33.1514 12.3648 33.1 11.1986 33.1 10.42H31.1ZM31.2615 14.0555C31.2748 14.2949 31.3015 14.781 31.3415 15.5145L33.3385 15.4055C33.2985 14.6723 33.2718 14.1851 33.2585 13.9445L31.2615 14.0555ZM31.3415 15.5155C31.3807 16.2205 31.4 16.8617 31.4 17.44H33.4C33.4 16.8183 33.3793 16.1395 33.3385 15.4045L31.3415 15.5155ZM32.4995 18.435C32.6622 18.4188 32.8288 18.3948 32.9989 18.3639L32.6411 16.3961C32.5179 16.4185 32.4045 16.4346 32.3005 16.445L32.4995 18.435ZM32.9844 18.3664C33.0521 18.3551 33.1034 18.348 33.1404 18.3439C33.1802 18.3395 33.1904 18.34 33.18 18.34V16.34C33.0137 16.34 32.8266 16.3651 32.6556 16.3936L32.9844 18.3664ZM33.18 18.34C33.2446 18.34 33.2726 18.3482 33.2752 18.349C33.2761 18.3493 33.2714 18.3479 33.2629 18.3433C33.2543 18.3386 33.2442 18.332 33.2341 18.3234L34.5259 16.7966C34.1248 16.4571 33.6395 16.34 33.18 16.34V18.34ZM33.2341 18.3234C33.211 18.3038 33.1902 18.281 33.1731 18.2565C33.1563 18.2323 33.1463 18.2112 33.1409 18.1971C33.1309 18.1708 33.14 18.1779 33.14 18.24H35.14C35.14 17.7482 34.9955 17.1939 34.5259 16.7966L33.2341 18.3234ZM33.14 18.24C33.14 18.2042 33.148 18.1294 33.1934 18.0424C33.2396 17.9539 33.3013 17.8973 33.3453 17.8679L34.4547 19.5321C34.906 19.2312 35.14 18.7583 35.14 18.24H33.14ZM33.3453 17.8679C33.3835 17.8425 33.3815 17.8539 33.2953 17.8785C33.216 17.9011 33.0966 17.9263 32.9278 17.9488L33.1922 19.9312C33.6126 19.8752 34.0911 19.7745 34.4547 19.5321L33.3453 17.8679ZM32.9571 17.9453C32.6228 17.9799 32.0974 18 31.36 18V20C32.1159 20 32.7239 19.9801 33.1629 19.9347L32.9571 17.9453ZM31.36 18C30.5432 18 29.9754 17.9731 29.628 17.9282L29.372 19.9118C29.8512 19.9736 30.5235 20 31.36 20V18ZM29.628 17.9282C29.4665 17.9074 29.3633 17.8814 29.3044 17.8608C29.2417 17.8389 29.2641 17.8355 29.3157 17.8828L27.9643 19.3572C28.3626 19.7223 28.9137 19.8526 29.372 19.9118L29.628 17.9282ZM29.3471 17.9129C29.3642 17.93 29.3781 17.9481 29.3886 17.9654C29.399 17.9824 29.4041 17.9951 29.4059 18.0007C29.4092 18.0102 29.4 17.9887 29.4 17.92H27.4C27.4 18.3951 27.5265 18.9207 27.9329 19.3271L29.3471 17.9129ZM29.4 17.92C29.4 17.9085 29.4026 17.9713 29.3571 18.0665C29.3048 18.1759 29.2134 18.2754 29.0989 18.3379L28.1411 16.5821C27.5606 16.8988 27.4 17.4766 27.4 17.92H29.4ZM29.0989 18.3379C29.0619 18.3581 29.0477 18.3571 29.075 18.3518C29.1018 18.3466 29.1544 18.34 29.24 18.34V16.34C28.8957 16.34 28.4972 16.3879 28.1411 16.5821L29.0989 18.3379ZM29.1924 18.3389L29.6124 18.3589L29.7076 16.3611L29.2876 16.3411L29.1924 18.3389ZM29.5995 18.3582L30.2595 18.3982L30.3805 16.4018L29.7205 16.3618L29.5995 18.3582ZM31.3191 17.3577L31.2191 14.9977L29.2209 15.0823L29.3209 17.4423L31.3191 17.3577ZM31.2181 14.9776C31.1391 13.7144 31.1 12.5622 31.1 11.52H29.1C29.1 12.6111 29.1409 13.8056 29.2219 15.1024L31.2181 14.9776ZM31.1 11.52C31.1 10.9662 31.1194 10.1949 31.1592 9.19997L29.1608 9.12003C29.1206 10.1251 29.1 10.9271 29.1 11.52H31.1ZM31.1593 9.19634L31.1993 8.09634L29.2007 8.02366L29.1607 9.12366L31.1593 9.19634ZM30.1413 7.06172C29.6948 7.08799 29.3642 7.1 29.14 7.1V9.1C29.4225 9.1 29.7985 9.08534 30.2587 9.05827L30.1413 7.06172ZM29.14 7.1C29.0963 7.1 29.0652 7.09798 29.045 7.09579C29.0244 7.09357 29.0199 7.09168 29.0277 7.09376C29.0371 7.09628 29.1382 7.12394 29.2471 7.23289L27.8329 8.64711C28.24 9.05426 28.8019 9.1 29.14 9.1V7.1ZM29.2926 7.2815C29.3532 7.35083 29.3841 7.41263 29.3979 7.44483C29.4119 7.47741 29.4147 7.49455 29.4132 7.48749C29.4119 7.48136 29.4083 7.46158 29.4052 7.42471C29.4021 7.38836 29.4 7.34064 29.4 7.28H27.4C27.4 7.48644 27.4138 7.70016 27.4568 7.9025C27.4968 8.09111 27.5808 8.36234 27.7874 8.5985L29.2926 7.2815ZM29.4 7.28C29.4 7.3013 29.396 7.34811 29.3718 7.40676C29.3469 7.46689 29.3112 7.51426 29.2777 7.54595C29.2469 7.57514 29.2287 7.58109 29.2425 7.57482C29.2569 7.56825 29.2949 7.55351 29.366 7.53855L28.954 5.58145C28.6016 5.65564 28.213 5.79968 27.9023 6.09405C27.5612 6.41714 27.4 6.84015 27.4 7.28H29.4ZM29.3609 7.5396C29.7781 7.45402 30.4819 7.4 31.52 7.4V5.4C30.4514 5.4 29.5819 5.45264 28.9591 5.5804L29.3609 7.5396ZM31.52 7.4C32.324 7.4 32.8763 7.42702 33.2078 7.47123L33.4722 5.48877C33.0037 5.42631 32.3426 5.4 31.52 5.4V7.4ZM33.212 7.47178C33.2807 7.48064 33.322 7.48999 33.342 7.49557C33.3642 7.50178 33.3446 7.49904 33.3029 7.47479C33.2606 7.45027 33.1716 7.38954 33.092 7.27135C33.0054 7.14288 32.96 6.99043 32.96 6.84H34.96C34.96 6.28836 34.619 5.92629 34.3071 5.74521C34.0333 5.5862 33.723 5.52113 33.468 5.48822L33.212 7.47178ZM32.96 6.84C32.96 6.91744 32.9557 6.97648 32.9499 7.01966C32.9442 7.06317 32.9378 7.0844 32.9363 7.08877C32.9349 7.09289 32.9405 7.07433 32.9611 7.04369C32.9827 7.01153 33.0176 6.971 33.0686 6.93359L34.2514 8.5464C34.8594 8.10054 34.96 7.3606 34.96 6.84H32.96ZM33.0788 6.92627C33.1239 6.89405 33.1525 6.88481 33.1463 6.88705C33.1412 6.8889 33.1167 6.89693 33.0661 6.90613C32.9622 6.92503 32.7983 6.94 32.56 6.94V8.94C32.8683 8.94 33.1612 8.92163 33.4239 8.87387C33.6722 8.82872 33.9759 8.74329 34.2412 8.55373L33.0788 6.92627ZM32.5101 6.94125L32.1101 6.96125L32.2099 8.95875L32.6099 8.93875L32.5101 6.94125Z" fill="#3A3737" mask="url(#path-7-outside-1_2010_75)"/>
</g>
<g filter="url(#filter2_d_2010_75)">
<mask id="path-9-outside-2_2010_75" maskUnits="userSpaceOnUse" x="34.5" y="5" width="9" height="15" fill="black">
<rect fill="white" x="34.5" y="5" width="9" height="15"/>
<path d="M40.16 7.96C40.12 8.81333 40.1 9.63333 40.1 10.42C40.1 11.2333 40.1533 12.4267 40.26 14C40.2733 14.24 40.3 14.7267 40.34 15.46C40.38 16.18 40.4 16.84 40.4 17.44C40.5333 17.4267 40.6733 17.4067 40.82 17.38C40.98 17.3533 41.1 17.34 41.18 17.34C41.4733 17.34 41.7067 17.4133 41.88 17.56C42.0533 17.7067 42.14 17.9333 42.14 18.24C42.14 18.44 42.06 18.5933 41.9 18.7C41.74 18.8067 41.46 18.8867 41.06 18.94C40.6733 18.98 40.1067 19 39.36 19C38.5333 19 37.9133 18.9733 37.5 18.92C37.0867 18.8667 36.8 18.7667 36.64 18.62C36.48 18.46 36.4 18.2267 36.4 17.92C36.4 17.6933 36.4733 17.54 36.62 17.46C36.7667 17.38 36.9733 17.34 37.24 17.34L37.66 17.36L38.32 17.4L38.22 15.04C38.14 13.76 38.1 12.5867 38.1 11.52C38.1 10.9467 38.12 10.16 38.16 9.16L38.2 8.06C37.7467 8.08667 37.3933 8.1 37.14 8.1C36.8467 8.1 36.6467 8.04667 36.54 7.94C36.4467 7.83333 36.4 7.61333 36.4 7.28C36.4 6.90667 36.6533 6.66667 37.16 6.56C37.68 6.45333 38.4667 6.4 39.52 6.4C40.3333 6.4 40.94 6.42667 41.34 6.48C41.7533 6.53333 41.96 6.65333 41.96 6.84C41.96 7.29333 41.86 7.59333 41.66 7.74C41.4733 7.87333 41.1067 7.94 40.56 7.94L40.16 7.96Z"/>
</mask>
<path d="M40.16 7.96C40.12 8.81333 40.1 9.63333 40.1 10.42C40.1 11.2333 40.1533 12.4267 40.26 14C40.2733 14.24 40.3 14.7267 40.34 15.46C40.38 16.18 40.4 16.84 40.4 17.44C40.5333 17.4267 40.6733 17.4067 40.82 17.38C40.98 17.3533 41.1 17.34 41.18 17.34C41.4733 17.34 41.7067 17.4133 41.88 17.56C42.0533 17.7067 42.14 17.9333 42.14 18.24C42.14 18.44 42.06 18.5933 41.9 18.7C41.74 18.8067 41.46 18.8867 41.06 18.94C40.6733 18.98 40.1067 19 39.36 19C38.5333 19 37.9133 18.9733 37.5 18.92C37.0867 18.8667 36.8 18.7667 36.64 18.62C36.48 18.46 36.4 18.2267 36.4 17.92C36.4 17.6933 36.4733 17.54 36.62 17.46C36.7667 17.38 36.9733 17.34 37.24 17.34L37.66 17.36L38.32 17.4L38.22 15.04C38.14 13.76 38.1 12.5867 38.1 11.52C38.1 10.9467 38.12 10.16 38.16 9.16L38.2 8.06C37.7467 8.08667 37.3933 8.1 37.14 8.1C36.8467 8.1 36.6467 8.04667 36.54 7.94C36.4467 7.83333 36.4 7.61333 36.4 7.28C36.4 6.90667 36.6533 6.66667 37.16 6.56C37.68 6.45333 38.4667 6.4 39.52 6.4C40.3333 6.4 40.94 6.42667 41.34 6.48C41.7533 6.53333 41.96 6.65333 41.96 6.84C41.96 7.29333 41.86 7.59333 41.66 7.74C41.4733 7.87333 41.1067 7.94 40.56 7.94L40.16 7.96Z" fill="#C0C0C0"/>
<path d="M40.16 7.96L40.1101 6.96125L39.2036 7.00657L39.1611 7.91318L40.16 7.96ZM40.26 14L41.2585 13.9445L41.2577 13.9324L40.26 14ZM40.34 15.46L39.3415 15.5145L39.3415 15.5155L40.34 15.46ZM40.4 17.44H39.4V18.545L40.4995 18.435L40.4 17.44ZM40.82 17.38L40.6556 16.3936L40.6483 16.3948L40.6411 16.3961L40.82 17.38ZM41.88 17.56L41.2341 18.3234L41.2341 18.3234L41.88 17.56ZM41.9 18.7L42.4547 19.5321L42.4547 19.5321L41.9 18.7ZM41.06 18.94L41.1629 19.9347L41.1776 19.9332L41.1922 19.9312L41.06 18.94ZM37.5 18.92L37.372 19.9118L37.372 19.9118L37.5 18.92ZM36.64 18.62L35.9329 19.3271L35.9483 19.3425L35.9643 19.3572L36.64 18.62ZM36.62 17.46L36.1411 16.5821L36.1411 16.5821L36.62 17.46ZM37.24 17.34L37.2876 16.3411L37.2638 16.34H37.24V17.34ZM37.66 17.36L37.7205 16.3617L37.7076 16.3611L37.66 17.36ZM38.32 17.4L38.2595 18.3982L39.366 18.4652L39.3191 17.3577L38.32 17.4ZM38.22 15.04L39.2191 14.9977L39.2187 14.9876L39.2181 14.9776L38.22 15.04ZM38.16 9.16L39.1592 9.19997L39.1593 9.19634L38.16 9.16ZM38.2 8.06L39.1993 8.09634L39.2393 6.99713L38.1413 7.06172L38.2 8.06ZM36.54 7.94L35.7874 8.5985L35.8093 8.62356L35.8329 8.64711L36.54 7.94ZM37.16 6.56L36.9591 5.58038L36.954 5.58145L37.16 6.56ZM41.34 6.48L41.2078 7.47124L41.212 7.47178L41.34 6.48ZM41.66 7.74L42.2413 8.5538L42.2514 8.5464L41.66 7.74ZM40.56 7.94V6.94H40.535L40.5101 6.94125L40.56 7.94ZM39.1611 7.91318C39.1204 8.78079 39.1 9.61646 39.1 10.42H41.1C41.1 9.65021 41.1196 8.84587 41.1589 8.00682L39.1611 7.91318ZM39.1 10.42C39.1 11.268 39.1552 12.4885 39.2623 14.0676L41.2577 13.9324C41.1514 12.3648 41.1 11.1986 41.1 10.42H39.1ZM39.2615 14.0555C39.2748 14.2949 39.3015 14.781 39.3415 15.5145L41.3385 15.4055C41.2985 14.6723 41.2718 14.1851 41.2585 13.9445L39.2615 14.0555ZM39.3415 15.5155C39.3807 16.2205 39.4 16.8617 39.4 17.44H41.4C41.4 16.8183 41.3793 16.1395 41.3385 15.4045L39.3415 15.5155ZM40.4995 18.435C40.6622 18.4188 40.8288 18.3948 40.9989 18.3639L40.6411 16.3961C40.5179 16.4185 40.4045 16.4346 40.3005 16.445L40.4995 18.435ZM40.9844 18.3664C41.0521 18.3551 41.1034 18.348 41.1404 18.3439C41.1802 18.3395 41.1904 18.34 41.18 18.34V16.34C41.0137 16.34 40.8266 16.3651 40.6556 16.3936L40.9844 18.3664ZM41.18 18.34C41.2446 18.34 41.2726 18.3482 41.2752 18.349C41.2761 18.3493 41.2714 18.3479 41.2629 18.3433C41.2543 18.3386 41.2442 18.332 41.2341 18.3234L42.5259 16.7966C42.1248 16.4571 41.6395 16.34 41.18 16.34V18.34ZM41.2341 18.3234C41.211 18.3038 41.1902 18.281 41.1731 18.2565C41.1563 18.2323 41.1463 18.2112 41.1409 18.1971C41.1309 18.1708 41.14 18.1779 41.14 18.24H43.14C43.14 17.7482 42.9955 17.1939 42.5259 16.7966L41.2341 18.3234ZM41.14 18.24C41.14 18.2042 41.148 18.1294 41.1934 18.0424C41.2396 17.9539 41.3013 17.8973 41.3453 17.8679L42.4547 19.5321C42.906 19.2312 43.14 18.7583 43.14 18.24H41.14ZM41.3453 17.8679C41.3835 17.8425 41.3815 17.8539 41.2953 17.8785C41.216 17.9011 41.0966 17.9263 40.9278 17.9488L41.1922 19.9312C41.6126 19.8752 42.0911 19.7745 42.4547 19.5321L41.3453 17.8679ZM40.9571 17.9453C40.6228 17.9799 40.0974 18 39.36 18V20C40.1159 20 40.7239 19.9801 41.1629 19.9347L40.9571 17.9453ZM39.36 18C38.5432 18 37.9754 17.9731 37.628 17.9282L37.372 19.9118C37.8512 19.9736 38.5235 20 39.36 20V18ZM37.628 17.9282C37.4665 17.9074 37.3633 17.8814 37.3044 17.8608C37.2417 17.8389 37.2641 17.8355 37.3157 17.8828L35.9643 19.3572C36.3626 19.7223 36.9137 19.8526 37.372 19.9118L37.628 17.9282ZM37.3471 17.9129C37.3642 17.93 37.3781 17.9481 37.3886 17.9654C37.399 17.9824 37.4041 17.9951 37.4059 18.0007C37.4092 18.0102 37.4 17.9887 37.4 17.92H35.4C35.4 18.3951 35.5265 18.9207 35.9329 19.3271L37.3471 17.9129ZM37.4 17.92C37.4 17.9085 37.4026 17.9713 37.3571 18.0665C37.3048 18.1759 37.2134 18.2754 37.0989 18.3379L36.1411 16.5821C35.5606 16.8988 35.4 17.4766 35.4 17.92H37.4ZM37.0989 18.3379C37.0619 18.3581 37.0477 18.3571 37.075 18.3518C37.1018 18.3466 37.1544 18.34 37.24 18.34V16.34C36.8957 16.34 36.4972 16.3879 36.1411 16.5821L37.0989 18.3379ZM37.1924 18.3389L37.6124 18.3589L37.7076 16.3611L37.2876 16.3411L37.1924 18.3389ZM37.5995 18.3582L38.2595 18.3982L38.3805 16.4018L37.7205 16.3618L37.5995 18.3582ZM39.3191 17.3577L39.2191 14.9977L37.2209 15.0823L37.3209 17.4423L39.3191 17.3577ZM39.2181 14.9776C39.1391 13.7144 39.1 12.5622 39.1 11.52H37.1C37.1 12.6111 37.1409 13.8056 37.2219 15.1024L39.2181 14.9776ZM39.1 11.52C39.1 10.9662 39.1194 10.1949 39.1592 9.19997L37.1608 9.12003C37.1206 10.1251 37.1 10.9271 37.1 11.52H39.1ZM39.1593 9.19634L39.1993 8.09634L37.2007 8.02366L37.1607 9.12366L39.1593 9.19634ZM38.1413 7.06172C37.6948 7.08799 37.3642 7.1 37.14 7.1V9.1C37.4225 9.1 37.7985 9.08534 38.2587 9.05827L38.1413 7.06172ZM37.14 7.1C37.0963 7.1 37.0652 7.09798 37.045 7.09579C37.0244 7.09357 37.0199 7.09168 37.0277 7.09376C37.0371 7.09628 37.1382 7.12394 37.2471 7.23289L35.8329 8.64711C36.24 9.05426 36.8019 9.1 37.14 9.1V7.1ZM37.2926 7.2815C37.3532 7.35083 37.3841 7.41263 37.3979 7.44483C37.4119 7.47741 37.4147 7.49455 37.4132 7.48749C37.4119 7.48136 37.4083 7.46158 37.4052 7.42471C37.4021 7.38836 37.4 7.34064 37.4 7.28H35.4C35.4 7.48644 35.4138 7.70016 35.4568 7.9025C35.4968 8.09111 35.5808 8.36234 35.7874 8.5985L37.2926 7.2815ZM37.4 7.28C37.4 7.3013 37.396 7.34811 37.3718 7.40676C37.3469 7.46689 37.3112 7.51426 37.2777 7.54595C37.2469 7.57514 37.2287 7.58109 37.2425 7.57482C37.2569 7.56825 37.2949 7.55351 37.366 7.53855L36.954 5.58145C36.6016 5.65564 36.213 5.79968 35.9023 6.09405C35.5612 6.41714 35.4 6.84015 35.4 7.28H37.4ZM37.3609 7.5396C37.7781 7.45402 38.4819 7.4 39.52 7.4V5.4C38.4514 5.4 37.5819 5.45264 36.9591 5.5804L37.3609 7.5396ZM39.52 7.4C40.324 7.4 40.8763 7.42702 41.2078 7.47123L41.4722 5.48877C41.0037 5.42631 40.3426 5.4 39.52 5.4V7.4ZM41.212 7.47178C41.2807 7.48064 41.322 7.48999 41.342 7.49557C41.3642 7.50178 41.3446 7.49904 41.3029 7.47479C41.2606 7.45027 41.1716 7.38954 41.092 7.27135C41.0054 7.14288 40.96 6.99043 40.96 6.84H42.96C42.96 6.28836 42.619 5.92629 42.3071 5.74521C42.0333 5.5862 41.723 5.52113 41.468 5.48822L41.212 7.47178ZM40.96 6.84C40.96 6.91744 40.9557 6.97648 40.9499 7.01966C40.9442 7.06317 40.9378 7.0844 40.9363 7.08877C40.9349 7.09289 40.9405 7.07433 40.9611 7.04369C40.9827 7.01153 41.0176 6.971 41.0686 6.93359L42.2514 8.5464C42.8594 8.10054 42.96 7.3606 42.96 6.84H40.96ZM41.0788 6.92627C41.1239 6.89405 41.1525 6.88481 41.1463 6.88705C41.1412 6.8889 41.1167 6.89693 41.0661 6.90613C40.9622 6.92503 40.7983 6.94 40.56 6.94V8.94C40.8683 8.94 41.1612 8.92163 41.4239 8.87387C41.6722 8.82872 41.9759 8.74329 42.2412 8.55373L41.0788 6.92627ZM40.5101 6.94125L40.1101 6.96125L40.2099 8.95875L40.6099 8.93875L40.5101 6.94125Z" fill="#3A3737" mask="url(#path-9-outside-2_2010_75)"/>
</g>
<defs>
<filter id="filter0_d_2010_75" x="8.20001" y="13.7" width="54.6" height="54.6001" filterUnits="userSpaceOnUse" color-interpolation-filters="sRGB">
<feFlood flood-opacity="0" result="BackgroundImageFix"/>
<feColorMatrix in="SourceAlpha" type="matrix" values="0 0 0 0 0 0 0 0 0 0 0 0 0 0 0 0 0 0 127 0" result="hardAlpha"/>
<feOffset/>
<feGaussianBlur stdDeviation="1"/>
<feComposite in2="hardAlpha" operator="out"/>
<feColorMatrix type="matrix" values="0 0 0 0 0 0 0 0 0 0 0 0 0 0 0 0 0 0 1 0"/>
<feBlend mode="normal" in2="BackgroundImageFix" result="effect1_dropShadow_2010_75"/>
<feBlend mode="normal" in="SourceGraphic" in2="effect1_dropShadow_2010_75" result="shape"/>
</filter>
<filter id="filter1_d_2010_75" x="25.4" y="5.40002" width="11.74" height="18.6" filterUnits="userSpaceOnUse" color-interpolation-filters="sRGB">
<feFlood flood-opacity="0" result="BackgroundImageFix"/>
<feColorMatrix in="SourceAlpha" type="matrix" values="0 0 0 0 0 0 0 0 0 0 0 0 0 0 0 0 0 0 127 0" result="hardAlpha"/>
<feOffset dy="2"/>
<feGaussianBlur stdDeviation="1.5"/>
<feComposite in2="hardAlpha" operator="out"/>
<feColorMatrix type="matrix" values="0 0 0 0 0 0 0 0 0 0 0 0 0 0 0 0 0 0 0.25 0"/>
<feBlend mode="normal" in2="BackgroundImageFix" result="effect1_dropShadow_2010_75"/>
<feBlend mode="normal" in="SourceGraphic" in2="effect1_dropShadow_2010_75" result="shape"/>
</filter>
<filter id="filter2_d_2010_75" x="33.4" y="5.40002" width="11.74" height="18.6" filterUnits="userSpaceOnUse" color-interpolation-filters="sRGB">
<feFlood flood-opacity="0" result="BackgroundImageFix"/>
<feColorMatrix in="SourceAlpha" type="matrix" values="0 0 0 0 0 0 0 0 0 0 0 0 0 0 0 0 0 0 127 0" result="hardAlpha"/>
<feOffset dy="2"/>
<feGaussianBlur stdDeviation="1.5"/>
<feComposite in2="hardAlpha" operator="out"/>
<feColorMatrix type="matrix" values="0 0 0 0 0 0 0 0 0 0 0 0 0 0 0 0 0 0 0.25 0"/>
<feBlend mode="normal" in2="BackgroundImageFix" result="effect1_dropShadow_2010_75"/>
<feBlend mode="normal" in="SourceGraphic" in2="effect1_dropShadow_2010_75" result="shape"/>
</filter>
<clipPath id="clip0_2010_75">
<rect width="38" height="38" fill="white" transform="translate(16.5 24)"/>
</clipPath>
</defs>
</svg>
