<svg width="71" height="70" viewBox="0 0 71 70" fill="none" xmlns="http://www.w3.org/2000/svg">
<g clip-path="url(#clip0_2010_104)">
<path d="M35.7829 44.4142C35.7768 44.4142 35.7701 44.4142 35.7639 44.4108L35.7585 44.4067C35.6801 44.3748 35.5962 44.358 35.5115 44.3572C35.1619 44.3564 34.8683 44.6202 34.8318 44.9679C34.7953 45.3157 35.0277 45.6347 35.3699 45.7065C35.712 45.7784 36.0531 45.5798 36.1596 45.2468C36.2661 44.9137 36.1034 44.5541 35.7829 44.4142Z" fill="#6292DB"/>
<path d="M30.9431 34.4499L28.1447 31.2518C27.8878 30.9582 27.5169 30.7893 27.1268 30.7883H17.8684C17.5084 30.7877 17.1631 30.9311 16.9096 31.1867C16.6308 31.4659 16.4868 31.8523 16.5146 32.2459C16.6121 32.9775 17.2452 33.5182 17.9831 33.4999H26.0112C26.386 33.4999 26.6898 33.8037 26.6898 34.1785C26.6898 34.5532 26.386 34.857 26.0112 34.857H19.2255C18.8656 34.8564 18.5203 34.9999 18.2667 35.2554C17.988 35.5347 17.8439 35.921 17.8718 36.3146C17.968 37.0473 18.6014 37.5894 19.3402 37.5713H23.297C23.6717 37.5713 23.9755 37.8751 23.9755 38.2499C23.9755 38.6247 23.6717 38.9285 23.297 38.9285H21.2612C20.9013 38.9279 20.556 39.0713 20.3024 39.3268C20.0237 39.6061 19.8796 39.9924 19.9075 40.386C20.0037 41.1187 20.6372 41.6608 21.3759 41.6428H24.4865C25.4884 38.4192 27.846 35.7927 30.9431 34.4499Z" fill="#6292DB"/>
<path d="M41.6187 44.3571H42.9412C42.8056 42.8514 42.2138 41.423 41.2448 40.2626L40.3104 41.197C40.0441 41.4541 39.6209 41.4504 39.3591 41.1887C39.0974 40.9269 39.0937 40.5037 39.3509 40.2375L40.2853 39.3031C39.1248 38.3337 37.6961 37.7416 36.1901 37.606V38.9285C36.1901 39.3033 35.8863 39.6071 35.5115 39.6071C35.1368 39.6071 34.833 39.3033 34.833 38.9285V37.606C33.3273 37.7416 31.8988 38.3334 30.7385 39.3024L31.6728 40.2368C31.8492 40.4072 31.92 40.6594 31.8579 40.8967C31.7958 41.1339 31.6105 41.3192 31.3733 41.3813C31.136 41.4434 30.8837 41.3727 30.7133 41.1963L29.779 40.2619C28.8096 41.4224 28.2175 42.8511 28.0818 44.3571H29.4044C29.7791 44.3571 30.083 44.6609 30.083 45.0356C30.083 45.4104 29.7791 45.7142 29.4044 45.7142H28.0818C28.2175 47.2199 28.8093 48.6483 29.7783 49.8087L30.7127 48.8743C30.9789 48.6172 31.4022 48.6208 31.6639 48.8826C31.9257 49.1443 31.9293 49.5676 31.6722 49.8338L30.7378 50.7682C31.8983 51.7376 33.327 52.3296 34.833 52.4653V51.1428C34.833 50.768 35.1368 50.4642 35.5115 50.4642C35.8863 50.4642 36.1901 50.768 36.1901 51.1428V52.4653C37.6958 52.3297 39.1242 51.7379 40.2846 50.7689L39.3502 49.8345C39.093 49.5682 39.0967 49.145 39.3585 48.8833C39.6202 48.6215 40.0434 48.6178 40.3097 48.875L41.2441 49.8094C42.2135 48.6489 42.8055 47.2202 42.9412 45.7142H41.6187C41.2439 45.7142 40.9401 45.4104 40.9401 45.0356C40.9401 44.6609 41.2439 44.3571 41.6187 44.3571ZM37.5472 45.0356C37.5472 46.1599 36.6358 47.0714 35.5115 47.0714C34.3872 47.0714 33.4758 46.1599 33.4758 45.0356C33.4758 43.9113 34.3872 42.9999 35.5115 42.9999C35.5393 42.9999 35.5645 43.0067 35.5916 43.0081L36.2383 41.3904C36.3285 41.1651 36.5319 41.0051 36.7721 40.9706C37.0122 40.9361 37.2525 41.0323 37.4025 41.2231C37.5524 41.4138 37.5892 41.67 37.4991 41.8952L36.851 43.515C37.2916 43.8977 37.5454 44.452 37.5472 45.0356Z" fill="#6292DB"/>
<path d="M45.0115 33.4997H53.0397C53.7797 33.5196 54.4152 32.977 54.5115 32.243C54.5394 31.8494 54.3953 31.463 54.1166 31.1837C53.8622 30.9274 53.5155 30.7839 53.1544 30.7854H43.8993C43.5092 30.7864 43.1384 30.9553 42.8815 31.2489L40.0797 34.4497C43.1767 35.7925 45.5344 38.419 46.5363 41.6426H49.6468C50.3869 41.6624 51.0223 41.1199 51.1187 40.3858C51.1465 39.9922 51.0025 39.6059 50.7237 39.3266C50.4693 39.0702 50.1227 38.9267 49.7615 38.9283H47.7258C47.351 38.9283 47.0472 38.6245 47.0472 38.2497C47.0472 37.8749 47.351 37.5711 47.7258 37.5711H51.6825C52.4226 37.591 53.058 37.0484 53.1544 36.3144C53.1822 35.9208 53.0382 35.5345 52.7594 35.2552C52.505 34.9988 52.1584 34.8553 51.7972 34.8568H45.0115C44.6367 34.8568 44.3329 34.553 44.3329 34.1783C44.3329 33.8035 44.6367 33.4997 45.0115 33.4997Z" fill="#6292DB"/>
<path d="M35.5115 34.8572C29.89 34.8572 25.3329 39.4143 25.3329 45.0357C25.3329 50.6572 29.89 55.2143 35.5115 55.2143C41.133 55.2143 45.6901 50.6572 45.6901 45.0357C45.6837 39.4169 41.1304 34.8635 35.5115 34.8572ZM35.5115 53.8572C30.6396 53.8572 26.6901 49.9077 26.6901 45.0357C26.6901 40.1638 30.6396 36.2143 35.5115 36.2143C40.3835 36.2143 44.3329 40.1638 44.3329 45.0357C44.3273 49.9054 40.3811 53.8516 35.5115 53.8572Z" fill="#6292DB"/>
</g>
<g filter="url(#filter0_d_2010_104)">
<circle cx="35.5" cy="41" r="24.65" stroke="#6292DB" stroke-width="1.3" shape-rendering="crispEdges"/>
</g>
<g filter="url(#filter1_d_2010_104)">
<mask id="path-7-outside-1_2010_104" maskUnits="userSpaceOnUse" x="24.1713" y="5" width="9" height="15" fill="black">
<rect fill="white" x="24.1713" y="5" width="9" height="15"/>
<path d="M29.8313 7.96C29.7913 8.81333 29.7713 9.63333 29.7713 10.42C29.7713 11.2333 29.8246 12.4267 29.9313 14C29.9446 14.24 29.9713 14.7267 30.0113 15.46C30.0513 16.18 30.0713 16.84 30.0713 17.44C30.2046 17.4267 30.3446 17.4067 30.4913 17.38C30.6513 17.3533 30.7713 17.34 30.8513 17.34C31.1446 17.34 31.3779 17.4133 31.5513 17.56C31.7246 17.7067 31.8113 17.9333 31.8113 18.24C31.8113 18.44 31.7313 18.5933 31.5713 18.7C31.4113 18.8067 31.1313 18.8867 30.7313 18.94C30.3446 18.98 29.7779 19 29.0313 19C28.2046 19 27.5846 18.9733 27.1713 18.92C26.7579 18.8667 26.4713 18.7667 26.3113 18.62C26.1513 18.46 26.0713 18.2267 26.0713 17.92C26.0713 17.6933 26.1446 17.54 26.2913 17.46C26.4379 17.38 26.6446 17.34 26.9113 17.34L27.3313 17.36L27.9913 17.4L27.8913 15.04C27.8113 13.76 27.7713 12.5867 27.7713 11.52C27.7713 10.9467 27.7913 10.16 27.8313 9.16L27.8713 8.06C27.4179 8.08667 27.0646 8.1 26.8113 8.1C26.5179 8.1 26.3179 8.04667 26.2113 7.94C26.1179 7.83333 26.0713 7.61333 26.0713 7.28C26.0713 6.90667 26.3246 6.66667 26.8313 6.56C27.3513 6.45333 28.1379 6.4 29.1913 6.4C30.0046 6.4 30.6113 6.42667 31.0113 6.48C31.4246 6.53333 31.6313 6.65333 31.6313 6.84C31.6313 7.29333 31.5313 7.59333 31.3313 7.74C31.1446 7.87333 30.7779 7.94 30.2313 7.94L29.8313 7.96Z"/>
</mask>
<path d="M29.8313 7.96C29.7913 8.81333 29.7713 9.63333 29.7713 10.42C29.7713 11.2333 29.8246 12.4267 29.9313 14C29.9446 14.24 29.9713 14.7267 30.0113 15.46C30.0513 16.18 30.0713 16.84 30.0713 17.44C30.2046 17.4267 30.3446 17.4067 30.4913 17.38C30.6513 17.3533 30.7713 17.34 30.8513 17.34C31.1446 17.34 31.3779 17.4133 31.5513 17.56C31.7246 17.7067 31.8113 17.9333 31.8113 18.24C31.8113 18.44 31.7313 18.5933 31.5713 18.7C31.4113 18.8067 31.1313 18.8867 30.7313 18.94C30.3446 18.98 29.7779 19 29.0313 19C28.2046 19 27.5846 18.9733 27.1713 18.92C26.7579 18.8667 26.4713 18.7667 26.3113 18.62C26.1513 18.46 26.0713 18.2267 26.0713 17.92C26.0713 17.6933 26.1446 17.54 26.2913 17.46C26.4379 17.38 26.6446 17.34 26.9113 17.34L27.3313 17.36L27.9913 17.4L27.8913 15.04C27.8113 13.76 27.7713 12.5867 27.7713 11.52C27.7713 10.9467 27.7913 10.16 27.8313 9.16L27.8713 8.06C27.4179 8.08667 27.0646 8.1 26.8113 8.1C26.5179 8.1 26.3179 8.04667 26.2113 7.94C26.1179 7.83333 26.0713 7.61333 26.0713 7.28C26.0713 6.90667 26.3246 6.66667 26.8313 6.56C27.3513 6.45333 28.1379 6.4 29.1913 6.4C30.0046 6.4 30.6113 6.42667 31.0113 6.48C31.4246 6.53333 31.6313 6.65333 31.6313 6.84C31.6313 7.29333 31.5313 7.59333 31.3313 7.74C31.1446 7.87333 30.7779 7.94 30.2313 7.94L29.8313 7.96Z" fill="#6292DB"/>
<path d="M29.8313 7.96L29.7813 6.96125L28.8749 7.00657L28.8324 7.91318L29.8313 7.96ZM29.9313 14L30.9298 13.9445L30.929 13.9324L29.9313 14ZM30.0113 15.46L29.0127 15.5145L29.0128 15.5155L30.0113 15.46ZM30.0713 17.44H29.0713V18.545L30.1708 18.435L30.0713 17.44ZM30.4913 17.38L30.3269 16.3936L30.3196 16.3948L30.3124 16.3961L30.4913 17.38ZM31.5513 17.56L30.9053 18.3234L30.9053 18.3234L31.5513 17.56ZM31.5713 18.7L32.126 19.5321L32.126 19.5321L31.5713 18.7ZM30.7313 18.94L30.8342 19.9347L30.8488 19.9332L30.8634 19.9312L30.7313 18.94ZM27.1713 18.92L27.0433 19.9118L27.0433 19.9118L27.1713 18.92ZM26.3113 18.62L25.6042 19.3271L25.6195 19.3425L25.6355 19.3572L26.3113 18.62ZM26.2913 17.46L25.8124 16.5821L25.8124 16.5821L26.2913 17.46ZM26.9113 17.34L26.9588 16.3411L26.9351 16.34H26.9113V17.34ZM27.3313 17.36L27.3918 16.3617L27.3788 16.3611L27.3313 17.36ZM27.9913 17.4L27.9308 18.3982L29.0373 18.4652L28.9904 17.3577L27.9913 17.4ZM27.8913 15.04L28.8904 14.9977L28.8899 14.9876L28.8893 14.9776L27.8913 15.04ZM27.8313 9.16L28.8305 9.19997L28.8306 9.19634L27.8313 9.16ZM27.8713 8.06L28.8706 8.09634L28.9106 6.99713L27.8125 7.06172L27.8713 8.06ZM26.2113 7.94L25.4587 8.5985L25.4806 8.62356L25.5042 8.64711L26.2113 7.94ZM26.8313 6.56L26.6303 5.58038L26.6253 5.58145L26.8313 6.56ZM31.0113 6.48L30.8791 7.47124L30.8833 7.47178L31.0113 6.48ZM31.3313 7.74L31.9125 8.5538L31.9226 8.5464L31.3313 7.74ZM30.2313 7.94V6.94H30.2063L30.1813 6.94125L30.2313 7.94ZM28.8324 7.91318C28.7917 8.78079 28.7713 9.61646 28.7713 10.42H30.7713C30.7713 9.65021 30.7908 8.84587 30.8302 8.00682L28.8324 7.91318ZM28.7713 10.42C28.7713 11.268 28.8265 12.4885 28.9336 14.0676L30.929 13.9324C30.8227 12.3648 30.7713 11.1986 30.7713 10.42H28.7713ZM28.9328 14.0555C28.9461 14.2949 28.9727 14.781 29.0127 15.5145L31.0098 15.4055C30.9698 14.6723 30.9431 14.1851 30.9297 13.9445L28.9328 14.0555ZM29.0128 15.5155C29.052 16.2205 29.0713 16.8617 29.0713 17.44H31.0713C31.0713 16.8183 31.0506 16.1395 31.0097 15.4045L29.0128 15.5155ZM30.1708 18.435C30.3335 18.4188 30.5001 18.3948 30.6702 18.3639L30.3124 16.3961C30.1891 16.4185 30.0757 16.4346 29.9718 16.445L30.1708 18.435ZM30.6557 18.3664C30.7234 18.3551 30.7747 18.348 30.8117 18.3439C30.8515 18.3395 30.8616 18.34 30.8513 18.34V16.34C30.685 16.34 30.4979 16.3651 30.3269 16.3936L30.6557 18.3664ZM30.8513 18.34C30.9158 18.34 30.9439 18.3482 30.9464 18.349C30.9474 18.3493 30.9427 18.3479 30.9342 18.3433C30.9256 18.3386 30.9155 18.332 30.9053 18.3234L32.1972 16.7966C31.796 16.4571 31.3107 16.34 30.8513 16.34V18.34ZM30.9053 18.3234C30.8822 18.3038 30.8615 18.281 30.8444 18.2565C30.8276 18.2323 30.8176 18.2112 30.8122 18.1971C30.8021 18.1708 30.8113 18.1779 30.8113 18.24H32.8113C32.8113 17.7482 32.6668 17.1939 32.1972 16.7966L30.9053 18.3234ZM30.8113 18.24C30.8113 18.2042 30.8193 18.1294 30.8647 18.0424C30.9109 17.9539 30.9726 17.8973 31.0166 17.8679L32.126 19.5321C32.5773 19.2312 32.8113 18.7583 32.8113 18.24H30.8113ZM31.0166 17.8679C31.0548 17.8425 31.0527 17.8539 30.9665 17.8785C30.8872 17.9011 30.7678 17.9263 30.5991 17.9488L30.8634 19.9312C31.2838 19.8752 31.7623 19.7745 32.126 19.5321L31.0166 17.8679ZM30.6284 17.9453C30.2941 17.9799 29.7687 18 29.0313 18V20C29.7872 20 30.3951 19.9801 30.8342 19.9347L30.6284 17.9453ZM29.0313 18C28.2144 18 27.6467 17.9731 27.2992 17.9282L27.0433 19.9118C27.5225 19.9736 28.1948 20 29.0313 20V18ZM27.2992 17.9282C27.1377 17.9074 27.0346 17.8814 26.9756 17.8608C26.913 17.8389 26.9353 17.8355 26.987 17.8828L25.6355 19.3572C26.0338 19.7223 26.5849 19.8526 27.0433 19.9118L27.2992 17.9282ZM27.0184 17.9129C27.0354 17.93 27.0494 17.9481 27.0599 17.9654C27.0703 17.9824 27.0753 17.9951 27.0772 18.0007C27.0805 18.0102 27.0713 17.9887 27.0713 17.92H25.0713C25.0713 18.3951 25.1978 18.9207 25.6042 19.3271L27.0184 17.9129ZM27.0713 17.92C27.0713 17.9085 27.0739 17.9713 27.0284 18.0665C26.9761 18.1759 26.8847 18.2754 26.7701 18.3379L25.8124 16.5821C25.2319 16.8988 25.0713 17.4766 25.0713 17.92H27.0713ZM26.7701 18.3379C26.7331 18.3581 26.719 18.3571 26.7463 18.3518C26.773 18.3466 26.8257 18.34 26.9113 18.34V16.34C26.5669 16.34 26.1685 16.3879 25.8124 16.5821L26.7701 18.3379ZM26.8637 18.3389L27.2837 18.3589L27.3788 16.3611L26.9588 16.3411L26.8637 18.3389ZM27.2708 18.3582L27.9308 18.3982L28.0518 16.4018L27.3918 16.3618L27.2708 18.3582ZM28.9904 17.3577L28.8904 14.9977L26.8922 15.0823L26.9922 17.4423L28.9904 17.3577ZM28.8893 14.9776C28.8104 13.7144 28.7713 12.5622 28.7713 11.52H26.7713C26.7713 12.6111 26.8122 13.8056 26.8932 15.1024L28.8893 14.9776ZM28.7713 11.52C28.7713 10.9662 28.7907 10.1949 28.8305 9.19997L26.8321 9.12003C26.7919 10.1251 26.7713 10.9271 26.7713 11.52H28.7713ZM28.8306 9.19634L28.8706 8.09634L26.8719 8.02366L26.8319 9.12366L28.8306 9.19634ZM27.8125 7.06172C27.3661 7.08799 27.0355 7.1 26.8113 7.1V9.1C27.0937 9.1 27.4698 9.08534 27.93 9.05827L27.8125 7.06172ZM26.8113 7.1C26.7676 7.1 26.7365 7.09798 26.7162 7.09579C26.6957 7.09357 26.6911 7.09168 26.6989 7.09376C26.7084 7.09628 26.8094 7.12394 26.9184 7.23289L25.5042 8.64711C25.9113 9.05426 26.4732 9.1 26.8113 9.1V7.1ZM26.9638 7.2815C27.0245 7.35083 27.0554 7.41263 27.0692 7.44483C27.0831 7.47741 27.086 7.49455 27.0845 7.48749C27.0832 7.48136 27.0796 7.46158 27.0765 7.42471C27.0734 7.38836 27.0713 7.34064 27.0713 7.28H25.0713C25.0713 7.48644 25.0851 7.70016 25.128 7.9025C25.168 8.09111 25.252 8.36234 25.4587 8.5985L26.9638 7.2815ZM27.0713 7.28C27.0713 7.3013 27.0673 7.34811 27.043 7.40676C27.0182 7.46689 26.9825 7.51426 26.949 7.54595C26.9182 7.57514 26.9 7.58109 26.9138 7.57482C26.9282 7.56825 26.9662 7.55351 27.0373 7.53855L26.6253 5.58145C26.2729 5.65564 25.8842 5.79968 25.5735 6.09405C25.2325 6.41714 25.0713 6.84015 25.0713 7.28H27.0713ZM27.0322 7.5396C27.4494 7.45402 28.1532 7.4 29.1913 7.4V5.4C28.1227 5.4 27.2531 5.45264 26.6303 5.5804L27.0322 7.5396ZM29.1913 7.4C29.9953 7.4 30.5475 7.42702 30.8791 7.47123L31.1434 5.48877C30.675 5.42631 30.0139 5.4 29.1913 5.4V7.4ZM30.8833 7.47178C30.952 7.48064 30.9933 7.48999 31.0133 7.49557C31.0355 7.50178 31.0159 7.49904 30.9741 7.47479C30.9319 7.45027 30.8429 7.38954 30.7632 7.27135C30.6767 7.14288 30.6313 6.99043 30.6313 6.84H32.6313C32.6313 6.28836 32.2903 5.92629 31.9784 5.74521C31.7046 5.5862 31.3943 5.52113 31.1392 5.48822L30.8833 7.47178ZM30.6313 6.84C30.6313 6.91744 30.6269 6.97648 30.6212 7.01966C30.6154 7.06317 30.609 7.0844 30.6076 7.08877C30.6062 7.09289 30.6118 7.07433 30.6324 7.04369C30.654 7.01153 30.6889 6.971 30.7399 6.93359L31.9226 8.5464C32.5306 8.10054 32.6313 7.3606 32.6313 6.84H30.6313ZM30.75 6.92627C30.7951 6.89405 30.8238 6.88481 30.8176 6.88705C30.8125 6.8889 30.788 6.89693 30.7374 6.90613C30.6334 6.92503 30.4696 6.94 30.2313 6.94V8.94C30.5396 8.94 30.8324 8.92163 31.0952 8.87387C31.3435 8.82872 31.6471 8.74329 31.9125 8.55373L30.75 6.92627ZM30.1813 6.94125L29.7813 6.96125L29.8812 8.95875L30.2812 8.93875L30.1813 6.94125Z" fill="#182435" mask="url(#path-7-outside-1_2010_104)"/>
</g>
<g filter="url(#filter2_d_2010_104)">
<mask id="path-9-outside-2_2010_104" maskUnits="userSpaceOnUse" x="32.8287" y="5" width="14" height="16" fill="black">
<rect fill="white" x="32.8287" y="5" width="14" height="16"/>
<path d="M36.3887 6.9C36.882 8.36667 37.442 9.98 38.0687 11.74C38.6953 13.4867 39.2687 15 39.7887 16.28C40.1753 15.04 40.7087 13.5533 41.3887 11.82C42.0687 10.0733 42.702 8.5 43.2887 7.1C43.462 6.68667 43.7553 6.48 44.1687 6.48C44.5553 6.48 44.8487 6.56 45.0487 6.72C45.2487 6.86667 45.3487 7.12667 45.3487 7.5C45.3487 7.64667 45.3287 7.77333 45.2887 7.88C45.2487 7.98667 45.1887 8.12667 45.1087 8.3C44.6953 9.11333 44.282 10.0533 43.8687 11.12C43.4553 12.1733 42.9487 13.5133 42.3487 15.14C42.3753 15.0733 42.1887 15.5733 41.7887 16.64L41.1287 18.36C41.0487 18.5733 40.9153 18.74 40.7287 18.86C40.5553 18.9667 40.3553 19.02 40.1287 19.02C39.902 19.02 39.6487 18.9667 39.3687 18.86C39.102 18.74 38.9087 18.62 38.7887 18.5C38.3353 17.6333 37.7553 16.38 37.0487 14.74C36.3553 13.1 35.7553 11.5867 35.2487 10.2L34.9487 9.38C34.7487 8.82 34.602 8.39333 34.5087 8.1C34.4153 7.79333 34.3687 7.54667 34.3687 7.36C34.3687 7.09333 34.5153 6.88 34.8087 6.72C35.1153 6.56 35.4087 6.48 35.6887 6.48C35.8353 6.48 35.9753 6.51333 36.1087 6.58C36.242 6.64667 36.3353 6.75333 36.3887 6.9Z"/>
</mask>
<path d="M36.3887 6.9C36.882 8.36667 37.442 9.98 38.0687 11.74C38.6953 13.4867 39.2687 15 39.7887 16.28C40.1753 15.04 40.7087 13.5533 41.3887 11.82C42.0687 10.0733 42.702 8.5 43.2887 7.1C43.462 6.68667 43.7553 6.48 44.1687 6.48C44.5553 6.48 44.8487 6.56 45.0487 6.72C45.2487 6.86667 45.3487 7.12667 45.3487 7.5C45.3487 7.64667 45.3287 7.77333 45.2887 7.88C45.2487 7.98667 45.1887 8.12667 45.1087 8.3C44.6953 9.11333 44.282 10.0533 43.8687 11.12C43.4553 12.1733 42.9487 13.5133 42.3487 15.14C42.3753 15.0733 42.1887 15.5733 41.7887 16.64L41.1287 18.36C41.0487 18.5733 40.9153 18.74 40.7287 18.86C40.5553 18.9667 40.3553 19.02 40.1287 19.02C39.902 19.02 39.6487 18.9667 39.3687 18.86C39.102 18.74 38.9087 18.62 38.7887 18.5C38.3353 17.6333 37.7553 16.38 37.0487 14.74C36.3553 13.1 35.7553 11.5867 35.2487 10.2L34.9487 9.38C34.7487 8.82 34.602 8.39333 34.5087 8.1C34.4153 7.79333 34.3687 7.54667 34.3687 7.36C34.3687 7.09333 34.5153 6.88 34.8087 6.72C35.1153 6.56 35.4087 6.48 35.6887 6.48C35.8353 6.48 35.9753 6.51333 36.1087 6.58C36.242 6.64667 36.3353 6.75333 36.3887 6.9Z" fill="#6292DB"/>
<path d="M36.3887 6.9L37.3365 6.58119L37.3326 6.56967L37.3285 6.55826L36.3887 6.9ZM38.0687 11.74L37.1266 12.0754L37.1274 12.0777L38.0687 11.74ZM39.7887 16.28L38.8622 16.6564L39.9126 19.2419L40.7433 16.5777L39.7887 16.28ZM41.3887 11.82L42.3196 12.1852L42.3205 12.1828L41.3887 11.82ZM43.2887 7.1L42.3665 6.71327L42.3664 6.71351L43.2887 7.1ZM45.0487 6.72L44.424 7.50087L44.4404 7.51399L44.4573 7.5264L45.0487 6.72ZM45.2887 7.88L44.3523 7.52887L44.3523 7.52888L45.2887 7.88ZM45.1087 8.3L46.0002 8.75305L46.0087 8.73621L46.0166 8.71906L45.1087 8.3ZM43.8687 11.12L44.7996 11.4853L44.8011 11.4813L43.8687 11.12ZM42.3487 15.14L41.4105 14.7939L43.2772 15.5114L42.3487 15.14ZM41.7887 16.64L42.7223 16.9983L42.725 16.9911L41.7887 16.64ZM41.1287 18.36L40.195 18.0017L40.1923 18.0089L41.1287 18.36ZM40.7287 18.86L41.2528 19.7117L41.2612 19.7065L41.2694 19.7012L40.7287 18.86ZM39.3687 18.86L38.9583 19.7719L38.9852 19.784L39.0127 19.7945L39.3687 18.86ZM38.7887 18.5L37.9026 18.9635L37.9734 19.099L38.0816 19.2071L38.7887 18.5ZM37.0487 14.74L36.1276 15.1294L36.1303 15.1357L37.0487 14.74ZM35.2487 10.2L36.1879 9.85681L36.1878 9.85642L35.2487 10.2ZM34.9487 9.38L34.0069 9.71635L34.0096 9.72358L34.9487 9.38ZM34.5087 8.1L33.5519 8.39118L33.5557 8.4032L34.5087 8.1ZM34.8087 6.72L34.3461 5.83342L34.3379 5.83768L34.3298 5.8421L34.8087 6.72ZM36.1087 6.58L36.5559 5.68557L36.5559 5.68557L36.1087 6.58ZM35.4409 7.21881C35.9364 8.69203 36.4984 10.311 37.1266 12.0754L39.0107 11.4046C38.3857 9.649 37.8276 8.0413 37.3365 6.58119L35.4409 7.21881ZM37.1274 12.0777C37.7573 13.8333 38.3356 15.3601 38.8622 16.6564L40.7151 15.9036C40.2017 14.6399 39.6334 13.1401 39.0099 11.4023L37.1274 12.0777ZM40.7433 16.5777C41.1206 15.3679 41.6449 13.905 42.3196 12.1852L40.4577 11.4548C39.7724 13.2017 39.2301 14.7121 38.834 15.9823L40.7433 16.5777ZM42.3205 12.1828C42.9981 10.4423 43.6283 8.87706 44.211 7.48649L42.3664 6.71351C41.7758 8.12294 41.1392 9.70436 40.4568 11.4572L42.3205 12.1828ZM44.2109 7.48673C44.227 7.44824 44.2386 7.43216 44.2401 7.43012C44.2409 7.42908 44.2331 7.43948 44.2146 7.45248C44.2059 7.45866 44.1963 7.46424 44.1866 7.46893C44.1768 7.4736 44.1683 7.47666 44.1619 7.47855C44.1486 7.48242 44.1489 7.48 44.1687 7.48V5.48C43.7882 5.48 43.4026 5.57803 43.0627 5.81752C42.7284 6.05308 42.5078 6.37632 42.3665 6.71327L44.2109 7.48673ZM44.1687 7.48C44.296 7.48 44.3742 7.49348 44.4156 7.50476C44.4547 7.51543 44.4487 7.52065 44.424 7.50087L45.6734 5.93913C45.2256 5.58092 44.6718 5.48 44.1687 5.48V7.48ZM44.4573 7.5264C44.4243 7.50221 44.3965 7.47381 44.3752 7.4449C44.3544 7.41667 44.3442 7.39415 44.3403 7.38398C44.3367 7.37446 44.339 7.37728 44.3422 7.39721C44.3453 7.41721 44.3487 7.45061 44.3487 7.5H46.3487C46.3487 6.97539 46.2071 6.32947 45.64 5.91359L44.4573 7.5264ZM44.3487 7.5C44.3487 7.52838 44.3467 7.54401 44.3459 7.54904C44.3451 7.55392 44.3459 7.54599 44.3523 7.52887L46.225 8.23113C46.3173 7.98509 46.3487 7.73377 46.3487 7.5H44.3487ZM44.3523 7.52888C44.3248 7.6024 44.2763 7.7172 44.2007 7.88094L46.0166 8.71906C46.1011 8.53613 46.1726 8.37093 46.225 8.23112L44.3523 7.52888ZM44.2172 7.84695C43.7854 8.69652 43.3588 9.66822 42.9362 10.7587L44.8011 11.4813C45.2052 10.4384 45.6052 9.53015 46.0002 8.75305L44.2172 7.84695ZM42.9378 10.7547C42.521 11.8168 42.0117 13.1638 41.4105 14.7939L43.2869 15.4861C43.8856 13.8628 44.3897 12.5298 44.7996 11.4853L42.9378 10.7547ZM43.2772 15.5114C43.277 15.5119 43.2764 15.5133 43.2755 15.5155C43.2748 15.5172 43.2729 15.5218 43.2703 15.5278C43.27 15.5287 43.261 15.55 43.2482 15.576C43.2443 15.5839 43.2373 15.5979 43.2278 15.6152C43.2215 15.6267 43.1997 15.6664 43.1661 15.7137C43.1467 15.74 43.0916 15.8063 43.0546 15.8449C42.9803 15.9114 42.7108 16.0672 42.5056 16.1221C42.1329 16.11 41.5796 15.7703 41.4314 15.5266C41.3872 15.4002 41.3535 15.2018 41.3512 15.1342C41.3512 15.0327 41.3675 14.9537 41.3695 14.9438C41.3746 14.9172 41.3798 14.8965 41.3824 14.8863C41.3878 14.8652 41.3927 14.849 41.3945 14.8432C41.3986 14.8297 41.4021 14.8194 41.4029 14.817C41.4042 14.813 41.4052 14.81 41.4056 14.8089C41.4061 14.8075 41.4064 14.8067 41.4065 14.8066C41.4065 14.8064 41.4062 14.8073 41.4053 14.8097C41.4045 14.8119 41.4034 14.8149 41.402 14.8188C41.3992 14.8266 41.3954 14.8369 41.3906 14.8499C41.3713 14.9022 41.3385 14.9903 41.2918 15.1152C41.1988 15.3645 41.0523 15.7556 40.8523 16.2889L42.725 16.9911C42.925 16.4577 43.0719 16.0655 43.1655 15.8148C43.2122 15.6897 43.2461 15.5986 43.2668 15.5426C43.2765 15.5163 43.2852 15.4925 43.2909 15.4766C43.2922 15.4728 43.2951 15.4647 43.2982 15.4554C43.2995 15.4518 43.3032 15.4405 43.3076 15.4263C43.3094 15.4201 43.3144 15.4036 43.3199 15.3823C43.3225 15.3721 43.3277 15.3513 43.3329 15.3246C43.3348 15.3146 43.3512 15.2356 43.3512 15.1341C43.3489 15.0665 43.3151 14.868 43.2709 14.7416C43.1227 14.498 42.5694 14.1582 42.1967 14.1461C41.9915 14.201 41.722 14.3569 41.6477 14.4233C41.6107 14.462 41.5556 14.5283 41.5362 14.5546C41.5026 14.6019 41.4807 14.6416 41.4743 14.6533C41.4648 14.6706 41.4578 14.6847 41.4538 14.6927C41.4408 14.7192 41.4316 14.7411 41.4308 14.743C41.4256 14.755 41.4215 14.7654 41.4202 14.7686L43.2772 15.5114ZM40.855 16.2817L40.195 18.0017L42.0623 18.7183L42.7223 16.9983L40.855 16.2817ZM40.1923 18.0089C40.1894 18.0167 40.1873 18.0206 40.1867 18.0217C40.1861 18.0227 40.1864 18.022 40.1878 18.0203C40.1892 18.0186 40.1906 18.0172 40.1914 18.0164C40.1922 18.0157 40.1914 18.0166 40.1879 18.0188L41.2694 19.7012C41.6424 19.4614 41.9115 19.1204 42.065 18.7111L40.1923 18.0089ZM40.2046 18.0083C40.2021 18.0099 40.1987 18.0117 40.191 18.0138C40.1826 18.016 40.1632 18.02 40.1287 18.02V20.02C40.5187 20.02 40.9043 19.9261 41.2528 19.7117L40.2046 18.0083ZM40.1287 18.02C40.0559 18.02 39.9255 18.002 39.7247 17.9255L39.0127 19.7945C39.3718 19.9313 39.7482 20.02 40.1287 20.02V18.02ZM39.779 17.9481C39.6753 17.9014 39.6013 17.8616 39.551 17.8304C39.499 17.7981 39.4867 17.7839 39.4958 17.7929L38.0816 19.2071C38.3277 19.4532 38.6492 19.6328 38.9583 19.7719L39.779 17.9481ZM39.6748 18.0365C39.2388 17.2031 38.6704 15.9767 37.967 14.3443L36.1303 15.1357C36.8402 16.7833 37.4318 18.0636 37.9026 18.9635L39.6748 18.0365ZM37.9697 14.3506C37.2816 12.7229 36.6879 11.2252 36.1879 9.85681L34.3094 10.5432C34.8228 11.9482 35.4291 13.4771 36.1276 15.1294L37.9697 14.3506ZM36.1878 9.85642L35.8878 9.03642L34.0096 9.72358L34.3096 10.5436L36.1878 9.85642ZM35.8904 9.04366C35.6914 8.48655 35.5495 8.07308 35.4616 7.7968L33.5557 8.4032C33.6545 8.71359 33.8059 9.15345 34.0069 9.71634L35.8904 9.04366ZM35.4653 7.80884C35.3833 7.53926 35.3687 7.40208 35.3687 7.36H33.3687C33.3687 7.69125 33.4474 8.0474 33.552 8.39116L35.4653 7.80884ZM35.3687 7.36C35.3687 7.38616 35.3649 7.42175 35.3525 7.46222C35.3401 7.50294 35.3221 7.5384 35.3027 7.56653C35.265 7.62139 35.24 7.62382 35.2875 7.5979L34.3298 5.8421C33.8108 6.12518 33.3687 6.63004 33.3687 7.36H35.3687ZM35.2712 7.60658C35.4682 7.50384 35.6033 7.48 35.6887 7.48V5.48C35.214 5.48 34.7625 5.61616 34.3461 5.83342L35.2712 7.60658ZM35.6887 7.48C35.6855 7.48 35.6794 7.47955 35.6721 7.47781C35.6648 7.47608 35.661 7.47417 35.6615 7.47443L36.5559 5.68557C36.2861 5.55066 35.9932 5.48 35.6887 5.48V7.48ZM35.6615 7.47443C35.6181 7.45274 35.5693 7.4179 35.5261 7.3685C35.4835 7.31977 35.4602 7.27291 35.4489 7.24174L37.3285 6.55826C37.1922 6.18359 36.9297 5.87246 36.5559 5.68557L35.6615 7.47443Z" fill="#182435" mask="url(#path-9-outside-2_2010_104)"/>
</g>
<defs>
<filter id="filter0_d_2010_104" x="8.20001" y="13.7" width="54.6" height="54.6001" filterUnits="userSpaceOnUse" color-interpolation-filters="sRGB">
<feFlood flood-opacity="0" result="BackgroundImageFix"/>
<feColorMatrix in="SourceAlpha" type="matrix" values="0 0 0 0 0 0 0 0 0 0 0 0 0 0 0 0 0 0 127 0" result="hardAlpha"/>
<feOffset/>
<feGaussianBlur stdDeviation="1"/>
<feComposite in2="hardAlpha" operator="out"/>
<feColorMatrix type="matrix" values="0 0 0 0 0 0 0 0 0 0 0 0 0 0 0 0 0 0 1 0"/>
<feBlend mode="normal" in2="BackgroundImageFix" result="effect1_dropShadow_2010_104"/>
<feBlend mode="normal" in="SourceGraphic" in2="effect1_dropShadow_2010_104" result="shape"/>
</filter>
<filter id="filter1_d_2010_104" x="23.0713" y="5.3999" width="11.74" height="18.6001" filterUnits="userSpaceOnUse" color-interpolation-filters="sRGB">
<feFlood flood-opacity="0" result="BackgroundImageFix"/>
<feColorMatrix in="SourceAlpha" type="matrix" values="0 0 0 0 0 0 0 0 0 0 0 0 0 0 0 0 0 0 127 0" result="hardAlpha"/>
<feOffset dy="2"/>
<feGaussianBlur stdDeviation="1.5"/>
<feComposite in2="hardAlpha" operator="out"/>
<feColorMatrix type="matrix" values="0 0 0 0 0 0 0 0 0 0 0 0 0 0 0 0 0 0 0.25 0"/>
<feBlend mode="normal" in2="BackgroundImageFix" result="effect1_dropShadow_2010_104"/>
<feBlend mode="normal" in="SourceGraphic" in2="effect1_dropShadow_2010_104" result="shape"/>
</filter>
<filter id="filter2_d_2010_104" x="31.3687" y="5.47998" width="16.98" height="18.54" filterUnits="userSpaceOnUse" color-interpolation-filters="sRGB">
<feFlood flood-opacity="0" result="BackgroundImageFix"/>
<feColorMatrix in="SourceAlpha" type="matrix" values="0 0 0 0 0 0 0 0 0 0 0 0 0 0 0 0 0 0 127 0" result="hardAlpha"/>
<feOffset dy="2"/>
<feGaussianBlur stdDeviation="1.5"/>
<feComposite in2="hardAlpha" operator="out"/>
<feColorMatrix type="matrix" values="0 0 0 0 0 0 0 0 0 0 0 0 0 0 0 0 0 0 0.25 0"/>
<feBlend mode="normal" in2="BackgroundImageFix" result="effect1_dropShadow_2010_104"/>
<feBlend mode="normal" in="SourceGraphic" in2="effect1_dropShadow_2010_104" result="shape"/>
</filter>
<clipPath id="clip0_2010_104">
<rect width="38" height="38" fill="white" transform="translate(16.5115 24)"/>
</clipPath>
</defs>
</svg>
