<svg width="71" height="70" viewBox="0 0 71 70" fill="none" xmlns="http://www.w3.org/2000/svg">
<g clip-path="url(#clip0_2010_89)">
<path d="M35.7829 44.4142C35.7768 44.4142 35.7701 44.4142 35.7639 44.4108L35.7585 44.4067C35.6801 44.3748 35.5962 44.358 35.5115 44.3572C35.1619 44.3564 34.8683 44.6202 34.8318 44.9679C34.7953 45.3157 35.0277 45.6347 35.3699 45.7065C35.712 45.7784 36.0531 45.5798 36.1596 45.2468C36.2661 44.9137 36.1034 44.5541 35.7829 44.4142Z" fill="#D4AF37"/>
<path d="M30.9431 34.4499L28.1447 31.2518C27.8878 30.9582 27.5169 30.7893 27.1268 30.7883H17.8684C17.5084 30.7877 17.1631 30.9311 16.9096 31.1867C16.6308 31.4659 16.4868 31.8523 16.5146 32.2459C16.6121 32.9775 17.2452 33.5182 17.9831 33.4999H26.0112C26.386 33.4999 26.6898 33.8037 26.6898 34.1785C26.6898 34.5532 26.386 34.857 26.0112 34.857H19.2255C18.8656 34.8564 18.5203 34.9999 18.2667 35.2554C17.988 35.5347 17.8439 35.921 17.8718 36.3146C17.968 37.0473 18.6014 37.5894 19.3402 37.5713H23.297C23.6717 37.5713 23.9755 37.8751 23.9755 38.2499C23.9755 38.6247 23.6717 38.9285 23.297 38.9285H21.2612C20.9013 38.9279 20.556 39.0713 20.3024 39.3268C20.0237 39.6061 19.8796 39.9924 19.9075 40.386C20.0037 41.1187 20.6372 41.6608 21.3759 41.6428H24.4865C25.4884 38.4192 27.846 35.7927 30.9431 34.4499Z" fill="#D4AF37"/>
<path d="M41.6187 44.3571H42.9412C42.8056 42.8514 42.2138 41.423 41.2448 40.2626L40.3104 41.197C40.0441 41.4541 39.6209 41.4504 39.3591 41.1887C39.0974 40.9269 39.0937 40.5037 39.3509 40.2375L40.2853 39.3031C39.1248 38.3337 37.6961 37.7416 36.1901 37.606V38.9285C36.1901 39.3033 35.8863 39.6071 35.5115 39.6071C35.1368 39.6071 34.833 39.3033 34.833 38.9285V37.606C33.3273 37.7416 31.8988 38.3334 30.7385 39.3024L31.6728 40.2368C31.8492 40.4072 31.92 40.6594 31.8579 40.8967C31.7958 41.1339 31.6105 41.3192 31.3733 41.3813C31.136 41.4434 30.8837 41.3727 30.7133 41.1963L29.779 40.2619C28.8096 41.4224 28.2175 42.8511 28.0818 44.3571H29.4044C29.7791 44.3571 30.083 44.6609 30.083 45.0356C30.083 45.4104 29.7791 45.7142 29.4044 45.7142H28.0818C28.2175 47.2199 28.8093 48.6483 29.7783 49.8087L30.7127 48.8743C30.9789 48.6172 31.4022 48.6208 31.6639 48.8826C31.9257 49.1443 31.9293 49.5676 31.6722 49.8338L30.7378 50.7682C31.8983 51.7376 33.327 52.3296 34.833 52.4653V51.1428C34.833 50.768 35.1368 50.4642 35.5115 50.4642C35.8863 50.4642 36.1901 50.768 36.1901 51.1428V52.4653C37.6958 52.3297 39.1242 51.7379 40.2846 50.7689L39.3502 49.8345C39.093 49.5682 39.0967 49.145 39.3585 48.8833C39.6202 48.6215 40.0434 48.6178 40.3097 48.875L41.2441 49.8094C42.2135 48.6489 42.8055 47.2202 42.9412 45.7142H41.6187C41.2439 45.7142 40.9401 45.4104 40.9401 45.0356C40.9401 44.6609 41.2439 44.3571 41.6187 44.3571ZM37.5472 45.0356C37.5472 46.1599 36.6358 47.0714 35.5115 47.0714C34.3872 47.0714 33.4758 46.1599 33.4758 45.0356C33.4758 43.9113 34.3872 42.9999 35.5115 42.9999C35.5393 42.9999 35.5645 43.0067 35.5916 43.0081L36.2383 41.3904C36.3285 41.1651 36.5319 41.0051 36.7721 40.9706C37.0122 40.9361 37.2525 41.0323 37.4025 41.2231C37.5524 41.4138 37.5892 41.67 37.4991 41.8952L36.851 43.515C37.2916 43.8977 37.5454 44.452 37.5472 45.0356Z" fill="#D4AF37"/>
<path d="M45.0115 33.4997H53.0397C53.7797 33.5196 54.4152 32.977 54.5115 32.243C54.5394 31.8494 54.3953 31.463 54.1166 31.1837C53.8622 30.9274 53.5155 30.7839 53.1544 30.7854H43.8993C43.5092 30.7864 43.1384 30.9553 42.8815 31.2489L40.0797 34.4497C43.1767 35.7925 45.5344 38.419 46.5363 41.6426H49.6468C50.3869 41.6624 51.0223 41.1199 51.1187 40.3858C51.1465 39.9922 51.0025 39.6059 50.7237 39.3266C50.4693 39.0702 50.1227 38.9267 49.7615 38.9283H47.7258C47.351 38.9283 47.0472 38.6245 47.0472 38.2497C47.0472 37.8749 47.351 37.5711 47.7258 37.5711H51.6825C52.4226 37.591 53.058 37.0484 53.1544 36.3144C53.1822 35.9208 53.0382 35.5345 52.7594 35.2552C52.505 34.9988 52.1584 34.8553 51.7972 34.8568H45.0115C44.6367 34.8568 44.3329 34.553 44.3329 34.1783C44.3329 33.8035 44.6367 33.4997 45.0115 33.4997Z" fill="#D4AF37"/>
<path d="M35.5115 34.8572C29.89 34.8572 25.3329 39.4143 25.3329 45.0357C25.3329 50.6572 29.89 55.2143 35.5115 55.2143C41.133 55.2143 45.6901 50.6572 45.6901 45.0357C45.6837 39.4169 41.1304 34.8635 35.5115 34.8572ZM35.5115 53.8572C30.6396 53.8572 26.6901 49.9077 26.6901 45.0357C26.6901 40.1638 30.6396 36.2143 35.5115 36.2143C40.3835 36.2143 44.3329 40.1638 44.3329 45.0357C44.3273 49.9054 40.3811 53.8516 35.5115 53.8572Z" fill="#D4AF37"/>
</g>
<g filter="url(#filter0_d_2010_89)">
<circle cx="35.5" cy="41" r="24.65" stroke="#D4AF37" stroke-width="1.3" shape-rendering="crispEdges"/>
</g>
<g filter="url(#filter1_d_2010_89)">
<mask id="path-7-outside-1_2010_89" maskUnits="userSpaceOnUse" x="22.5" y="5" width="9" height="15" fill="black">
<rect fill="white" x="22.5" y="5" width="9" height="15"/>
<path d="M28.16 7.96C28.12 8.81333 28.1 9.63333 28.1 10.42C28.1 11.2333 28.1533 12.4267 28.26 14C28.2733 14.24 28.3 14.7267 28.34 15.46C28.38 16.18 28.4 16.84 28.4 17.44C28.5333 17.4267 28.6733 17.4067 28.82 17.38C28.98 17.3533 29.1 17.34 29.18 17.34C29.4733 17.34 29.7067 17.4133 29.88 17.56C30.0533 17.7067 30.14 17.9333 30.14 18.24C30.14 18.44 30.06 18.5933 29.9 18.7C29.74 18.8067 29.46 18.8867 29.06 18.94C28.6733 18.98 28.1067 19 27.36 19C26.5333 19 25.9133 18.9733 25.5 18.92C25.0867 18.8667 24.8 18.7667 24.64 18.62C24.48 18.46 24.4 18.2267 24.4 17.92C24.4 17.6933 24.4733 17.54 24.62 17.46C24.7667 17.38 24.9733 17.34 25.24 17.34L25.66 17.36L26.32 17.4L26.22 15.04C26.14 13.76 26.1 12.5867 26.1 11.52C26.1 10.9467 26.12 10.16 26.16 9.16L26.2 8.06C25.7467 8.08667 25.3933 8.1 25.14 8.1C24.8467 8.1 24.6467 8.04667 24.54 7.94C24.4467 7.83333 24.4 7.61333 24.4 7.28C24.4 6.90667 24.6533 6.66667 25.16 6.56C25.68 6.45333 26.4667 6.4 27.52 6.4C28.3333 6.4 28.94 6.42667 29.34 6.48C29.7533 6.53333 29.96 6.65333 29.96 6.84C29.96 7.29333 29.86 7.59333 29.66 7.74C29.4733 7.87333 29.1067 7.94 28.56 7.94L28.16 7.96Z"/>
</mask>
<path d="M28.16 7.96C28.12 8.81333 28.1 9.63333 28.1 10.42C28.1 11.2333 28.1533 12.4267 28.26 14C28.2733 14.24 28.3 14.7267 28.34 15.46C28.38 16.18 28.4 16.84 28.4 17.44C28.5333 17.4267 28.6733 17.4067 28.82 17.38C28.98 17.3533 29.1 17.34 29.18 17.34C29.4733 17.34 29.7067 17.4133 29.88 17.56C30.0533 17.7067 30.14 17.9333 30.14 18.24C30.14 18.44 30.06 18.5933 29.9 18.7C29.74 18.8067 29.46 18.8867 29.06 18.94C28.6733 18.98 28.1067 19 27.36 19C26.5333 19 25.9133 18.9733 25.5 18.92C25.0867 18.8667 24.8 18.7667 24.64 18.62C24.48 18.46 24.4 18.2267 24.4 17.92C24.4 17.6933 24.4733 17.54 24.62 17.46C24.7667 17.38 24.9733 17.34 25.24 17.34L25.66 17.36L26.32 17.4L26.22 15.04C26.14 13.76 26.1 12.5867 26.1 11.52C26.1 10.9467 26.12 10.16 26.16 9.16L26.2 8.06C25.7467 8.08667 25.3933 8.1 25.14 8.1C24.8467 8.1 24.6467 8.04667 24.54 7.94C24.4467 7.83333 24.4 7.61333 24.4 7.28C24.4 6.90667 24.6533 6.66667 25.16 6.56C25.68 6.45333 26.4667 6.4 27.52 6.4C28.3333 6.4 28.94 6.42667 29.34 6.48C29.7533 6.53333 29.96 6.65333 29.96 6.84C29.96 7.29333 29.86 7.59333 29.66 7.74C29.4733 7.87333 29.1067 7.94 28.56 7.94L28.16 7.96Z" fill="#D4AF37"/>
<path d="M28.16 7.96L28.1101 6.96125L27.2036 7.00657L27.1611 7.91318L28.16 7.96ZM28.26 14L29.2585 13.9445L29.2577 13.9324L28.26 14ZM28.34 15.46L27.3415 15.5145L27.3415 15.5155L28.34 15.46ZM28.4 17.44H27.4V18.545L28.4995 18.435L28.4 17.44ZM28.82 17.38L28.6556 16.3936L28.6483 16.3948L28.6411 16.3961L28.82 17.38ZM29.88 17.56L29.2341 18.3234L29.2341 18.3234L29.88 17.56ZM29.9 18.7L30.4547 19.5321L30.4547 19.5321L29.9 18.7ZM29.06 18.94L29.1629 19.9347L29.1776 19.9332L29.1922 19.9312L29.06 18.94ZM25.5 18.92L25.372 19.9118L25.372 19.9118L25.5 18.92ZM24.64 18.62L23.9329 19.3271L23.9483 19.3425L23.9643 19.3572L24.64 18.62ZM24.62 17.46L24.1411 16.5821L24.1411 16.5821L24.62 17.46ZM25.24 17.34L25.2876 16.3411L25.2638 16.34H25.24V17.34ZM25.66 17.36L25.7205 16.3617L25.7076 16.3611L25.66 17.36ZM26.32 17.4L26.2595 18.3982L27.366 18.4652L27.3191 17.3577L26.32 17.4ZM26.22 15.04L27.2191 14.9977L27.2187 14.9876L27.2181 14.9776L26.22 15.04ZM26.16 9.16L27.1592 9.19997L27.1593 9.19634L26.16 9.16ZM26.2 8.06L27.1993 8.09634L27.2393 6.99713L26.1413 7.06172L26.2 8.06ZM24.54 7.94L23.7874 8.5985L23.8093 8.62356L23.8329 8.64711L24.54 7.94ZM25.16 6.56L24.9591 5.58038L24.954 5.58145L25.16 6.56ZM29.34 6.48L29.2078 7.47124L29.212 7.47178L29.34 6.48ZM29.66 7.74L30.2413 8.5538L30.2514 8.5464L29.66 7.74ZM28.56 7.94V6.94H28.535L28.5101 6.94125L28.56 7.94ZM27.1611 7.91318C27.1204 8.78079 27.1 9.61646 27.1 10.42H29.1C29.1 9.65021 29.1196 8.84587 29.1589 8.00682L27.1611 7.91318ZM27.1 10.42C27.1 11.268 27.1552 12.4885 27.2623 14.0676L29.2577 13.9324C29.1514 12.3648 29.1 11.1986 29.1 10.42H27.1ZM27.2615 14.0555C27.2748 14.2949 27.3015 14.781 27.3415 15.5145L29.3385 15.4055C29.2985 14.6723 29.2718 14.1851 29.2585 13.9445L27.2615 14.0555ZM27.3415 15.5155C27.3807 16.2205 27.4 16.8617 27.4 17.44H29.4C29.4 16.8183 29.3793 16.1395 29.3385 15.4045L27.3415 15.5155ZM28.4995 18.435C28.6622 18.4188 28.8288 18.3948 28.9989 18.3639L28.6411 16.3961C28.5179 16.4185 28.4045 16.4346 28.3005 16.445L28.4995 18.435ZM28.9844 18.3664C29.0521 18.3551 29.1034 18.348 29.1404 18.3439C29.1802 18.3395 29.1904 18.34 29.18 18.34V16.34C29.0137 16.34 28.8266 16.3651 28.6556 16.3936L28.9844 18.3664ZM29.18 18.34C29.2446 18.34 29.2726 18.3482 29.2752 18.349C29.2761 18.3493 29.2714 18.3479 29.2629 18.3433C29.2543 18.3386 29.2442 18.332 29.2341 18.3234L30.5259 16.7966C30.1248 16.4571 29.6395 16.34 29.18 16.34V18.34ZM29.2341 18.3234C29.211 18.3038 29.1902 18.281 29.1731 18.2565C29.1563 18.2323 29.1463 18.2112 29.1409 18.1971C29.1309 18.1708 29.14 18.1779 29.14 18.24H31.14C31.14 17.7482 30.9955 17.1939 30.5259 16.7966L29.2341 18.3234ZM29.14 18.24C29.14 18.2042 29.148 18.1294 29.1934 18.0424C29.2396 17.9539 29.3013 17.8973 29.3453 17.8679L30.4547 19.5321C30.906 19.2312 31.14 18.7583 31.14 18.24H29.14ZM29.3453 17.8679C29.3835 17.8425 29.3815 17.8539 29.2953 17.8785C29.216 17.9011 29.0966 17.9263 28.9278 17.9488L29.1922 19.9312C29.6126 19.8752 30.0911 19.7745 30.4547 19.5321L29.3453 17.8679ZM28.9571 17.9453C28.6228 17.9799 28.0974 18 27.36 18V20C28.1159 20 28.7239 19.9801 29.1629 19.9347L28.9571 17.9453ZM27.36 18C26.5432 18 25.9754 17.9731 25.628 17.9282L25.372 19.9118C25.8512 19.9736 26.5235 20 27.36 20V18ZM25.628 17.9282C25.4665 17.9074 25.3633 17.8814 25.3044 17.8608C25.2417 17.8389 25.2641 17.8355 25.3157 17.8828L23.9643 19.3572C24.3626 19.7223 24.9137 19.8526 25.372 19.9118L25.628 17.9282ZM25.3471 17.9129C25.3642 17.93 25.3781 17.9481 25.3886 17.9654C25.399 17.9824 25.4041 17.9951 25.4059 18.0007C25.4092 18.0102 25.4 17.9887 25.4 17.92H23.4C23.4 18.3951 23.5265 18.9207 23.9329 19.3271L25.3471 17.9129ZM25.4 17.92C25.4 17.9085 25.4026 17.9713 25.3571 18.0665C25.3048 18.1759 25.2134 18.2754 25.0989 18.3379L24.1411 16.5821C23.5606 16.8988 23.4 17.4766 23.4 17.92H25.4ZM25.0989 18.3379C25.0619 18.3581 25.0477 18.3571 25.075 18.3518C25.1018 18.3466 25.1544 18.34 25.24 18.34V16.34C24.8957 16.34 24.4972 16.3879 24.1411 16.5821L25.0989 18.3379ZM25.1924 18.3389L25.6124 18.3589L25.7076 16.3611L25.2876 16.3411L25.1924 18.3389ZM25.5995 18.3582L26.2595 18.3982L26.3805 16.4018L25.7205 16.3618L25.5995 18.3582ZM27.3191 17.3577L27.2191 14.9977L25.2209 15.0823L25.3209 17.4423L27.3191 17.3577ZM27.2181 14.9776C27.1391 13.7144 27.1 12.5622 27.1 11.52H25.1C25.1 12.6111 25.1409 13.8056 25.2219 15.1024L27.2181 14.9776ZM27.1 11.52C27.1 10.9662 27.1194 10.1949 27.1592 9.19997L25.1608 9.12003C25.1206 10.1251 25.1 10.9271 25.1 11.52H27.1ZM27.1593 9.19634L27.1993 8.09634L25.2007 8.02366L25.1607 9.12366L27.1593 9.19634ZM26.1413 7.06172C25.6948 7.08799 25.3642 7.1 25.14 7.1V9.1C25.4225 9.1 25.7985 9.08534 26.2587 9.05827L26.1413 7.06172ZM25.14 7.1C25.0963 7.1 25.0652 7.09798 25.045 7.09579C25.0244 7.09357 25.0199 7.09168 25.0277 7.09376C25.0371 7.09628 25.1382 7.12394 25.2471 7.23289L23.8329 8.64711C24.24 9.05426 24.8019 9.1 25.14 9.1V7.1ZM25.2926 7.2815C25.3532 7.35083 25.3841 7.41263 25.3979 7.44483C25.4119 7.47741 25.4147 7.49455 25.4132 7.48749C25.4119 7.48136 25.4083 7.46158 25.4052 7.42471C25.4021 7.38836 25.4 7.34064 25.4 7.28H23.4C23.4 7.48644 23.4138 7.70016 23.4568 7.9025C23.4968 8.09111 23.5808 8.36234 23.7874 8.5985L25.2926 7.2815ZM25.4 7.28C25.4 7.3013 25.396 7.34811 25.3718 7.40676C25.3469 7.46689 25.3112 7.51426 25.2777 7.54595C25.2469 7.57514 25.2287 7.58109 25.2425 7.57482C25.2569 7.56825 25.2949 7.55351 25.366 7.53855L24.954 5.58145C24.6016 5.65564 24.213 5.79968 23.9023 6.09405C23.5612 6.41714 23.4 6.84015 23.4 7.28H25.4ZM25.3609 7.5396C25.7781 7.45402 26.4819 7.4 27.52 7.4V5.4C26.4514 5.4 25.5819 5.45264 24.9591 5.5804L25.3609 7.5396ZM27.52 7.4C28.324 7.4 28.8763 7.42702 29.2078 7.47123L29.4722 5.48877C29.0037 5.42631 28.3426 5.4 27.52 5.4V7.4ZM29.212 7.47178C29.2807 7.48064 29.322 7.48999 29.342 7.49557C29.3642 7.50178 29.3446 7.49904 29.3029 7.47479C29.2606 7.45027 29.1716 7.38954 29.092 7.27135C29.0054 7.14288 28.96 6.99043 28.96 6.84H30.96C30.96 6.28836 30.619 5.92629 30.3071 5.74521C30.0333 5.5862 29.723 5.52113 29.468 5.48822L29.212 7.47178ZM28.96 6.84C28.96 6.91744 28.9557 6.97648 28.9499 7.01966C28.9442 7.06317 28.9378 7.0844 28.9363 7.08877C28.9349 7.09289 28.9405 7.07433 28.9611 7.04369C28.9827 7.01153 29.0176 6.971 29.0686 6.93359L30.2514 8.5464C30.8594 8.10054 30.96 7.3606 30.96 6.84H28.96ZM29.0788 6.92627C29.1239 6.89405 29.1525 6.88481 29.1463 6.88705C29.1412 6.8889 29.1167 6.89693 29.0661 6.90613C28.9622 6.92503 28.7983 6.94 28.56 6.94V8.94C28.8683 8.94 29.1612 8.92163 29.4239 8.87387C29.6722 8.82872 29.9759 8.74329 30.2412 8.55373L29.0788 6.92627ZM28.5101 6.94125L28.1101 6.96125L28.2099 8.95875L28.6099 8.93875L28.5101 6.94125Z" fill="#392F0D" mask="url(#path-7-outside-1_2010_89)"/>
</g>
<g filter="url(#filter2_d_2010_89)">
<mask id="path-9-outside-2_2010_89" maskUnits="userSpaceOnUse" x="30.5" y="5" width="9" height="15" fill="black">
<rect fill="white" x="30.5" y="5" width="9" height="15"/>
<path d="M36.16 7.96C36.12 8.81333 36.1 9.63333 36.1 10.42C36.1 11.2333 36.1533 12.4267 36.26 14C36.2733 14.24 36.3 14.7267 36.34 15.46C36.38 16.18 36.4 16.84 36.4 17.44C36.5333 17.4267 36.6733 17.4067 36.82 17.38C36.98 17.3533 37.1 17.34 37.18 17.34C37.4733 17.34 37.7067 17.4133 37.88 17.56C38.0533 17.7067 38.14 17.9333 38.14 18.24C38.14 18.44 38.06 18.5933 37.9 18.7C37.74 18.8067 37.46 18.8867 37.06 18.94C36.6733 18.98 36.1067 19 35.36 19C34.5333 19 33.9133 18.9733 33.5 18.92C33.0867 18.8667 32.8 18.7667 32.64 18.62C32.48 18.46 32.4 18.2267 32.4 17.92C32.4 17.6933 32.4733 17.54 32.62 17.46C32.7667 17.38 32.9733 17.34 33.24 17.34L33.66 17.36L34.32 17.4L34.22 15.04C34.14 13.76 34.1 12.5867 34.1 11.52C34.1 10.9467 34.12 10.16 34.16 9.16L34.2 8.06C33.7467 8.08667 33.3933 8.1 33.14 8.1C32.8467 8.1 32.6467 8.04667 32.54 7.94C32.4467 7.83333 32.4 7.61333 32.4 7.28C32.4 6.90667 32.6533 6.66667 33.16 6.56C33.68 6.45333 34.4667 6.4 35.52 6.4C36.3333 6.4 36.94 6.42667 37.34 6.48C37.7533 6.53333 37.96 6.65333 37.96 6.84C37.96 7.29333 37.86 7.59333 37.66 7.74C37.4733 7.87333 37.1067 7.94 36.56 7.94L36.16 7.96Z"/>
</mask>
<path d="M36.16 7.96C36.12 8.81333 36.1 9.63333 36.1 10.42C36.1 11.2333 36.1533 12.4267 36.26 14C36.2733 14.24 36.3 14.7267 36.34 15.46C36.38 16.18 36.4 16.84 36.4 17.44C36.5333 17.4267 36.6733 17.4067 36.82 17.38C36.98 17.3533 37.1 17.34 37.18 17.34C37.4733 17.34 37.7067 17.4133 37.88 17.56C38.0533 17.7067 38.14 17.9333 38.14 18.24C38.14 18.44 38.06 18.5933 37.9 18.7C37.74 18.8067 37.46 18.8867 37.06 18.94C36.6733 18.98 36.1067 19 35.36 19C34.5333 19 33.9133 18.9733 33.5 18.92C33.0867 18.8667 32.8 18.7667 32.64 18.62C32.48 18.46 32.4 18.2267 32.4 17.92C32.4 17.6933 32.4733 17.54 32.62 17.46C32.7667 17.38 32.9733 17.34 33.24 17.34L33.66 17.36L34.32 17.4L34.22 15.04C34.14 13.76 34.1 12.5867 34.1 11.52C34.1 10.9467 34.12 10.16 34.16 9.16L34.2 8.06C33.7467 8.08667 33.3933 8.1 33.14 8.1C32.8467 8.1 32.6467 8.04667 32.54 7.94C32.4467 7.83333 32.4 7.61333 32.4 7.28C32.4 6.90667 32.6533 6.66667 33.16 6.56C33.68 6.45333 34.4667 6.4 35.52 6.4C36.3333 6.4 36.94 6.42667 37.34 6.48C37.7533 6.53333 37.96 6.65333 37.96 6.84C37.96 7.29333 37.86 7.59333 37.66 7.74C37.4733 7.87333 37.1067 7.94 36.56 7.94L36.16 7.96Z" fill="#D4AF37"/>
<path d="M36.16 7.96L36.1101 6.96125L35.2036 7.00657L35.1611 7.91318L36.16 7.96ZM36.26 14L37.2585 13.9445L37.2577 13.9324L36.26 14ZM36.34 15.46L35.3415 15.5145L35.3415 15.5155L36.34 15.46ZM36.4 17.44H35.4V18.545L36.4995 18.435L36.4 17.44ZM36.82 17.38L36.6556 16.3936L36.6483 16.3948L36.6411 16.3961L36.82 17.38ZM37.88 17.56L37.2341 18.3234L37.2341 18.3234L37.88 17.56ZM37.9 18.7L38.4547 19.5321L38.4547 19.5321L37.9 18.7ZM37.06 18.94L37.1629 19.9347L37.1776 19.9332L37.1922 19.9312L37.06 18.94ZM33.5 18.92L33.372 19.9118L33.372 19.9118L33.5 18.92ZM32.64 18.62L31.9329 19.3271L31.9483 19.3425L31.9643 19.3572L32.64 18.62ZM32.62 17.46L32.1411 16.5821L32.1411 16.5821L32.62 17.46ZM33.24 17.34L33.2876 16.3411L33.2638 16.34H33.24V17.34ZM33.66 17.36L33.7205 16.3617L33.7076 16.3611L33.66 17.36ZM34.32 17.4L34.2595 18.3982L35.366 18.4652L35.3191 17.3577L34.32 17.4ZM34.22 15.04L35.2191 14.9977L35.2187 14.9876L35.2181 14.9776L34.22 15.04ZM34.16 9.16L35.1592 9.19997L35.1593 9.19634L34.16 9.16ZM34.2 8.06L35.1993 8.09634L35.2393 6.99713L34.1413 7.06172L34.2 8.06ZM32.54 7.94L31.7874 8.5985L31.8093 8.62356L31.8329 8.64711L32.54 7.94ZM33.16 6.56L32.9591 5.58038L32.954 5.58145L33.16 6.56ZM37.34 6.48L37.2078 7.47124L37.212 7.47178L37.34 6.48ZM37.66 7.74L38.2413 8.5538L38.2514 8.5464L37.66 7.74ZM36.56 7.94V6.94H36.535L36.5101 6.94125L36.56 7.94ZM35.1611 7.91318C35.1204 8.78079 35.1 9.61646 35.1 10.42H37.1C37.1 9.65021 37.1196 8.84587 37.1589 8.00682L35.1611 7.91318ZM35.1 10.42C35.1 11.268 35.1552 12.4885 35.2623 14.0676L37.2577 13.9324C37.1514 12.3648 37.1 11.1986 37.1 10.42H35.1ZM35.2615 14.0555C35.2748 14.2949 35.3015 14.781 35.3415 15.5145L37.3385 15.4055C37.2985 14.6723 37.2718 14.1851 37.2585 13.9445L35.2615 14.0555ZM35.3415 15.5155C35.3807 16.2205 35.4 16.8617 35.4 17.44H37.4C37.4 16.8183 37.3793 16.1395 37.3385 15.4045L35.3415 15.5155ZM36.4995 18.435C36.6622 18.4188 36.8288 18.3948 36.9989 18.3639L36.6411 16.3961C36.5179 16.4185 36.4045 16.4346 36.3005 16.445L36.4995 18.435ZM36.9844 18.3664C37.0521 18.3551 37.1034 18.348 37.1404 18.3439C37.1802 18.3395 37.1904 18.34 37.18 18.34V16.34C37.0137 16.34 36.8266 16.3651 36.6556 16.3936L36.9844 18.3664ZM37.18 18.34C37.2446 18.34 37.2726 18.3482 37.2752 18.349C37.2761 18.3493 37.2714 18.3479 37.2629 18.3433C37.2543 18.3386 37.2442 18.332 37.2341 18.3234L38.5259 16.7966C38.1248 16.4571 37.6395 16.34 37.18 16.34V18.34ZM37.2341 18.3234C37.211 18.3038 37.1902 18.281 37.1731 18.2565C37.1563 18.2323 37.1463 18.2112 37.1409 18.1971C37.1309 18.1708 37.14 18.1779 37.14 18.24H39.14C39.14 17.7482 38.9955 17.1939 38.5259 16.7966L37.2341 18.3234ZM37.14 18.24C37.14 18.2042 37.148 18.1294 37.1934 18.0424C37.2396 17.9539 37.3013 17.8973 37.3453 17.8679L38.4547 19.5321C38.906 19.2312 39.14 18.7583 39.14 18.24H37.14ZM37.3453 17.8679C37.3835 17.8425 37.3815 17.8539 37.2953 17.8785C37.216 17.9011 37.0966 17.9263 36.9278 17.9488L37.1922 19.9312C37.6126 19.8752 38.0911 19.7745 38.4547 19.5321L37.3453 17.8679ZM36.9571 17.9453C36.6228 17.9799 36.0974 18 35.36 18V20C36.1159 20 36.7239 19.9801 37.1629 19.9347L36.9571 17.9453ZM35.36 18C34.5432 18 33.9754 17.9731 33.628 17.9282L33.372 19.9118C33.8512 19.9736 34.5235 20 35.36 20V18ZM33.628 17.9282C33.4665 17.9074 33.3633 17.8814 33.3044 17.8608C33.2417 17.8389 33.2641 17.8355 33.3157 17.8828L31.9643 19.3572C32.3626 19.7223 32.9137 19.8526 33.372 19.9118L33.628 17.9282ZM33.3471 17.9129C33.3642 17.93 33.3781 17.9481 33.3886 17.9654C33.399 17.9824 33.4041 17.9951 33.4059 18.0007C33.4092 18.0102 33.4 17.9887 33.4 17.92H31.4C31.4 18.3951 31.5265 18.9207 31.9329 19.3271L33.3471 17.9129ZM33.4 17.92C33.4 17.9085 33.4026 17.9713 33.3571 18.0665C33.3048 18.1759 33.2134 18.2754 33.0989 18.3379L32.1411 16.5821C31.5606 16.8988 31.4 17.4766 31.4 17.92H33.4ZM33.0989 18.3379C33.0619 18.3581 33.0477 18.3571 33.075 18.3518C33.1018 18.3466 33.1544 18.34 33.24 18.34V16.34C32.8957 16.34 32.4972 16.3879 32.1411 16.5821L33.0989 18.3379ZM33.1924 18.3389L33.6124 18.3589L33.7076 16.3611L33.2876 16.3411L33.1924 18.3389ZM33.5995 18.3582L34.2595 18.3982L34.3805 16.4018L33.7205 16.3618L33.5995 18.3582ZM35.3191 17.3577L35.2191 14.9977L33.2209 15.0823L33.3209 17.4423L35.3191 17.3577ZM35.2181 14.9776C35.1391 13.7144 35.1 12.5622 35.1 11.52H33.1C33.1 12.6111 33.1409 13.8056 33.2219 15.1024L35.2181 14.9776ZM35.1 11.52C35.1 10.9662 35.1194 10.1949 35.1592 9.19997L33.1608 9.12003C33.1206 10.1251 33.1 10.9271 33.1 11.52H35.1ZM35.1593 9.19634L35.1993 8.09634L33.2007 8.02366L33.1607 9.12366L35.1593 9.19634ZM34.1413 7.06172C33.6948 7.08799 33.3642 7.1 33.14 7.1V9.1C33.4225 9.1 33.7985 9.08534 34.2587 9.05827L34.1413 7.06172ZM33.14 7.1C33.0963 7.1 33.0652 7.09798 33.045 7.09579C33.0244 7.09357 33.0199 7.09168 33.0277 7.09376C33.0371 7.09628 33.1382 7.12394 33.2471 7.23289L31.8329 8.64711C32.24 9.05426 32.8019 9.1 33.14 9.1V7.1ZM33.2926 7.2815C33.3532 7.35083 33.3841 7.41263 33.3979 7.44483C33.4119 7.47741 33.4147 7.49455 33.4132 7.48749C33.4119 7.48136 33.4083 7.46158 33.4052 7.42471C33.4021 7.38836 33.4 7.34064 33.4 7.28H31.4C31.4 7.48644 31.4138 7.70016 31.4568 7.9025C31.4968 8.09111 31.5808 8.36234 31.7874 8.5985L33.2926 7.2815ZM33.4 7.28C33.4 7.3013 33.396 7.34811 33.3718 7.40676C33.3469 7.46689 33.3112 7.51426 33.2777 7.54595C33.2469 7.57514 33.2287 7.58109 33.2425 7.57482C33.2569 7.56825 33.2949 7.55351 33.366 7.53855L32.954 5.58145C32.6016 5.65564 32.213 5.79968 31.9023 6.09405C31.5612 6.41714 31.4 6.84015 31.4 7.28H33.4ZM33.3609 7.5396C33.7781 7.45402 34.4819 7.4 35.52 7.4V5.4C34.4514 5.4 33.5819 5.45264 32.9591 5.5804L33.3609 7.5396ZM35.52 7.4C36.324 7.4 36.8763 7.42702 37.2078 7.47123L37.4722 5.48877C37.0037 5.42631 36.3426 5.4 35.52 5.4V7.4ZM37.212 7.47178C37.2807 7.48064 37.322 7.48999 37.342 7.49557C37.3642 7.50178 37.3446 7.49904 37.3029 7.47479C37.2606 7.45027 37.1716 7.38954 37.092 7.27135C37.0054 7.14288 36.96 6.99043 36.96 6.84H38.96C38.96 6.28836 38.619 5.92629 38.3071 5.74521C38.0333 5.5862 37.723 5.52113 37.468 5.48822L37.212 7.47178ZM36.96 6.84C36.96 6.91744 36.9557 6.97648 36.9499 7.01966C36.9442 7.06317 36.9378 7.0844 36.9363 7.08877C36.9349 7.09289 36.9405 7.07433 36.9611 7.04369C36.9827 7.01153 37.0176 6.971 37.0686 6.93359L38.2514 8.5464C38.8594 8.10054 38.96 7.3606 38.96 6.84H36.96ZM37.0788 6.92627C37.1239 6.89405 37.1525 6.88481 37.1463 6.88705C37.1412 6.8889 37.1167 6.89693 37.0661 6.90613C36.9622 6.92503 36.7983 6.94 36.56 6.94V8.94C36.8683 8.94 37.1612 8.92163 37.4239 8.87387C37.6722 8.82872 37.9759 8.74329 38.2412 8.55373L37.0788 6.92627ZM36.5101 6.94125L36.1101 6.96125L36.2099 8.95875L36.6099 8.93875L36.5101 6.94125Z" fill="#392F0D" mask="url(#path-9-outside-2_2010_89)"/>
</g>
<g filter="url(#filter3_d_2010_89)">
<mask id="path-11-outside-3_2010_89" maskUnits="userSpaceOnUse" x="38.5" y="5" width="9" height="15" fill="black">
<rect fill="white" x="38.5" y="5" width="9" height="15"/>
<path d="M44.16 7.96C44.12 8.81333 44.1 9.63333 44.1 10.42C44.1 11.2333 44.1533 12.4267 44.26 14C44.2733 14.24 44.3 14.7267 44.34 15.46C44.38 16.18 44.4 16.84 44.4 17.44C44.5333 17.4267 44.6733 17.4067 44.82 17.38C44.98 17.3533 45.1 17.34 45.18 17.34C45.4733 17.34 45.7067 17.4133 45.88 17.56C46.0533 17.7067 46.14 17.9333 46.14 18.24C46.14 18.44 46.06 18.5933 45.9 18.7C45.74 18.8067 45.46 18.8867 45.06 18.94C44.6733 18.98 44.1067 19 43.36 19C42.5333 19 41.9133 18.9733 41.5 18.92C41.0867 18.8667 40.8 18.7667 40.64 18.62C40.48 18.46 40.4 18.2267 40.4 17.92C40.4 17.6933 40.4733 17.54 40.62 17.46C40.7667 17.38 40.9733 17.34 41.24 17.34L41.66 17.36L42.32 17.4L42.22 15.04C42.14 13.76 42.1 12.5867 42.1 11.52C42.1 10.9467 42.12 10.16 42.16 9.16L42.2 8.06C41.7467 8.08667 41.3933 8.1 41.14 8.1C40.8467 8.1 40.6467 8.04667 40.54 7.94C40.4467 7.83333 40.4 7.61333 40.4 7.28C40.4 6.90667 40.6533 6.66667 41.16 6.56C41.68 6.45333 42.4667 6.4 43.52 6.4C44.3333 6.4 44.94 6.42667 45.34 6.48C45.7533 6.53333 45.96 6.65333 45.96 6.84C45.96 7.29333 45.86 7.59333 45.66 7.74C45.4733 7.87333 45.1067 7.94 44.56 7.94L44.16 7.96Z"/>
</mask>
<path d="M44.16 7.96C44.12 8.81333 44.1 9.63333 44.1 10.42C44.1 11.2333 44.1533 12.4267 44.26 14C44.2733 14.24 44.3 14.7267 44.34 15.46C44.38 16.18 44.4 16.84 44.4 17.44C44.5333 17.4267 44.6733 17.4067 44.82 17.38C44.98 17.3533 45.1 17.34 45.18 17.34C45.4733 17.34 45.7067 17.4133 45.88 17.56C46.0533 17.7067 46.14 17.9333 46.14 18.24C46.14 18.44 46.06 18.5933 45.9 18.7C45.74 18.8067 45.46 18.8867 45.06 18.94C44.6733 18.98 44.1067 19 43.36 19C42.5333 19 41.9133 18.9733 41.5 18.92C41.0867 18.8667 40.8 18.7667 40.64 18.62C40.48 18.46 40.4 18.2267 40.4 17.92C40.4 17.6933 40.4733 17.54 40.62 17.46C40.7667 17.38 40.9733 17.34 41.24 17.34L41.66 17.36L42.32 17.4L42.22 15.04C42.14 13.76 42.1 12.5867 42.1 11.52C42.1 10.9467 42.12 10.16 42.16 9.16L42.2 8.06C41.7467 8.08667 41.3933 8.1 41.14 8.1C40.8467 8.1 40.6467 8.04667 40.54 7.94C40.4467 7.83333 40.4 7.61333 40.4 7.28C40.4 6.90667 40.6533 6.66667 41.16 6.56C41.68 6.45333 42.4667 6.4 43.52 6.4C44.3333 6.4 44.94 6.42667 45.34 6.48C45.7533 6.53333 45.96 6.65333 45.96 6.84C45.96 7.29333 45.86 7.59333 45.66 7.74C45.4733 7.87333 45.1067 7.94 44.56 7.94L44.16 7.96Z" fill="#D4AF37"/>
<path d="M44.16 7.96L44.1101 6.96125L43.2036 7.00657L43.1611 7.91318L44.16 7.96ZM44.26 14L45.2585 13.9445L45.2577 13.9324L44.26 14ZM44.34 15.46L43.3415 15.5145L43.3415 15.5155L44.34 15.46ZM44.4 17.44H43.4V18.545L44.4995 18.435L44.4 17.44ZM44.82 17.38L44.6556 16.3936L44.6483 16.3948L44.6411 16.3961L44.82 17.38ZM45.88 17.56L45.2341 18.3234L45.2341 18.3234L45.88 17.56ZM45.9 18.7L46.4547 19.5321L46.4547 19.5321L45.9 18.7ZM45.06 18.94L45.1629 19.9347L45.1776 19.9332L45.1922 19.9312L45.06 18.94ZM41.5 18.92L41.372 19.9118L41.372 19.9118L41.5 18.92ZM40.64 18.62L39.9329 19.3271L39.9483 19.3425L39.9643 19.3572L40.64 18.62ZM40.62 17.46L40.1411 16.5821L40.1411 16.5821L40.62 17.46ZM41.24 17.34L41.2876 16.3411L41.2638 16.34H41.24V17.34ZM41.66 17.36L41.7205 16.3617L41.7076 16.3611L41.66 17.36ZM42.32 17.4L42.2595 18.3982L43.366 18.4652L43.3191 17.3577L42.32 17.4ZM42.22 15.04L43.2191 14.9977L43.2187 14.9876L43.2181 14.9776L42.22 15.04ZM42.16 9.16L43.1592 9.19997L43.1593 9.19634L42.16 9.16ZM42.2 8.06L43.1993 8.09634L43.2393 6.99713L42.1413 7.06172L42.2 8.06ZM40.54 7.94L39.7874 8.5985L39.8093 8.62356L39.8329 8.64711L40.54 7.94ZM41.16 6.56L40.9591 5.58038L40.954 5.58145L41.16 6.56ZM45.34 6.48L45.2078 7.47124L45.212 7.47178L45.34 6.48ZM45.66 7.74L46.2413 8.5538L46.2514 8.5464L45.66 7.74ZM44.56 7.94V6.94H44.535L44.5101 6.94125L44.56 7.94ZM43.1611 7.91318C43.1204 8.78079 43.1 9.61646 43.1 10.42H45.1C45.1 9.65021 45.1196 8.84587 45.1589 8.00682L43.1611 7.91318ZM43.1 10.42C43.1 11.268 43.1552 12.4885 43.2623 14.0676L45.2577 13.9324C45.1514 12.3648 45.1 11.1986 45.1 10.42H43.1ZM43.2615 14.0555C43.2748 14.2949 43.3015 14.781 43.3415 15.5145L45.3385 15.4055C45.2985 14.6723 45.2718 14.1851 45.2585 13.9445L43.2615 14.0555ZM43.3415 15.5155C43.3807 16.2205 43.4 16.8617 43.4 17.44H45.4C45.4 16.8183 45.3793 16.1395 45.3385 15.4045L43.3415 15.5155ZM44.4995 18.435C44.6622 18.4188 44.8288 18.3948 44.9989 18.3639L44.6411 16.3961C44.5179 16.4185 44.4045 16.4346 44.3005 16.445L44.4995 18.435ZM44.9844 18.3664C45.0521 18.3551 45.1034 18.348 45.1404 18.3439C45.1802 18.3395 45.1904 18.34 45.18 18.34V16.34C45.0137 16.34 44.8266 16.3651 44.6556 16.3936L44.9844 18.3664ZM45.18 18.34C45.2446 18.34 45.2726 18.3482 45.2752 18.349C45.2761 18.3493 45.2714 18.3479 45.2629 18.3433C45.2543 18.3386 45.2442 18.332 45.2341 18.3234L46.5259 16.7966C46.1248 16.4571 45.6395 16.34 45.18 16.34V18.34ZM45.2341 18.3234C45.211 18.3038 45.1902 18.281 45.1731 18.2565C45.1563 18.2323 45.1463 18.2112 45.1409 18.1971C45.1309 18.1708 45.14 18.1779 45.14 18.24H47.14C47.14 17.7482 46.9955 17.1939 46.5259 16.7966L45.2341 18.3234ZM45.14 18.24C45.14 18.2042 45.148 18.1294 45.1934 18.0424C45.2396 17.9539 45.3013 17.8973 45.3453 17.8679L46.4547 19.5321C46.906 19.2312 47.14 18.7583 47.14 18.24H45.14ZM45.3453 17.8679C45.3835 17.8425 45.3815 17.8539 45.2953 17.8785C45.216 17.9011 45.0966 17.9263 44.9278 17.9488L45.1922 19.9312C45.6126 19.8752 46.0911 19.7745 46.4547 19.5321L45.3453 17.8679ZM44.9571 17.9453C44.6228 17.9799 44.0974 18 43.36 18V20C44.1159 20 44.7239 19.9801 45.1629 19.9347L44.9571 17.9453ZM43.36 18C42.5432 18 41.9754 17.9731 41.628 17.9282L41.372 19.9118C41.8512 19.9736 42.5235 20 43.36 20V18ZM41.628 17.9282C41.4665 17.9074 41.3633 17.8814 41.3044 17.8608C41.2417 17.8389 41.2641 17.8355 41.3157 17.8828L39.9643 19.3572C40.3626 19.7223 40.9137 19.8526 41.372 19.9118L41.628 17.9282ZM41.3471 17.9129C41.3642 17.93 41.3781 17.9481 41.3886 17.9654C41.399 17.9824 41.4041 17.9951 41.4059 18.0007C41.4092 18.0102 41.4 17.9887 41.4 17.92H39.4C39.4 18.3951 39.5265 18.9207 39.9329 19.3271L41.3471 17.9129ZM41.4 17.92C41.4 17.9085 41.4026 17.9713 41.3571 18.0665C41.3048 18.1759 41.2134 18.2754 41.0989 18.3379L40.1411 16.5821C39.5606 16.8988 39.4 17.4766 39.4 17.92H41.4ZM41.0989 18.3379C41.0619 18.3581 41.0477 18.3571 41.075 18.3518C41.1018 18.3466 41.1544 18.34 41.24 18.34V16.34C40.8957 16.34 40.4972 16.3879 40.1411 16.5821L41.0989 18.3379ZM41.1924 18.3389L41.6124 18.3589L41.7076 16.3611L41.2876 16.3411L41.1924 18.3389ZM41.5995 18.3582L42.2595 18.3982L42.3805 16.4018L41.7205 16.3618L41.5995 18.3582ZM43.3191 17.3577L43.2191 14.9977L41.2209 15.0823L41.3209 17.4423L43.3191 17.3577ZM43.2181 14.9776C43.1391 13.7144 43.1 12.5622 43.1 11.52H41.1C41.1 12.6111 41.1409 13.8056 41.2219 15.1024L43.2181 14.9776ZM43.1 11.52C43.1 10.9662 43.1194 10.1949 43.1592 9.19997L41.1608 9.12003C41.1206 10.1251 41.1 10.9271 41.1 11.52H43.1ZM43.1593 9.19634L43.1993 8.09634L41.2007 8.02366L41.1607 9.12366L43.1593 9.19634ZM42.1413 7.06172C41.6948 7.08799 41.3642 7.1 41.14 7.1V9.1C41.4225 9.1 41.7985 9.08534 42.2587 9.05827L42.1413 7.06172ZM41.14 7.1C41.0963 7.1 41.0652 7.09798 41.045 7.09579C41.0244 7.09357 41.0199 7.09168 41.0277 7.09376C41.0371 7.09628 41.1382 7.12394 41.2471 7.23289L39.8329 8.64711C40.24 9.05426 40.8019 9.1 41.14 9.1V7.1ZM41.2926 7.2815C41.3532 7.35083 41.3841 7.41263 41.3979 7.44483C41.4119 7.47741 41.4147 7.49455 41.4132 7.48749C41.4119 7.48136 41.4083 7.46158 41.4052 7.42471C41.4021 7.38836 41.4 7.34064 41.4 7.28H39.4C39.4 7.48644 39.4138 7.70016 39.4568 7.9025C39.4968 8.09111 39.5808 8.36234 39.7874 8.5985L41.2926 7.2815ZM41.4 7.28C41.4 7.3013 41.396 7.34811 41.3718 7.40676C41.3469 7.46689 41.3112 7.51426 41.2777 7.54595C41.2469 7.57514 41.2287 7.58109 41.2425 7.57482C41.2569 7.56825 41.2949 7.55351 41.366 7.53855L40.954 5.58145C40.6016 5.65564 40.213 5.79968 39.9023 6.09405C39.5612 6.41714 39.4 6.84015 39.4 7.28H41.4ZM41.3609 7.5396C41.7781 7.45402 42.4819 7.4 43.52 7.4V5.4C42.4514 5.4 41.5819 5.45264 40.9591 5.5804L41.3609 7.5396ZM43.52 7.4C44.324 7.4 44.8763 7.42702 45.2078 7.47123L45.4722 5.48877C45.0037 5.42631 44.3426 5.4 43.52 5.4V7.4ZM45.212 7.47178C45.2807 7.48064 45.322 7.48999 45.342 7.49557C45.3642 7.50178 45.3446 7.49904 45.3029 7.47479C45.2606 7.45027 45.1716 7.38954 45.092 7.27135C45.0054 7.14288 44.96 6.99043 44.96 6.84H46.96C46.96 6.28836 46.619 5.92629 46.3071 5.74521C46.0333 5.5862 45.723 5.52113 45.468 5.48822L45.212 7.47178ZM44.96 6.84C44.96 6.91744 44.9557 6.97648 44.9499 7.01966C44.9442 7.06317 44.9378 7.0844 44.9363 7.08877C44.9349 7.09289 44.9405 7.07433 44.9611 7.04369C44.9827 7.01153 45.0176 6.971 45.0686 6.93359L46.2514 8.5464C46.8594 8.10054 46.96 7.3606 46.96 6.84H44.96ZM45.0788 6.92627C45.1239 6.89405 45.1525 6.88481 45.1463 6.88705C45.1412 6.8889 45.1167 6.89693 45.0661 6.90613C44.9622 6.92503 44.7983 6.94 44.56 6.94V8.94C44.8683 8.94 45.1612 8.92163 45.4239 8.87387C45.6722 8.82872 45.9759 8.74329 46.2412 8.55373L45.0788 6.92627ZM44.5101 6.94125L44.1101 6.96125L44.2099 8.95875L44.6099 8.93875L44.5101 6.94125Z" fill="#392F0D" mask="url(#path-11-outside-3_2010_89)"/>
</g>
<defs>
<filter id="filter0_d_2010_89" x="8.20001" y="13.7" width="54.6" height="54.6001" filterUnits="userSpaceOnUse" color-interpolation-filters="sRGB">
<feFlood flood-opacity="0" result="BackgroundImageFix"/>
<feColorMatrix in="SourceAlpha" type="matrix" values="0 0 0 0 0 0 0 0 0 0 0 0 0 0 0 0 0 0 127 0" result="hardAlpha"/>
<feOffset/>
<feGaussianBlur stdDeviation="1"/>
<feComposite in2="hardAlpha" operator="out"/>
<feColorMatrix type="matrix" values="0 0 0 0 0 0 0 0 0 0 0 0 0 0 0 0 0 0 1 0"/>
<feBlend mode="normal" in2="BackgroundImageFix" result="effect1_dropShadow_2010_89"/>
<feBlend mode="normal" in="SourceGraphic" in2="effect1_dropShadow_2010_89" result="shape"/>
</filter>
<filter id="filter1_d_2010_89" x="21.4" y="5.3999" width="11.74" height="18.6001" filterUnits="userSpaceOnUse" color-interpolation-filters="sRGB">
<feFlood flood-opacity="0" result="BackgroundImageFix"/>
<feColorMatrix in="SourceAlpha" type="matrix" values="0 0 0 0 0 0 0 0 0 0 0 0 0 0 0 0 0 0 127 0" result="hardAlpha"/>
<feOffset dy="2"/>
<feGaussianBlur stdDeviation="1.5"/>
<feComposite in2="hardAlpha" operator="out"/>
<feColorMatrix type="matrix" values="0 0 0 0 0 0 0 0 0 0 0 0 0 0 0 0 0 0 0.25 0"/>
<feBlend mode="normal" in2="BackgroundImageFix" result="effect1_dropShadow_2010_89"/>
<feBlend mode="normal" in="SourceGraphic" in2="effect1_dropShadow_2010_89" result="shape"/>
</filter>
<filter id="filter2_d_2010_89" x="29.4" y="5.3999" width="11.74" height="18.6001" filterUnits="userSpaceOnUse" color-interpolation-filters="sRGB">
<feFlood flood-opacity="0" result="BackgroundImageFix"/>
<feColorMatrix in="SourceAlpha" type="matrix" values="0 0 0 0 0 0 0 0 0 0 0 0 0 0 0 0 0 0 127 0" result="hardAlpha"/>
<feOffset dy="2"/>
<feGaussianBlur stdDeviation="1.5"/>
<feComposite in2="hardAlpha" operator="out"/>
<feColorMatrix type="matrix" values="0 0 0 0 0 0 0 0 0 0 0 0 0 0 0 0 0 0 0.25 0"/>
<feBlend mode="normal" in2="BackgroundImageFix" result="effect1_dropShadow_2010_89"/>
<feBlend mode="normal" in="SourceGraphic" in2="effect1_dropShadow_2010_89" result="shape"/>
</filter>
<filter id="filter3_d_2010_89" x="37.4" y="5.3999" width="11.74" height="18.6001" filterUnits="userSpaceOnUse" color-interpolation-filters="sRGB">
<feFlood flood-opacity="0" result="BackgroundImageFix"/>
<feColorMatrix in="SourceAlpha" type="matrix" values="0 0 0 0 0 0 0 0 0 0 0 0 0 0 0 0 0 0 127 0" result="hardAlpha"/>
<feOffset dy="2"/>
<feGaussianBlur stdDeviation="1.5"/>
<feComposite in2="hardAlpha" operator="out"/>
<feColorMatrix type="matrix" values="0 0 0 0 0 0 0 0 0 0 0 0 0 0 0 0 0 0 0.25 0"/>
<feBlend mode="normal" in2="BackgroundImageFix" result="effect1_dropShadow_2010_89"/>
<feBlend mode="normal" in="SourceGraphic" in2="effect1_dropShadow_2010_89" result="shape"/>
</filter>
<clipPath id="clip0_2010_89">
<rect width="38" height="38" fill="white" transform="translate(16.5115 24)"/>
</clipPath>
</defs>
</svg>
