<svg width="71" height="70" viewBox="0 0 71 70" fill="none" xmlns="http://www.w3.org/2000/svg">
<g clip-path="url(#clip0_2010_63)">
<path d="M35.7714 44.4142C35.7653 44.4142 35.7585 44.4142 35.7524 44.4108L35.747 44.4067C35.6685 44.3748 35.5847 44.358 35.5 44.3572C35.1503 44.3564 34.8567 44.6202 34.8202 44.9679C34.7837 45.3157 35.0161 45.6347 35.3583 45.7065C35.7005 45.7784 36.0416 45.5798 36.1481 45.2468C36.2545 44.9137 36.0918 44.5541 35.7714 44.4142Z" fill="#B08D57"/>
<path d="M30.9316 34.4498L28.1331 31.2517C27.8762 30.9581 27.5054 30.7892 27.1153 30.7882H17.8569C17.4969 30.7876 17.1516 30.931 16.898 31.1865C16.6193 31.4658 16.4752 31.8522 16.5031 32.2458C16.6006 32.9774 17.2337 33.518 17.9715 33.4998H25.9997C26.3745 33.4998 26.6783 33.8036 26.6783 34.1784C26.6783 34.5531 26.3745 34.8569 25.9997 34.8569H19.214C18.854 34.8563 18.5088 34.9997 18.2552 35.2552C17.9764 35.5345 17.8324 35.9209 17.8602 36.3145C17.9565 37.0472 18.5899 37.5893 19.3287 37.5712H23.2854C23.6602 37.5712 23.964 37.875 23.964 38.2498C23.964 38.6245 23.6602 38.9284 23.2854 38.9284H21.2497C20.8897 38.9277 20.5445 39.0712 20.2909 39.3267C20.0122 39.606 19.8681 39.9923 19.896 40.3859C19.9922 41.1186 20.6256 41.6607 21.3644 41.6426H24.475C25.4768 38.4191 27.8345 35.7926 30.9316 34.4498Z" fill="#B08D57"/>
<path d="M41.6071 44.3572H42.9297C42.7941 42.8515 42.2022 41.4231 41.2332 40.2627L40.2988 41.1971C40.0326 41.4542 39.6094 41.4506 39.3476 41.1888C39.0859 40.9271 39.0822 40.5038 39.3393 40.2376L40.2737 39.3032C39.1132 38.3338 37.6845 37.7418 36.1786 37.6061V38.9286C36.1786 39.3034 35.8748 39.6072 35.5 39.6072C35.1252 39.6072 34.8214 39.3034 34.8214 38.9286V37.6061C33.3158 37.7417 31.8873 38.3335 30.7269 39.3025L31.6613 40.2369C31.8377 40.4073 31.9085 40.6596 31.8464 40.8968C31.7843 41.1341 31.599 41.3193 31.3617 41.3814C31.1245 41.4435 30.8722 41.3728 30.7018 41.1964L29.7674 40.262C28.7981 41.4225 28.206 42.8512 28.0703 44.3572H29.3928C29.7676 44.3572 30.0714 44.661 30.0714 45.0358C30.0714 45.4105 29.7676 45.7143 29.3928 45.7143H28.0703C28.2059 47.22 28.7978 48.6484 29.7667 49.8088L30.7011 48.8744C30.9674 48.6173 31.3906 48.621 31.6524 48.8827C31.9141 49.1445 31.9178 49.5677 31.6606 49.8339L30.7262 50.7683C31.8867 51.7377 33.3154 52.3298 34.8214 52.4654V51.1429C34.8214 50.7681 35.1252 50.4643 35.5 50.4643C35.8748 50.4643 36.1786 50.7681 36.1786 51.1429V52.4654C37.6842 52.3298 39.1127 51.738 40.2731 50.769L39.3387 49.8346C39.0815 49.5684 39.0852 49.1451 39.3469 48.8834C39.6087 48.6216 40.0319 48.618 40.2982 48.8751L41.2326 49.8095C42.2019 48.649 42.794 47.2203 42.9297 45.7143H41.6071C41.2324 45.7143 40.9286 45.4105 40.9286 45.0358C40.9286 44.661 41.2324 44.3572 41.6071 44.3572ZM37.5357 45.0358C37.5357 46.1601 36.6243 47.0715 35.5 47.0715C34.3757 47.0715 33.4643 46.1601 33.4643 45.0358C33.4643 43.9115 34.3757 43 35.5 43C35.5278 43 35.5529 43.0068 35.5801 43.0082L36.2267 41.3905C36.3169 41.1653 36.5204 41.0053 36.7605 40.9708C37.0007 40.9362 37.241 41.0325 37.3909 41.2232C37.5409 41.4139 37.5777 41.6701 37.4875 41.8953L36.8395 43.5151C37.2801 43.8978 37.5339 44.4522 37.5357 45.0358Z" fill="#B08D57"/>
<path d="M45 33.4998H53.0282C53.7682 33.5197 54.4036 32.9771 54.5 32.2431C54.5278 31.8495 54.3838 31.4631 54.105 31.1839C53.8506 30.9275 53.504 30.784 53.1428 30.7855H43.8878C43.4977 30.7865 43.1268 30.9554 42.8699 31.249L40.0681 34.4498C43.1652 35.7926 45.5228 38.4191 46.5247 41.6427H49.6353C50.3754 41.6625 51.0108 41.12 51.1071 40.386C51.135 39.9924 50.9909 39.606 50.7122 39.3267C50.4578 39.0704 50.1111 38.9269 49.75 38.9284H47.7143C47.3395 38.9284 47.0357 38.6246 47.0357 38.2498C47.0357 37.8751 47.3395 37.5712 47.7143 37.5712H51.671C52.4111 37.5911 53.0465 37.0486 53.1428 36.3145C53.1707 35.9209 53.0266 35.5346 52.7479 35.2553C52.4935 34.9989 52.1468 34.8554 51.7857 34.857H45C44.6252 34.857 44.3214 34.5532 44.3214 34.1784C44.3214 33.8036 44.6252 33.4998 45 33.4998Z" fill="#B08D57"/>
<path d="M35.5 34.8572C29.8785 34.8572 25.3214 39.4143 25.3214 45.0357C25.3214 50.6572 29.8785 55.2143 35.5 55.2143C41.1215 55.2143 45.6786 50.6572 45.6786 45.0357C45.6722 39.4169 41.1188 34.8635 35.5 34.8572ZM35.5 53.8572C30.628 53.8572 26.6786 49.9077 26.6786 45.0357C26.6786 40.1638 30.628 36.2143 35.5 36.2143C40.3719 36.2143 44.3214 40.1638 44.3214 45.0357C44.3158 49.9054 40.3696 53.8516 35.5 53.8572Z" fill="#B08D57"/>
</g>
<g filter="url(#filter0_d_2010_63)">
<circle cx="35.5" cy="41" r="24.65" stroke="#B08D57" stroke-width="1.3" shape-rendering="crispEdges"/>
</g>
<g filter="url(#filter1_d_2010_63)">
<mask id="path-7-outside-1_2010_63" maskUnits="userSpaceOnUse" x="30.5" y="5" width="9" height="15" fill="black">
<rect fill="white" x="30.5" y="5" width="9" height="15"/>
<path d="M36.16 7.96C36.12 8.81333 36.1 9.63333 36.1 10.42C36.1 11.2333 36.1533 12.4267 36.26 14C36.2733 14.24 36.3 14.7267 36.34 15.46C36.38 16.18 36.4 16.84 36.4 17.44C36.5333 17.4267 36.6733 17.4067 36.82 17.38C36.98 17.3533 37.1 17.34 37.18 17.34C37.4733 17.34 37.7067 17.4133 37.88 17.56C38.0533 17.7067 38.14 17.9333 38.14 18.24C38.14 18.44 38.06 18.5933 37.9 18.7C37.74 18.8067 37.46 18.8867 37.06 18.94C36.6733 18.98 36.1067 19 35.36 19C34.5333 19 33.9133 18.9733 33.5 18.92C33.0867 18.8667 32.8 18.7667 32.64 18.62C32.48 18.46 32.4 18.2267 32.4 17.92C32.4 17.6933 32.4733 17.54 32.62 17.46C32.7667 17.38 32.9733 17.34 33.24 17.34L33.66 17.36L34.32 17.4L34.22 15.04C34.14 13.76 34.1 12.5867 34.1 11.52C34.1 10.9467 34.12 10.16 34.16 9.16L34.2 8.06C33.7467 8.08667 33.3933 8.1 33.14 8.1C32.8467 8.1 32.6467 8.04667 32.54 7.94C32.4467 7.83333 32.4 7.61333 32.4 7.28C32.4 6.90667 32.6533 6.66667 33.16 6.56C33.68 6.45333 34.4667 6.4 35.52 6.4C36.3333 6.4 36.94 6.42667 37.34 6.48C37.7533 6.53333 37.96 6.65333 37.96 6.84C37.96 7.29333 37.86 7.59333 37.66 7.74C37.4733 7.87333 37.1067 7.94 36.56 7.94L36.16 7.96Z"/>
</mask>
<path d="M36.16 7.96C36.12 8.81333 36.1 9.63333 36.1 10.42C36.1 11.2333 36.1533 12.4267 36.26 14C36.2733 14.24 36.3 14.7267 36.34 15.46C36.38 16.18 36.4 16.84 36.4 17.44C36.5333 17.4267 36.6733 17.4067 36.82 17.38C36.98 17.3533 37.1 17.34 37.18 17.34C37.4733 17.34 37.7067 17.4133 37.88 17.56C38.0533 17.7067 38.14 17.9333 38.14 18.24C38.14 18.44 38.06 18.5933 37.9 18.7C37.74 18.8067 37.46 18.8867 37.06 18.94C36.6733 18.98 36.1067 19 35.36 19C34.5333 19 33.9133 18.9733 33.5 18.92C33.0867 18.8667 32.8 18.7667 32.64 18.62C32.48 18.46 32.4 18.2267 32.4 17.92C32.4 17.6933 32.4733 17.54 32.62 17.46C32.7667 17.38 32.9733 17.34 33.24 17.34L33.66 17.36L34.32 17.4L34.22 15.04C34.14 13.76 34.1 12.5867 34.1 11.52C34.1 10.9467 34.12 10.16 34.16 9.16L34.2 8.06C33.7467 8.08667 33.3933 8.1 33.14 8.1C32.8467 8.1 32.6467 8.04667 32.54 7.94C32.4467 7.83333 32.4 7.61333 32.4 7.28C32.4 6.90667 32.6533 6.66667 33.16 6.56C33.68 6.45333 34.4667 6.4 35.52 6.4C36.3333 6.4 36.94 6.42667 37.34 6.48C37.7533 6.53333 37.96 6.65333 37.96 6.84C37.96 7.29333 37.86 7.59333 37.66 7.74C37.4733 7.87333 37.1067 7.94 36.56 7.94L36.16 7.96Z" fill="#B08D57"/>
<path d="M36.16 7.96L36.1101 6.96125L35.2036 7.00657L35.1611 7.91318L36.16 7.96ZM36.26 14L37.2585 13.9445L37.2577 13.9324L36.26 14ZM36.34 15.46L35.3415 15.5145L35.3415 15.5155L36.34 15.46ZM36.4 17.44H35.4V18.545L36.4995 18.435L36.4 17.44ZM36.82 17.38L36.6556 16.3936L36.6483 16.3948L36.6411 16.3961L36.82 17.38ZM37.88 17.56L37.2341 18.3234L37.2341 18.3234L37.88 17.56ZM37.9 18.7L38.4547 19.5321L38.4547 19.5321L37.9 18.7ZM37.06 18.94L37.1629 19.9347L37.1776 19.9332L37.1922 19.9312L37.06 18.94ZM33.5 18.92L33.372 19.9118L33.372 19.9118L33.5 18.92ZM32.64 18.62L31.9329 19.3271L31.9483 19.3425L31.9643 19.3572L32.64 18.62ZM32.62 17.46L32.1411 16.5821L32.1411 16.5821L32.62 17.46ZM33.24 17.34L33.2876 16.3411L33.2638 16.34H33.24V17.34ZM33.66 17.36L33.7205 16.3617L33.7076 16.3611L33.66 17.36ZM34.32 17.4L34.2595 18.3982L35.366 18.4652L35.3191 17.3577L34.32 17.4ZM34.22 15.04L35.2191 14.9977L35.2187 14.9876L35.2181 14.9776L34.22 15.04ZM34.16 9.16L35.1592 9.19997L35.1593 9.19634L34.16 9.16ZM34.2 8.06L35.1993 8.09634L35.2393 6.99713L34.1413 7.06172L34.2 8.06ZM32.54 7.94L31.7874 8.5985L31.8093 8.62356L31.8329 8.64711L32.54 7.94ZM33.16 6.56L32.9591 5.58038L32.954 5.58145L33.16 6.56ZM37.34 6.48L37.2078 7.47124L37.212 7.47178L37.34 6.48ZM37.66 7.74L38.2413 8.5538L38.2514 8.5464L37.66 7.74ZM36.56 7.94V6.94H36.535L36.5101 6.94125L36.56 7.94ZM35.1611 7.91318C35.1204 8.78079 35.1 9.61646 35.1 10.42H37.1C37.1 9.65021 37.1196 8.84587 37.1589 8.00682L35.1611 7.91318ZM35.1 10.42C35.1 11.268 35.1552 12.4885 35.2623 14.0676L37.2577 13.9324C37.1514 12.3648 37.1 11.1986 37.1 10.42H35.1ZM35.2615 14.0555C35.2748 14.2949 35.3015 14.781 35.3415 15.5145L37.3385 15.4055C37.2985 14.6723 37.2718 14.1851 37.2585 13.9445L35.2615 14.0555ZM35.3415 15.5155C35.3807 16.2205 35.4 16.8617 35.4 17.44H37.4C37.4 16.8183 37.3793 16.1395 37.3385 15.4045L35.3415 15.5155ZM36.4995 18.435C36.6622 18.4188 36.8288 18.3948 36.9989 18.3639L36.6411 16.3961C36.5179 16.4185 36.4045 16.4346 36.3005 16.445L36.4995 18.435ZM36.9844 18.3664C37.0521 18.3551 37.1034 18.348 37.1404 18.3439C37.1802 18.3395 37.1904 18.34 37.18 18.34V16.34C37.0137 16.34 36.8266 16.3651 36.6556 16.3936L36.9844 18.3664ZM37.18 18.34C37.2446 18.34 37.2726 18.3482 37.2752 18.349C37.2761 18.3493 37.2714 18.3479 37.2629 18.3433C37.2543 18.3386 37.2442 18.332 37.2341 18.3234L38.5259 16.7966C38.1248 16.4571 37.6395 16.34 37.18 16.34V18.34ZM37.2341 18.3234C37.211 18.3038 37.1902 18.281 37.1731 18.2565C37.1563 18.2323 37.1463 18.2112 37.1409 18.1971C37.1309 18.1708 37.14 18.1779 37.14 18.24H39.14C39.14 17.7482 38.9955 17.1939 38.5259 16.7966L37.2341 18.3234ZM37.14 18.24C37.14 18.2042 37.148 18.1294 37.1934 18.0424C37.2396 17.9539 37.3013 17.8973 37.3453 17.8679L38.4547 19.5321C38.906 19.2312 39.14 18.7583 39.14 18.24H37.14ZM37.3453 17.8679C37.3835 17.8425 37.3815 17.8539 37.2953 17.8785C37.216 17.9011 37.0966 17.9263 36.9278 17.9488L37.1922 19.9312C37.6126 19.8752 38.0911 19.7745 38.4547 19.5321L37.3453 17.8679ZM36.9571 17.9453C36.6228 17.9799 36.0974 18 35.36 18V20C36.1159 20 36.7239 19.9801 37.1629 19.9347L36.9571 17.9453ZM35.36 18C34.5432 18 33.9754 17.9731 33.628 17.9282L33.372 19.9118C33.8512 19.9736 34.5235 20 35.36 20V18ZM33.628 17.9282C33.4665 17.9074 33.3633 17.8814 33.3044 17.8608C33.2417 17.8389 33.2641 17.8355 33.3157 17.8828L31.9643 19.3572C32.3626 19.7223 32.9137 19.8526 33.372 19.9118L33.628 17.9282ZM33.3471 17.9129C33.3642 17.93 33.3781 17.9481 33.3886 17.9654C33.399 17.9824 33.4041 17.9951 33.4059 18.0007C33.4092 18.0102 33.4 17.9887 33.4 17.92H31.4C31.4 18.3951 31.5265 18.9207 31.9329 19.3271L33.3471 17.9129ZM33.4 17.92C33.4 17.9085 33.4026 17.9713 33.3571 18.0665C33.3048 18.1759 33.2134 18.2754 33.0989 18.3379L32.1411 16.5821C31.5606 16.8988 31.4 17.4766 31.4 17.92H33.4ZM33.0989 18.3379C33.0619 18.3581 33.0477 18.3571 33.075 18.3518C33.1018 18.3466 33.1544 18.34 33.24 18.34V16.34C32.8957 16.34 32.4972 16.3879 32.1411 16.5821L33.0989 18.3379ZM33.1924 18.3389L33.6124 18.3589L33.7076 16.3611L33.2876 16.3411L33.1924 18.3389ZM33.5995 18.3582L34.2595 18.3982L34.3805 16.4018L33.7205 16.3618L33.5995 18.3582ZM35.3191 17.3577L35.2191 14.9977L33.2209 15.0823L33.3209 17.4423L35.3191 17.3577ZM35.2181 14.9776C35.1391 13.7144 35.1 12.5622 35.1 11.52H33.1C33.1 12.6111 33.1409 13.8056 33.2219 15.1024L35.2181 14.9776ZM35.1 11.52C35.1 10.9662 35.1194 10.1949 35.1592 9.19997L33.1608 9.12003C33.1206 10.1251 33.1 10.9271 33.1 11.52H35.1ZM35.1593 9.19634L35.1993 8.09634L33.2007 8.02366L33.1607 9.12366L35.1593 9.19634ZM34.1413 7.06172C33.6948 7.08799 33.3642 7.1 33.14 7.1V9.1C33.4225 9.1 33.7985 9.08534 34.2587 9.05827L34.1413 7.06172ZM33.14 7.1C33.0963 7.1 33.0652 7.09798 33.045 7.09579C33.0244 7.09357 33.0199 7.09168 33.0277 7.09376C33.0371 7.09628 33.1382 7.12394 33.2471 7.23289L31.8329 8.64711C32.24 9.05426 32.8019 9.1 33.14 9.1V7.1ZM33.2926 7.2815C33.3532 7.35083 33.3841 7.41263 33.3979 7.44483C33.4119 7.47741 33.4147 7.49455 33.4132 7.48749C33.4119 7.48136 33.4083 7.46158 33.4052 7.42471C33.4021 7.38836 33.4 7.34064 33.4 7.28H31.4C31.4 7.48644 31.4138 7.70016 31.4568 7.9025C31.4968 8.09111 31.5808 8.36234 31.7874 8.5985L33.2926 7.2815ZM33.4 7.28C33.4 7.3013 33.396 7.34811 33.3718 7.40676C33.3469 7.46689 33.3112 7.51426 33.2777 7.54595C33.2469 7.57514 33.2287 7.58109 33.2425 7.57482C33.2569 7.56825 33.2949 7.55351 33.366 7.53855L32.954 5.58145C32.6016 5.65564 32.213 5.79968 31.9023 6.09405C31.5612 6.41714 31.4 6.84015 31.4 7.28H33.4ZM33.3609 7.5396C33.7781 7.45402 34.4819 7.4 35.52 7.4V5.4C34.4514 5.4 33.5819 5.45264 32.9591 5.5804L33.3609 7.5396ZM35.52 7.4C36.324 7.4 36.8763 7.42702 37.2078 7.47123L37.4722 5.48877C37.0037 5.42631 36.3426 5.4 35.52 5.4V7.4ZM37.212 7.47178C37.2807 7.48064 37.322 7.48999 37.342 7.49557C37.3642 7.50178 37.3446 7.49904 37.3029 7.47479C37.2606 7.45027 37.1716 7.38954 37.092 7.27135C37.0054 7.14288 36.96 6.99043 36.96 6.84H38.96C38.96 6.28836 38.619 5.92629 38.3071 5.74521C38.0333 5.5862 37.723 5.52113 37.468 5.48822L37.212 7.47178ZM36.96 6.84C36.96 6.91744 36.9557 6.97648 36.9499 7.01966C36.9442 7.06317 36.9378 7.0844 36.9363 7.08877C36.9349 7.09289 36.9405 7.07433 36.9611 7.04369C36.9827 7.01153 37.0176 6.971 37.0686 6.93359L38.2514 8.5464C38.8594 8.10054 38.96 7.3606 38.96 6.84H36.96ZM37.0788 6.92627C37.1239 6.89405 37.1525 6.88481 37.1463 6.88705C37.1412 6.8889 37.1167 6.89693 37.0661 6.90613C36.9622 6.92503 36.7983 6.94 36.56 6.94V8.94C36.8683 8.94 37.1612 8.92163 37.4239 8.87387C37.6722 8.82872 37.9759 8.74329 38.2412 8.55373L37.0788 6.92627ZM36.5101 6.94125L36.1101 6.96125L36.2099 8.95875L36.6099 8.93875L36.5101 6.94125Z" fill="#2A2113" mask="url(#path-7-outside-1_2010_63)"/>
</g>
<defs>
<filter id="filter0_d_2010_63" x="8.20001" y="13.7" width="54.6" height="54.6001" filterUnits="userSpaceOnUse" color-interpolation-filters="sRGB">
<feFlood flood-opacity="0" result="BackgroundImageFix"/>
<feColorMatrix in="SourceAlpha" type="matrix" values="0 0 0 0 0 0 0 0 0 0 0 0 0 0 0 0 0 0 127 0" result="hardAlpha"/>
<feOffset/>
<feGaussianBlur stdDeviation="1"/>
<feComposite in2="hardAlpha" operator="out"/>
<feColorMatrix type="matrix" values="0 0 0 0 0 0 0 0 0 0 0 0 0 0 0 0 0 0 1 0"/>
<feBlend mode="normal" in2="BackgroundImageFix" result="effect1_dropShadow_2010_63"/>
<feBlend mode="normal" in="SourceGraphic" in2="effect1_dropShadow_2010_63" result="shape"/>
</filter>
<filter id="filter1_d_2010_63" x="29.4" y="5.40002" width="11.74" height="18.6" filterUnits="userSpaceOnUse" color-interpolation-filters="sRGB">
<feFlood flood-opacity="0" result="BackgroundImageFix"/>
<feColorMatrix in="SourceAlpha" type="matrix" values="0 0 0 0 0 0 0 0 0 0 0 0 0 0 0 0 0 0 127 0" result="hardAlpha"/>
<feOffset dy="2"/>
<feGaussianBlur stdDeviation="1.5"/>
<feComposite in2="hardAlpha" operator="out"/>
<feColorMatrix type="matrix" values="0 0 0 0 0 0 0 0 0 0 0 0 0 0 0 0 0 0 0.25 0"/>
<feBlend mode="normal" in2="BackgroundImageFix" result="effect1_dropShadow_2010_63"/>
<feBlend mode="normal" in="SourceGraphic" in2="effect1_dropShadow_2010_63" result="shape"/>
</filter>
<clipPath id="clip0_2010_63">
<rect width="38" height="38" fill="white" transform="translate(16.5 24)"/>
</clipPath>
</defs>
</svg>
